<?xml version="1.0" standalone="no"?>
<!DOCTYPE svg PUBLIC "-//W3C//DTD SVG 20010904//EN"
 "http://www.w3.org/TR/2001/REC-SVG-20010904/DTD/svg10.dtd">
<svg version="1.0" xmlns="http://www.w3.org/2000/svg"
 width="513.000000pt" height="513.000000pt" viewBox="0 0 513.000000 513.000000"
 preserveAspectRatio="xMidYMid meet">
<metadata>
Created by potrace 1.14, written by Peter Selinger 2001-2017
</metadata>
<g transform="translate(0.000000,513.000000) scale(0.100000,-0.100000)"
fill="#000000" stroke="none">
<path d="M900 4668 c-138 -13 -263 -37 -289 -56 -14 -10 -34 -30 -45 -45 -19
-25 -20 -43 -20 -282 -1 -219 -3 -255 -16 -256 -8 0 -107 -2 -220 -3 -210 -2
-233 -6 -270 -45 -8 -9 -20 -27 -26 -41 -9 -19 -11 -477 -10 -1682 l1 -1657
21 -28 c29 -39 81 -65 124 -60 19 2 116 25 215 51 99 26 195 49 214 52 47 8
70 12 89 18 9 3 35 7 57 11 22 3 65 10 95 15 174 30 357 44 560 44 136 0 327
-10 353 -19 7 -2 32 -6 57 -9 125 -16 298 -56 435 -102 84 -27 244 -90 283
-110 37 -19 89 -9 192 36 158 68 399 138 570 165 19 3 60 10 90 15 165 30 543
32 772 4 45 -5 166 -23 208 -30 14 -2 41 -7 60 -10 78 -12 319 -67 437 -100
69 -19 136 -34 148 -34 53 0 106 38 127 90 7 16 10 594 10 1672 1 1594 0 1648
-18 1679 -11 17 -32 41 -47 53 -27 20 -42 21 -235 23 -114 1 -210 2 -214 2 -5
1 -8 112 -8 247 0 206 -3 252 -16 280 -40 83 -116 99 -484 99 -186 0 -363 -9
-380 -20 -3 -2 -26 -6 -50 -10 -192 -28 -425 -105 -607 -201 -173 -91 -292
-180 -425 -319 -43 -44 -78 -75 -78 -68 0 17 -162 185 -234 242 -275 217 -615
349 -1001 387 -101 10 -326 11 -425 2z m406 -282 c21 -3 59 -8 84 -11 149 -20
378 -89 502 -151 210 -105 369 -240 481 -406 l51 -78 1 -1305 c0 -718 -2
-1305 -4 -1305 -2 0 -29 17 -60 38 -407 277 -899 424 -1429 426 l-123 1 6
1095 c10 1638 10 1678 16 1684 3 3 39 9 80 12 41 4 75 8 77 9 5 5 279 -3 318
-9z m3001 -13 c11 -4 13 -275 13 -1387 l0 -1381 -178 -1 c-203 -1 -353 -23
-554 -80 -227 -65 -487 -181 -717 -322 -58 -36 -120 -73 -136 -83 l-30 -18 0
1318 0 1319 40 58 c101 148 306 314 505 408 168 79 399 144 578 162 37 3 69 8
70 9 6 6 395 3 409 -2z m-3772 -1794 c-8 -1292 -12 -1201 57 -1251 29 -20 42
-22 123 -19 331 11 488 1 725 -50 198 -43 373 -105 547 -195 98 -50 264 -156
328 -209 l29 -24 -64 20 c-101 33 -188 56 -245 65 -16 3 -46 9 -65 14 -59 15
-246 40 -348 47 -179 12 -516 6 -645 -12 -247 -34 -258 -36 -357 -55 -30 -7
-68 -14 -85 -17 -16 -2 -75 -16 -130 -29 -55 -13 -105 -24 -111 -24 -8 0 -11
414 -11 1448 0 796 1 1449 2 1452 2 3 60 5 130 6 l126 0 -6 -1167z m4303 -287
c1 -1064 -1 -1452 -9 -1452 -6 0 -50 9 -98 21 -99 24 -83 21 -226 49 -60 11
-128 23 -150 26 -22 3 -51 7 -65 10 -14 2 -47 7 -75 10 -27 3 -61 7 -75 10
-138 23 -630 23 -771 -1 -13 -2 -60 -9 -104 -15 -78 -12 -292 -57 -305 -65 -4
-2 -17 -6 -31 -9 -13 -3 -35 -8 -49 -12 -24 -6 -24 -6 -5 8 57 42 252 156 354
208 189 95 311 142 476 185 104 27 119 30 250 50 79 12 358 13 425 1 88 -15
107 -14 146 8 80 44 74 -52 74 1252 0 638 2 1163 5 1165 2 3 55 5 117 4 l113
0 3 -1453z"/>
</g>
</svg>
