<?xml version="1.0" standalone="no"?>
<!DOCTYPE svg PUBLIC "-//W3C//DTD SVG 20010904//EN"
 "http://www.w3.org/TR/2001/REC-SVG-20010904/DTD/svg10.dtd">
<svg version="1.0" xmlns="http://www.w3.org/2000/svg"
 width="922.000000pt" height="1224.000000pt" viewBox="0 0 922.000000 1224.000000"
 preserveAspectRatio="xMidYMid meet">
<metadata>
Created by potrace 1.16, written by Peter Selinger 2001-2019
</metadata>
<g transform="translate(0.000000,1224.000000) scale(0.100000,-0.100000)"
fill="#000000" stroke="none">
<path d="M2310 10155 c-125 -40 -172 -56 -255 -87 -44 -16 -111 -39 -149 -50
-38 -11 -99 -35 -137 -54 -37 -19 -72 -34 -77 -34 -5 0 -36 -20 -69 -44 -111
-81 -173 -199 -173 -329 0 -73 -20 -172 -56 -282 -29 -87 -112 -286 -145 -350
-54 -101 -69 -137 -100 -230 -18 -55 -41 -106 -51 -113 -10 -7 -18 -19 -18
-27 0 -8 -12 -56 -27 -107 -26 -91 -26 -95 -14 -204 10 -95 10 -120 -3 -170
-8 -33 -20 -102 -27 -154 -6 -52 -17 -111 -25 -130 -20 -49 -31 -211 -23 -323
10 -128 52 -295 100 -395 22 -45 37 -87 34 -92 -3 -6 -2 -10 3 -10 5 0 20 -25
32 -55 12 -30 51 -100 86 -155 35 -55 64 -103 64 -106 0 -18 147 -199 194
-239 33 -29 54 -55 51 -63 -2 -7 0 -10 5 -7 6 3 10 0 10 -8 0 -7 12 -24 26
-38 14 -13 46 -50 71 -82 24 -32 70 -76 101 -99 31 -23 82 -63 112 -88 30 -26
87 -65 126 -89 40 -23 80 -51 90 -63 11 -11 45 -40 76 -65 32 -24 72 -65 90
-91 17 -26 51 -69 74 -96 23 -26 44 -60 47 -75 3 -15 28 -55 56 -90 28 -35 60
-78 72 -97 19 -31 50 -51 33 -21 -4 7 -3 9 2 4 5 -5 9 -12 9 -16 0 -4 23 -27
50 -51 28 -23 51 -46 53 -50 1 -3 -8 -18 -20 -31 -20 -22 -23 -33 -20 -99 5
-112 44 -191 162 -330 57 -67 113 -158 105 -170 -3 -5 0 -20 6 -32 15 -28 25
-411 14 -533 -3 -41 -22 -159 -35 -220 -6 -27 -15 -79 -20 -115 -31 -201 -76
-334 -132 -391 -17 -16 -42 -54 -56 -84 -30 -60 -187 -255 -206 -255 -7 0 -23
-11 -35 -24 -13 -14 -40 -28 -63 -31 -22 -4 -65 -18 -97 -30 -72 -30 -121 -36
-293 -38 -121 -2 -140 -4 -165 -23 -15 -11 -34 -33 -41 -47 -13 -26 -13 -26
-47 -10 -30 14 -42 15 -87 4 -29 -6 -73 -24 -98 -38 -25 -15 -53 -28 -63 -28
-10 -1 -26 -10 -35 -20 -16 -18 -16 -18 10 -2 36 22 40 21 33 -6 -10 -37 16
-51 80 -43 30 3 88 1 128 -5 68 -11 74 -14 117 -61 38 -42 51 -50 82 -51 39
-1 98 22 167 65 24 15 48 25 52 22 5 -3 21 4 36 15 26 19 121 46 130 38 2 -2
-17 -32 -43 -66 -37 -49 -45 -68 -42 -92 3 -19 -4 -47 -19 -76 -30 -60 -29
-90 4 -168 42 -98 70 -83 82 42 8 77 8 78 62 133 55 57 139 120 158 120 6 0
11 4 11 8 0 5 18 18 39 30 21 12 63 43 92 69 l52 48 134 -2 c77 0 146 -6 162
-13 46 -19 255 -2 347 28 44 14 106 8 138 -14 l29 -18 -29 -8 c-16 -4 -72 -7
-124 -7 -52 1 -115 -5 -140 -12 -25 -7 -51 -14 -59 -15 -8 -2 -19 -11 -24 -21
-6 -10 -25 -32 -43 -49 -30 -29 -39 -32 -116 -36 -51 -3 -98 -11 -121 -22 -43
-21 -79 -76 -99 -149 -11 -42 -10 -49 5 -64 16 -16 18 -16 35 7 9 13 26 40 37
59 30 51 45 57 106 42 29 -8 77 -25 106 -38 30 -14 75 -26 101 -27 26 -1 57
-8 69 -14 12 -7 57 -12 100 -12 122 0 237 45 307 119 17 17 35 31 43 31 7 0
28 14 48 31 20 18 39 28 43 24 4 -4 -34 -46 -84 -94 -117 -110 -143 -160 -112
-211 10 -16 9 -23 -9 -42 -33 -35 -53 -92 -53 -150 1 -65 38 -161 65 -166 14
-3 16 0 11 14 -4 11 -10 31 -13 45 -12 63 110 218 207 261 25 10 56 29 68 41
27 25 82 104 82 117 0 18 64 82 101 101 46 23 152 26 221 5 25 -8 55 -13 65
-11 10 2 39 7 65 10 28 4 59 16 76 30 23 19 30 21 45 10 14 -10 31 -10 89 1
108 21 188 -11 253 -100 17 -22 39 -42 49 -44 32 -7 11 64 -30 100 -19 16 -34
37 -34 45 0 8 -24 38 -54 68 -61 62 -136 92 -183 74 -22 -8 -36 -5 -77 18 -45
24 -64 28 -160 31 -96 4 -109 6 -113 23 -3 11 -9 19 -14 19 -15 0 -10 156 5
197 18 47 57 181 61 208 2 11 15 56 30 100 68 197 83 230 299 650 11 22 25 42
30 44 5 2 28 24 50 49 23 25 54 59 70 76 15 17 42 60 59 96 16 36 39 75 50 87
18 20 19 32 14 106 -3 46 -10 103 -16 128 -24 106 -43 182 -47 193 -3 7 14 24
37 39 40 26 42 27 85 12 78 -26 173 -15 244 30 43 27 83 26 129 -3 13 -8 36
-16 50 -17 14 -1 55 -5 91 -9 80 -9 241 13 325 44 44 16 74 37 111 76 46 48
52 59 59 111 8 66 20 93 40 93 8 0 41 -16 74 -35 32 -19 63 -35 67 -35 4 0 28
-10 53 -21 25 -12 69 -32 96 -45 142 -66 271 -91 492 -98 l172 -4 98 -45 c161
-74 199 -82 323 -68 77 9 123 9 170 1 143 -23 169 -34 291 -120 97 -69 190
-119 286 -155 37 -14 77 -29 88 -35 94 -44 218 -37 276 16 12 11 25 13 41 9
23 -8 23 -7 4 13 -17 20 -18 23 -2 46 15 24 18 25 53 12 21 -7 63 -16 93 -20
30 -4 79 -14 108 -23 36 -11 56 -13 60 -6 4 6 26 14 48 17 29 5 45 14 54 32 8
13 20 24 28 24 11 0 14 11 10 55 -4 51 -9 61 -54 106 -27 28 -69 65 -94 82
-25 17 -61 43 -80 59 -178 141 -343 232 -495 271 -84 22 -90 25 -87 47 2 13
-4 48 -15 78 -13 41 -31 67 -73 104 -60 56 -62 57 -251 182 -74 48 -152 100
-174 115 -22 14 -44 32 -49 40 -5 9 -11 10 -15 3 -4 -7 -30 4 -69 29 -34 22
-135 77 -225 123 -89 46 -189 98 -222 115 -33 17 -109 55 -170 85 -198 97
-345 174 -361 190 -8 9 -21 16 -27 16 -7 0 -28 13 -47 28 -19 16 -56 41 -81
55 -25 15 -59 40 -75 57 -16 16 -35 30 -41 30 -7 0 -13 4 -13 8 0 5 -11 14
-25 20 -14 7 -42 27 -63 46 -20 19 -63 54 -94 79 -32 24 -54 48 -50 52 4 5 1
5 -6 1 -8 -5 -22 1 -35 16 -12 12 -45 41 -72 62 -73 58 -76 61 -121 103 -23
21 -56 49 -73 63 -17 14 -31 30 -31 36 0 6 -11 16 -24 22 -12 5 -56 47 -97 91
-41 45 -78 81 -84 81 -5 0 -23 23 -40 50 -16 27 -33 50 -37 50 -4 0 -21 20
-39 45 -17 24 -49 55 -70 69 -20 14 -55 51 -76 83 -35 54 -167 190 -329 342
-178 165 -274 240 -367 287 -59 29 -238 89 -345 114 -18 5 -38 12 -45 17 -7 5
-28 16 -47 23 -73 28 -161 95 -211 160 -27 36 -53 70 -59 77 -5 7 -10 16 -10
21 0 11 -95 107 -139 140 -20 15 -47 38 -61 51 -14 13 -44 32 -67 42 -23 11
-65 40 -94 64 -29 25 -58 45 -65 45 -7 0 -26 16 -44 36 -17 20 -50 46 -73 58
-59 31 -90 94 -90 184 -1 56 5 78 33 137 18 39 50 90 72 114 28 32 38 53 38
77 0 33 1 34 39 34 43 0 84 21 167 82 28 21 54 38 58 38 23 0 149 58 196 90
l55 38 89 -14 c60 -9 95 -10 107 -3 25 13 24 32 -3 44 -13 6 -44 48 -71 95
-53 93 -83 120 -168 150 -64 23 -190 58 -274 76 -33 7 -82 18 -109 25 -39 9
-65 9 -116 -1 -61 -11 -69 -11 -112 9 -52 23 -68 26 -68 11 0 -12 18 -27 59
-49 59 -30 52 -44 -15 -36 -95 11 -97 11 -101 -1 -2 -6 22 -23 53 -38 57 -28
60 -45 7 -46 -12 0 -24 -4 -28 -9 -3 -6 -16 -6 -33 -1 -41 13 -196 70 -196 73
-1 1 -7 13 -14 26 -15 26 -16 24 51 75 30 22 60 36 78 36 37 0 38 17 2 31 -16
6 -55 24 -88 39 -183 85 -353 103 -505 55z m410 -205 c0 -14 -42 -50 -51 -44
-19 11 11 44 49 53 1 1 2 -3 2 -9z m-135 -32 c-8 -20 -22 -34 -34 -36 -19 -3
-19 -1 -8 20 22 41 28 48 42 48 12 0 12 -5 0 -32z m-162 -43 c-9 -19 -23 -35
-31 -35 -13 0 -13 2 0 18 9 9 19 27 23 40 3 12 10 20 15 17 5 -3 2 -21 -7 -40z
m-78 -5 c-3 -5 -13 -10 -21 -10 -8 0 -14 5 -14 10 0 6 9 10 21 10 11 0 17 -4
14 -10z m1377 -34 c44 -18 75 -39 91 -59 29 -40 77 -123 77 -134 0 -9 -29 -6
-212 18 -90 12 -102 11 -175 -9 -95 -25 -151 -30 -180 -14 -12 7 -29 12 -37
12 -9 0 -16 5 -16 10 0 6 15 10 33 10 84 1 245 14 266 22 19 7 22 11 12 21 -8
8 -71 11 -220 10 l-209 -2 -49 32 c-41 27 -45 32 -26 35 12 2 55 -1 95 -7 106
-15 213 2 253 40 44 41 72 49 155 45 52 -2 95 -11 142 -30z m-1162 -2 c0 -11
-34 -64 -41 -64 -13 0 -28 26 -21 36 13 20 62 42 62 28z m-265 -29 c-81 -60
-105 -99 -105 -172 0 -28 36 -88 62 -105 10 -6 10 -8 -1 -8 -7 0 -31 17 -52
39 -33 33 -39 45 -39 82 0 23 9 62 21 86 22 45 65 87 80 77 5 -3 9 0 9 5 0 6
10 11 23 11 22 -1 22 -1 2 -15z m422 -22 c-17 -18 -22 -8 -11 22 5 12 10 13
17 6 8 -8 6 -16 -6 -28z m-377 -40 c0 -24 -29 -38 -60 -28 -28 9 -25 19 12 50
33 28 48 22 48 -22z m110 32 c0 -8 6 -12 14 -9 16 6 36 -24 29 -43 -3 -7 1
-13 7 -13 7 0 10 -7 6 -16 -3 -8 -2 -12 4 -9 6 3 10 2 10 -4 0 -5 -4 -13 -10
-16 -16 -10 -12 -28 5 -21 19 7 19 -8 -1 -51 -24 -50 -103 -93 -169 -92 l-50
1 56 12 c83 18 88 22 109 68 35 76 24 140 -29 185 -26 22 -26 22 -3 23 13 0
22 -6 22 -15z m101 -48 c-8 -8 -11 -7 -11 4 0 20 13 34 18 19 3 -7 -1 -17 -7
-23z m224 23 c6 -10 -20 -52 -61 -100 -12 -14 -24 -37 -28 -52 -4 -17 -23 -39
-51 -58 -47 -32 -102 -103 -86 -108 6 -2 25 3 43 11 49 22 96 28 101 14 3 -9
7 -9 18 1 20 19 29 14 29 -15 1 -47 36 -112 65 -119 32 -8 28 -25 -9 -37 -20
-7 -30 -6 -35 2 -5 7 -15 9 -26 5 -15 -6 -17 -4 -12 15 6 25 0 51 -13 51 -4 0
-23 -11 -43 -25 -40 -26 -60 -16 -31 16 17 19 16 19 -17 13 -19 -4 -42 -11
-51 -15 -32 -17 -30 11 2 29 75 41 83 63 14 38 -33 -11 -41 -11 -52 0 -19 21
-32 17 -32 -10 0 -14 -7 -26 -17 -29 -10 -2 -25 -8 -34 -11 -12 -5 -19 1 -28
24 -13 38 -35 30 -26 -10 4 -20 2 -29 -9 -33 -22 -9 -20 -24 4 -32 25 -8 26
-24 3 -41 -21 -16 -57 -19 -48 -4 10 16 -7 12 -44 -11 -18 -11 -35 -19 -37
-17 -1 2 12 19 30 38 32 35 58 75 62 96 1 6 -23 -15 -54 -45 -55 -55 -55 -55
-65 -31 -5 14 -13 35 -18 48 -9 24 -29 30 -29 8 0 -7 7 -33 15 -57 22 -62 3
-68 -33 -9 -17 27 -38 50 -46 50 -10 0 -13 -6 -9 -16 5 -14 3 -15 -14 -6 -31
17 -34 4 -8 -46 13 -26 22 -49 20 -52 -2 -3 -28 -18 -58 -35 l-56 -29 -21 27
c-20 26 -50 37 -50 18 0 -4 10 -20 21 -35 29 -37 13 -54 -31 -36 -37 15 -49 7
-26 -19 11 -12 14 -21 7 -26 -21 -12 -11 -27 14 -23 39 8 49 -15 20 -42 -14
-13 -25 -27 -25 -32 0 -14 32 -9 51 8 16 15 39 12 39 -4 0 -4 -18 -17 -40 -30
-62 -35 -45 -56 23 -27 13 6 16 4 11 -9 -3 -9 -26 -25 -51 -36 -45 -20 -46
-20 -82 -1 -34 17 -100 41 -114 41 -18 0 -2 -18 43 -50 27 -19 48 -39 46 -45
-6 -22 -38 -15 -67 14 -51 51 -70 34 -24 -21 17 -21 24 -37 19 -50 -3 -11 -2
-18 2 -15 16 9 56 -12 51 -27 -3 -8 1 -13 11 -12 9 0 21 -9 27 -21 6 -14 20
-23 38 -25 28 -3 28 -3 9 -23 -33 -36 -54 -74 -47 -85 4 -7 19 -9 38 -4 28 6
30 5 19 -9 -11 -13 -5 -25 39 -78 29 -34 46 -60 38 -57 -8 3 -38 15 -66 27
-39 15 -53 17 -53 8 0 -7 5 -18 12 -25 15 -15 8 -15 -26 -2 -20 7 -26 6 -26
-4 0 -18 21 -35 83 -64 29 -13 46 -27 39 -29 -7 -3 -28 4 -46 15 -20 12 -44
18 -56 15 -29 -8 -70 39 -70 81 0 30 -14 56 -31 56 -4 0 -10 -25 -14 -55 -3
-30 -9 -55 -13 -55 -20 1 -34 20 -29 40 4 15 -2 30 -18 46 -35 35 -23 60 33
69 l47 7 -23 18 c-27 22 -27 27 -4 33 13 4 11 5 -5 6 -13 0 -23 5 -23 10 0 12
29 23 41 15 5 -3 9 -2 9 3 0 4 -13 14 -30 21 -24 11 -28 18 -24 40 5 23 1 29
-26 39 -32 12 -35 11 -63 -30 -10 -15 -20 -17 -50 -12 -25 5 -37 13 -37 24 0
9 -5 22 -12 29 -12 12 -41 132 -33 140 2 2 17 -22 33 -54 36 -72 50 -56 22 26
-20 58 -20 80 0 80 6 0 22 -24 37 -52 23 -45 28 -49 31 -30 2 13 -6 42 -17 65
-14 27 -17 45 -11 51 15 15 12 29 -5 23 -8 -4 -17 -2 -20 2 -2 5 7 11 21 14
21 4 28 -1 36 -22 36 -90 48 -93 36 -9 -4 33 -6 63 -4 65 2 3 17 -17 32 -44
32 -54 45 -39 19 23 -12 30 -13 39 -3 46 22 13 28 9 51 -29 26 -45 37 -22 13
26 -10 18 -13 41 -10 60 6 31 -3 40 -22 21 -6 -6 -15 -6 -24 0 -12 8 -5 18 35
54 28 24 47 47 44 50 -3 3 -30 -7 -60 -24 -30 -16 -57 -30 -61 -30 -15 0 -8
21 10 27 9 4 37 21 62 38 51 36 75 35 109 -3 13 -15 21 -20 19 -12 -10 29 -18
65 -12 54 4 -9 13 -9 33 -1 21 8 27 15 23 30 -4 16 -1 18 17 12 12 -4 21 -2
21 4 0 6 -5 11 -11 11 -6 0 3 15 21 33 18 17 34 27 37 21 2 -6 11 -20 19 -30
14 -18 15 -17 9 11 -4 17 -7 40 -8 51 -1 13 -7 19 -14 17 -21 -8 -15 9 14 39
33 34 26 46 -11 17 -15 -12 -30 -18 -34 -14 -4 4 4 15 18 24 13 9 32 23 41 32
10 10 27 14 46 12 17 -3 34 0 37 6 13 21 42 11 59 -22 18 -33 44 -50 128 -86
38 -16 55 -18 89 -10 69 16 138 56 164 97 13 20 42 56 65 80 22 24 41 49 41
57 0 8 5 15 10 15 20 0 5 -32 -47 -99 -18 -24 -33 -53 -33 -65 0 -17 8 -13 43
26 64 71 97 115 97 127 0 6 5 11 10 11 6 0 10 6 10 13 0 14 19 37 31 37 4 0
11 -4 14 -10z m-155 -17 c0 -5 -14 -24 -30 -43 -34 -41 -41 -22 -7 20 21 28
37 38 37 23z m323 -82 c8 -8 8 -11 0 -11 -7 0 -15 5 -18 10 -4 6 -10 8 -15 5
-5 -3 -12 0 -15 6 -4 6 -17 8 -30 5 -18 -5 -24 -1 -27 18 l-5 24 50 -23 c27
-13 54 -28 60 -34z m42 -49 c-3 -3 -11 0 -18 7 -9 10 -8 11 6 5 10 -3 15 -9
12 -12z m-1385 -12 c0 -5 -4 -10 -10 -10 -5 0 -10 5 -10 10 0 6 5 10 10 10 6
0 10 -4 10 -10z m1705 -9 c25 -4 40 -12 40 -21 0 -7 -31 -36 -70 -62 -46 -33
-69 -55 -68 -67 4 -31 -120 -63 -262 -68 -142 -6 -154 -1 -165 73 -4 27 -6 51
-5 52 2 2 23 6 47 9 40 4 42 3 24 -11 -17 -14 -16 -15 20 -9 22 3 51 12 66 19
15 8 33 14 41 14 8 0 28 7 43 15 16 8 39 15 51 15 31 0 38 18 17 41 -18 20
-18 21 81 14 55 -4 118 -10 140 -14z m-515 -31 c0 -5 -4 -10 -10 -10 -5 0 -10
5 -10 10 0 6 5 10 10 10 6 0 10 -4 10 -10z m625 -40 c12 -19 -16 -49 -71 -75
-46 -22 -58 -24 -65 -13 -13 20 -9 24 51 62 58 37 75 42 85 26z m-1495 -35
c-7 -9 -15 -13 -17 -11 -7 7 7 26 19 26 6 0 6 -6 -2 -15z m-46 -36 c-3 -5 -10
-7 -15 -3 -5 3 -7 10 -3 15 3 5 10 7 15 3 5 -3 7 -10 3 -15z m71 1 c-3 -5 -11
-10 -16 -10 -6 0 -7 5 -4 10 3 6 11 10 16 10 6 0 7 -4 4 -10z m565 -103 c0
-13 -40 -37 -60 -37 -31 0 8 33 58 49 1 1 2 -5 2 -12z m664 -22 c-17 -42 -48
-75 -69 -75 -20 0 -19 10 5 40 11 14 20 30 20 37 0 13 28 32 47 33 9 0 8 -9
-3 -35z m-194 -14 c0 -11 -4 -23 -10 -26 -6 -4 -10 5 -10 19 0 14 5 26 10 26
6 0 10 -9 10 -19z m83 5 c-27 -46 -81 -105 -95 -106 -10 0 -18 2 -18 4 0 3 24
29 53 59 50 53 77 72 60 43z m-893 -88 c0 -20 -18 -5 -23 19 -5 26 -4 26 9 8
8 -10 14 -22 14 -27z m486 -14 c-20 -22 -36 -34 -36 -28 0 16 64 88 68 76 1
-5 -13 -27 -32 -48z m176 14 c-17 -18 -34 -29 -37 -26 -4 3 9 20 27 36 42 40
52 31 10 -10z m-539 -13 c-3 -9 -8 -14 -10 -11 -3 3 -2 9 2 15 9 16 15 13 8
-4z m613 -17 c-9 -12 -16 -19 -16 -15 0 11 24 47 28 42 2 -2 -3 -14 -12 -27z
m-160 13 c26 21 14 -2 -17 -34 l-31 -32 18 30 c18 30 18 30 -2 13 -31 -27 -41
-21 -13 8 13 14 25 20 27 14 3 -8 8 -8 18 1z m-489 -47 c-9 -9 -28 6 -21 18 4
6 10 6 17 -1 6 -6 8 -13 4 -17z m-193 -18 c-16 -13 -31 -22 -34 -20 -2 3 9 16
25 29 39 30 46 23 9 -9z m950 2 c-21 -42 -21 -41 -34 -33 -7 4 -3 16 12 35 31
39 42 37 22 -2z m-814 -8 c-8 -5 -17 -7 -19 -4 -3 3 1 9 9 14 8 5 17 7 19 4 3
-3 -1 -9 -9 -14z m-535 -1 c10 -15 -1 -23 -20 -15 -9 3 -13 10 -10 16 8 13 22
13 30 -1z m485 -24 c0 -14 -54 -55 -73 -55 -21 0 -18 34 4 51 29 23 69 25 69
4z m-150 -13 c0 -13 -12 -22 -22 -16 -10 6 -1 24 13 24 5 0 9 -4 9 -8z m680
-25 c0 -2 -19 -21 -41 -42 -43 -41 -43 -31 0 17 21 24 41 36 41 25z m-634 -42
c-5 -14 -9 -15 -21 -5 -12 10 -13 16 -4 27 15 18 34 1 25 -22z m-536 -43 c0
-13 -12 -22 -22 -16 -10 6 -1 24 13 24 5 0 9 -4 9 -8z m1230 -5 c0 -2 -10 -12
-22 -23 l-23 -19 19 23 c18 21 26 27 26 19z m-1394 -71 c-2 -13 -9 -32 -14
-42 -17 -32 -77 -199 -74 -206 3 -12 -16 -9 -23 3 -6 9 28 109 45 134 4 6 18
40 31 77 22 63 44 84 35 34z m704 13 c0 -15 -70 -79 -86 -79 -24 0 -15 18 19
41 17 13 36 29 40 36 10 16 27 17 27 2z m-640 -29 c0 -11 6 -20 14 -20 17 0
50 -131 41 -164 -14 -47 -37 -86 -50 -86 -19 0 -19 1 1 50 13 32 14 43 4 55
-19 22 -26 12 -55 -76 -16 -47 -32 -78 -38 -76 -19 7 -9 45 33 137 62 136 64
141 40 147 -13 4 -19 11 -16 20 3 8 6 19 6 24 0 5 5 9 10 9 6 0 10 -9 10 -20z
m520 -70 c0 -5 -2 -10 -4 -10 -3 0 -8 5 -11 10 -3 6 -1 10 4 10 6 0 11 -4 11
-10z m-33 -26 c5 -14 -42 -38 -56 -30 -17 11 -13 22 12 34 25 12 39 11 44 -4z
m-678 -54 c-6 -16 -15 -30 -20 -30 -9 0 -1 28 14 48 15 19 17 14 6 -18z m676
0 c-21 -23 -35 -26 -35 -6 0 13 15 21 44 25 5 0 1 -8 -9 -19z m-235 -44 c0 -3
-4 -8 -10 -11 -5 -3 -10 -1 -10 4 0 6 5 11 10 11 6 0 10 -2 10 -4z m924 -18
c-4 -7 -17 -26 -29 -43 -35 -49 -52 -90 -45 -110 6 -17 8 -17 16 -4 5 9 18 21
30 27 11 6 33 31 49 56 16 25 35 48 43 51 12 4 11 1 -2 -17 -9 -13 -19 -30
-23 -38 -4 -8 -13 -21 -20 -28 -7 -7 -13 -22 -13 -31 0 -10 -7 -24 -15 -31 -8
-7 -15 -20 -15 -29 0 -9 -35 -86 -78 -171 -71 -143 -79 -155 -108 -161 -17 -3
-48 -18 -68 -34 l-36 -27 -35 21 c-19 11 -89 43 -155 72 -66 28 -120 54 -120
58 0 3 4 12 9 20 10 16 40 8 93 -25 21 -13 44 -24 52 -24 8 0 18 -4 21 -10 3
-5 12 -10 18 -10 7 1 -4 14 -23 31 l-35 29 50 -5 50 -5 -32 15 c-18 8 -33 18
-33 21 0 26 177 288 229 338 73 71 70 64 -128 -271 -36 -60 -38 -73 -11 -73
12 0 20 7 20 16 0 16 53 77 145 169 23 22 63 69 90 105 67 89 133 160 109 118z
m-944 -37 c0 -12 -20 -25 -27 -18 -7 7 6 27 18 27 5 0 9 -4 9 -9z m-60 -10 c0
-12 -28 -22 -34 -12 -3 5 -3 11 1 15 9 9 33 7 33 -3z m-50 -5 c0 -9 -30 -14
-35 -6 -4 6 3 10 14 10 12 0 21 -2 21 -4z m-120 -35 c0 -5 -6 -11 -12 -14 -10
-3 -10 -7 -1 -17 14 -15 6 -40 -13 -40 -17 0 -18 20 -2 55 11 24 28 34 28 16z
m1367 -163 c-36 -90 -80 -200 -97 -245 -17 -46 -36 -85 -41 -88 -20 -13 -7 54
22 105 17 30 42 84 56 120 14 36 28 70 32 75 5 6 21 46 36 90 33 94 45 119 52
111 3 -2 -24 -78 -60 -168z m-1157 142 c0 -5 -4 -10 -10 -10 -5 0 -10 5 -10
10 0 6 5 10 10 10 6 0 10 -4 10 -10z m-408 -55 c-6 -32 -19 -32 -34 0 -8 19
-8 28 3 41 12 14 14 14 25 0 6 -9 9 -27 6 -41z m855 -3 c-15 -16 -27 -33 -27
-40 0 -17 -10 -15 -32 5 -18 16 -17 18 29 43 27 14 50 25 52 23 3 -2 -8 -16
-22 -31z m-592 -16 c-4 -20 -10 -36 -14 -36 -14 0 -31 25 -30 45 0 18 1 19 8
2 6 -17 8 -16 19 8 17 36 25 26 17 -19z m132 22 c-2 -7 -10 -29 -17 -50 -8
-21 -18 -34 -26 -31 -18 7 13 93 33 93 8 0 13 -6 10 -12z m-91 -65 c-10 -10
-19 5 -10 18 6 11 8 11 12 0 2 -7 1 -15 -2 -18z m616 -5 c-8 -18 -17 -27 -20
-20 -2 7 4 22 14 33 24 26 25 24 6 -13z m-496 -35 c-10 -26 -18 -8 -9 23 5 21
8 24 11 11 2 -10 1 -25 -2 -34z m2058 -91 c23 -66 21 -74 -11 -61 -14 5 -33 7
-40 4 -8 -2 -26 1 -41 9 l-27 14 2 -67 c1 -36 2 -74 2 -83 1 -10 6 -18 12 -18
8 0 10 20 7 60 -5 65 2 74 28 35 12 -19 14 -36 9 -75 -8 -57 -17 -61 -66 -25
-19 13 -45 29 -58 35 -16 7 -21 15 -16 28 4 9 10 40 15 67 4 28 8 51 9 53 1 1
1 14 1 28 0 24 3 25 33 19 17 -4 45 -16 61 -27 25 -18 30 -19 43 -5 14 14 13
19 -6 50 -28 45 -27 56 3 27 14 -12 32 -43 40 -68z m-1604 49 c0 -12 -20 -25
-27 -18 -7 7 6 27 18 27 5 0 9 -4 9 -9z m-197 -53 c18 -13 34 -24 36 -26 3 -1
-2 -9 -10 -17 -13 -13 -21 -12 -67 7 -35 15 -52 28 -52 40 0 26 53 24 93 -4z
m162 12 c3 -5 1 -10 -4 -10 -6 0 -11 5 -11 10 0 6 2 10 4 10 3 0 8 -4 11 -10z
m-655 -44 c10 -13 10 -16 -4 -16 -20 0 -46 23 -46 40 0 13 31 -2 50 -24z
m1175 -42 c-1 -36 -4 -67 -6 -68 -2 -2 -21 -6 -41 -9 l-38 -6 16 32 c16 31 67
116 71 117 1 0 0 -30 -2 -66z m857 -22 c3 -37 2 -41 -9 -26 -14 20 -17 53 -6
81 8 20 10 15 15 -55z m-310 -14 c2 -27 2 -48 0 -48 -11 0 -21 59 -15 89 8 39
10 31 15 -41z m208 27 c0 -33 -4 -45 -15 -45 -17 0 -19 27 -5 64 14 38 20 32
20 -19z m378 -11 c12 -4 22 -13 22 -20 0 -21 -38 -17 -50 6 -11 21 -8 23 28
14z m101 -28 c12 -13 37 -31 55 -41 36 -20 66 -65 66 -101 0 -28 -4 -29 -61
-9 -34 12 -44 13 -51 3 -5 -8 -1 -16 12 -22 18 -8 68 -112 58 -122 -3 -3 -41
11 -84 30 -62 27 -80 39 -82 58 -6 40 -22 45 -22 7 0 -19 -5 -40 -11 -46 -8
-8 -8 -17 0 -31 31 -57 5 -47 -61 24 -117 124 -145 169 -85 135 44 -26 89 -34
147 -26 67 9 91 30 93 80 1 22 -2 50 -6 63 -11 29 4 28 32 -2z m-606 -81 c-14
-62 -17 -67 -29 -50 -12 16 -12 21 0 34 8 9 18 30 22 46 8 34 14 48 20 43 1
-2 -4 -35 -13 -73z m-1627 28 c-7 -7 -26 7 -26 19 0 6 6 6 15 -2 9 -7 13 -15
11 -17z m2164 6 c0 -18 -2 -19 -15 -9 -8 7 -15 16 -15 21 0 5 7 9 15 9 9 0 15
-9 15 -21z m-425 1 c3 -5 -1 -10 -9 -10 -9 0 -16 5 -16 10 0 6 4 10 9 10 6 0
13 -4 16 -10z m407 -40 c21 0 -5 -18 -32 -22 -23 -3 -25 1 -28 37 l-3 40 25
-28 c14 -15 31 -27 38 -27z m-322 10 c0 -23 -22 -27 -39 -7 -13 16 -5 27 21
27 11 0 18 -7 18 -20z m-1370 -73 c91 -35 173 -67 183 -70 11 -4 17 -17 17
-37 0 -32 -8 -37 -29 -17 -11 9 -10 7 0 -12 8 -13 19 -33 26 -44 7 -12 10 -23
8 -26 -6 -5 -75 31 -75 40 0 4 -28 25 -62 47 -35 22 -94 63 -133 91 -38 28
-82 58 -97 68 -28 18 -39 39 -15 30 6 -3 86 -34 177 -70z m985 13 c18 0 10
-51 -14 -93 -18 -32 -35 -30 -39 5 -2 18 6 35 25 53 l28 27 -32 -6 c-36 -6
-42 4 -18 28 8 8 15 23 16 33 0 10 5 3 10 -14 5 -18 16 -33 24 -33z m264 17
c22 -58 -14 -124 -47 -84 -13 16 7 129 22 124 6 -2 17 -20 25 -40z m-1152 -1
c43 -19 88 -37 101 -41 24 -7 26 -13 13 -34 -8 -12 -12 -12 -25 2 -9 9 -25 19
-36 22 -11 3 -20 10 -20 14 0 4 -17 13 -37 20 -34 12 -95 51 -80 51 3 0 41
-15 84 -34z m1031 -76 c34 -40 37 -47 24 -68 -7 -10 -19 -7 -54 13 -35 20 -47
33 -57 65 -6 22 -16 40 -21 40 -6 0 -1 9 10 20 11 11 20 26 20 33 1 6 11 -6
23 -27 12 -22 37 -56 55 -76z m-358 85 c0 -3 -12 -17 -27 -31 -20 -19 -24 -27
-15 -36 19 -19 14 -28 -23 -44 -45 -18 -48 -18 -42 6 6 23 -9 36 -36 31 -14
-2 -18 3 -15 21 3 26 38 39 38 14 0 -9 5 -16 10 -16 6 0 10 4 10 8 0 4 10 8
21 9 12 1 28 11 36 22 13 19 43 29 43 16z m83 -42 c-6 -44 -5 -46 15 -41 19 5
21 3 16 -20 -4 -15 -8 -28 -9 -29 -1 -2 -16 15 -34 37 l-32 40 22 30 c13 16
24 30 26 30 1 0 0 -21 -4 -47z m517 10 c0 -12 -34 -53 -44 -53 -5 0 -15 24
-26 61 -8 26 -8 26 31 15 22 -5 39 -16 39 -23z m-1580 -71 c0 -8 -18 0 -45 19
-25 18 -45 36 -45 40 0 14 89 -45 90 -59z m2170 7 c0 -32 -5 -35 -25 -16 -7 8
-11 25 -8 40 4 22 8 25 19 16 8 -6 14 -24 14 -40z m-500 20 c0 -5 -4 -9 -10
-9 -5 0 -10 7 -10 16 0 8 5 12 10 9 6 -3 10 -10 10 -16z m689 -16 l22 -38 -26
28 c-14 15 -25 32 -25 38 0 17 8 9 29 -28z m-2548 0 c13 -17 13 -17 -6 -3 -11
8 -22 16 -24 17 -2 2 0 3 6 3 6 0 17 -8 24 -17z m1699 -7 c0 -3 -4 -8 -10 -11
-5 -3 -10 -1 -10 4 0 6 5 11 10 11 6 0 10 -2 10 -4z m988 -16 c23 -10 42 -26
42 -34 0 -14 -4 -14 -37 0 -60 26 -67 30 -71 42 -5 17 17 14 66 -8z m-880 -75
c12 -38 19 -71 17 -74 -3 -2 -13 3 -23 12 -10 10 -26 17 -34 17 -15 0 -38 47
-38 77 0 18 42 54 51 45 4 -4 16 -38 27 -77z m62 48 c13 -16 20 -41 20 -67 0
-72 -14 -71 -48 4 -18 39 -32 74 -32 78 0 19 41 8 60 -15z m-463 -37 c-11 -25
-27 -33 -40 -20 -3 3 4 21 15 41 16 27 23 32 29 20 5 -8 3 -26 -4 -41z m1007
39 c3 -9 0 -15 -9 -15 -8 0 -15 7 -15 15 0 8 4 15 9 15 5 0 11 -7 15 -15z
m379 -21 c76 -39 117 -75 117 -101 0 -14 11 -38 25 -55 14 -16 25 -35 25 -41
0 -13 -2 -11 -69 71 -55 66 -77 79 -67 37 8 -31 -1 -33 -15 -2 -20 44 -38 71
-53 79 -18 10 -21 28 -6 28 6 0 25 -7 43 -16z m-828 -4 c3 -5 1 -10 -4 -10 -6
0 -11 5 -11 10 0 6 2 10 4 10 3 0 8 -4 11 -10z m238 -36 c37 -15 67 -32 67
-36 0 -5 -8 -7 -17 -5 -10 3 -41 10 -69 17 -39 9 -54 17 -63 37 -9 20 -9 24 1
20 7 -2 43 -17 81 -33z m449 -19 c8 -14 2 -12 -21 9 -17 17 -31 34 -31 39 0
14 39 -23 52 -48z m-2282 20 c54 -46 348 -175 399 -175 23 0 219 -152 225
-174 3 -11 4 -22 2 -23 -5 -5 -68 35 -139 89 -34 26 -66 48 -71 48 -4 0 -25
13 -45 28 -61 48 -67 48 -26 -2 88 -104 343 -296 396 -296 36 0 39 23 4 46
-14 9 -23 20 -20 24 8 13 74 -33 75 -52 0 -9 11 -53 25 -97 21 -67 34 -87 80
-135 30 -30 55 -58 55 -61 0 -3 -11 -3 -25 1 -23 6 -25 4 -16 -17 5 -13 25
-57 45 -98 41 -84 42 -88 21 -71 -13 11 -15 8 -16 -16 -1 -18 -7 -5 -16 36
-30 131 -82 230 -123 230 -12 0 -23 6 -26 14 -6 15 -159 121 -191 133 -45 16
-166 106 -245 182 -49 46 -88 88 -88 92 0 4 21 2 47 -6 26 -8 49 -13 50 -11 8
7 -63 59 -133 97 -64 36 -72 43 -59 55 22 22 8 42 -48 66 -97 43 -191 94 -195
107 -5 16 34 6 58 -14z m1148 17 c10 -7 8 -12 -7 -26 -18 -16 -19 -16 -23 9
-5 25 6 32 30 17z m-318 -27 c0 -16 -6 -25 -15 -25 -18 0 -20 21 -3 38 17 17
18 16 18 -13z m260 -18 c0 -20 -25 1 -28 24 -2 23 -2 23 13 5 8 -11 15 -24 15
-29z m1107 1 c18 -18 33 -34 33 -37 0 -15 -59 -2 -79 18 -23 23 -46 19 -37 -6
7 -17 -13 -103 -24 -103 -4 0 -15 9 -24 19 -12 14 -14 21 -6 26 7 4 10 18 7
32 -4 20 3 30 36 54 22 16 45 29 51 29 5 0 25 -14 43 -32z m-526 -9 c24 -17
29 -28 29 -61 0 -36 -2 -39 -16 -27 -17 14 -54 82 -54 99 0 15 8 13 41 -11z
m-1216 -63 c18 -5 74 -86 60 -86 -8 0 -112 78 -118 87 -2 5 -7 21 -11 37 l-7
29 28 -30 c16 -17 37 -33 48 -37z m552 50 c4 -8 17 -16 28 -18 16 -3 19 -11
17 -37 -2 -28 0 -32 11 -22 21 17 37 -28 37 -102 -1 -57 -2 -60 -16 -42 -8 11
-19 37 -25 59 -6 22 -26 71 -45 108 -19 37 -30 68 -25 68 6 0 14 -6 18 -14z
m1371 -14 c6 -18 -15 -14 -22 4 -4 10 -1 14 6 12 6 -2 14 -10 16 -16z m-1178
-12 c11 -11 20 -27 20 -36 0 -12 -7 -10 -31 10 -17 14 -35 26 -40 26 -5 0 -9
5 -9 10 0 17 39 11 60 -10z m387 -34 c5 -52 -2 -56 -41 -23 l-27 23 26 12 c14
6 25 19 25 28 0 34 12 5 17 -40z m193 -43 c0 -57 -10 -65 -46 -39 -15 12 -17
17 -6 27 6 7 12 36 12 64 l0 50 20 -25 c14 -17 20 -41 20 -77z m107 73 c8 -8
-17 -46 -31 -46 -13 0 -46 41 -46 56 0 7 69 -2 77 -10z m-1582 -14 c-3 -3 -11
0 -18 7 -9 10 -8 11 6 5 10 -3 15 -9 12 -12z m2374 -74 l24 -43 -39 37 c-22
21 -48 52 -58 70 l-19 31 34 -26 c19 -14 45 -46 58 -69z m-3449 72 c0 -5 -4
-10 -9 -10 -6 0 -13 5 -16 10 -3 6 1 10 9 10 9 0 16 -4 16 -10z m2220 -5 c19
-10 30 -23 30 -36 0 -30 -27 -20 -51 19 -24 36 -21 38 21 17z m-1605 -17 c39
-19 58 -38 38 -38 -9 0 -93 50 -93 55 0 8 8 6 55 -17z m1338 -18 c39 -20 49
-31 58 -63 6 -21 7 -42 4 -46 -8 -7 -125 115 -125 130 0 6 3 9 8 7 4 -2 28
-14 55 -28z m205 -23 c-2 -18 -18 -29 -18 -12 0 66 1 70 11 52 6 -10 9 -28 7
-40z m632 -24 l-1 -28 -19 24 c-11 13 -20 37 -20 53 l0 31 20 -26 c11 -14 20
-38 20 -54z m231 67 c11 0 19 -7 19 -16 0 -12 -6 -15 -22 -10 -13 3 -29 6 -35
6 -7 0 -13 7 -13 16 0 11 5 14 16 10 9 -3 24 -6 35 -6z m-921 -10 c0 -5 -4
-10 -10 -10 -5 0 -10 5 -10 10 0 6 5 10 10 10 6 0 10 -4 10 -10z m829 -33 c0
-18 -4 -40 -8 -50 -6 -17 -8 -17 -20 -4 -10 12 -10 24 0 56 14 46 29 45 28 -2z
m316 -17 l6 -35 -28 33 c-27 32 -43 34 -43 6 0 -7 24 -41 54 -76 29 -35 57
-74 61 -88 l7 -25 -26 24 c-14 13 -52 58 -83 100 -65 86 -71 91 -90 84 -7 -3
-13 1 -13 10 0 13 6 13 34 5 25 -8 40 -7 62 4 35 18 49 8 59 -42z m-1079 -112
c29 -57 19 -62 -22 -12 -46 57 -54 63 -69 58 -9 -4 -15 0 -15 8 0 7 -9 30 -20
51 -11 20 -20 40 -20 43 0 20 125 -107 146 -148z m84 102 c0 -5 -4 -10 -10
-10 -5 0 -10 5 -10 10 0 6 5 10 10 10 6 0 10 -4 10 -10z m99 -80 c5 -36 8 -66
7 -67 0 0 -15 18 -33 41 -30 39 -32 45 -22 80 9 33 13 37 25 25 7 -8 18 -44
23 -79z m71 80 c0 -5 -4 -10 -9 -10 -6 0 -13 5 -16 10 -3 6 1 10 9 10 9 0 16
-4 16 -10z m638 -18 c18 -24 11 -56 -14 -60 -15 -2 -23 3 -27 20 -3 13 -9 34
-13 47 -6 21 -5 23 17 16 13 -4 30 -14 37 -23z m-2077 -57 c24 -6 138 -110
128 -119 -2 -2 -29 9 -59 24 -30 15 -93 46 -140 69 -120 59 -135 68 -138 84
-2 11 19 7 90 -19 51 -18 105 -36 119 -39z m1219 55 c11 -21 4 -25 -19 -11 -7
5 -10 14 -7 20 10 15 14 14 26 -9z m776 -15 c18 -44 18 -45 -6 -45 -17 0 -20
7 -20 40 0 49 7 50 26 5z m-1263 -44 c8 -9 24 -35 36 -59 l22 -43 -31 16 c-38
20 -75 96 -64 135 l7 25 8 -29 c4 -15 14 -36 22 -45z m1017 50 c0 -16 111
-131 126 -131 10 0 14 -12 14 -37 l0 -38 -20 30 -20 30 0 -28 c0 -17 -4 -26
-11 -22 -22 14 -121 176 -115 190 6 16 26 21 26 6z m593 -18 c27 -29 101 -162
93 -170 -8 -8 -123 142 -130 170 -3 15 -3 27 2 27 5 0 20 -12 35 -27z m227
-27 c0 -6 -9 0 -20 14 -26 33 -25 52 0 21 11 -13 20 -28 20 -35z m-380 -77 c0
-38 -2 -69 -5 -69 -2 0 -20 27 -39 59 -34 59 -34 59 -18 95 l17 36 23 -26 c18
-21 22 -37 22 -95z m321 72 c48 -47 52 -68 9 -46 -16 9 -30 22 -30 30 0 8 -10
23 -22 35 -13 12 -17 20 -9 20 7 0 31 -17 52 -39z m-2995 2 c11 -12 13 -18 5
-21 -13 -4 -41 16 -41 29 0 14 17 10 36 -8z m1512 -22 c33 -31 39 -45 23 -55
-14 -9 -71 43 -71 65 0 26 10 24 48 -10z m-86 7 c8 -21 -3 -88 -13 -82 -12 7
-12 94 0 94 5 0 11 -6 13 -12z m498 -75 c0 -18 -4 -33 -10 -33 -16 0 -30 37
-30 82 l0 43 20 -30 c11 -16 20 -45 20 -62z m477 72 c8 -22 -6 -33 -17 -15
-13 20 -12 30 0 30 6 0 13 -7 17 -15z m-237 -57 l0 -63 -30 54 c-17 30 -30 55
-30 57 0 2 15 6 53 13 4 0 7 -27 7 -61z m1054 -51 c27 -32 46 -61 42 -64 -3
-3 -8 2 -12 11 -3 9 -27 26 -53 37 -40 19 -43 22 -24 28 20 6 19 8 -18 35 -21
17 -39 36 -39 44 0 19 45 -19 104 -91z m-2690 -4 c159 -54 155 -52 241 -128
39 -34 88 -75 110 -91 22 -16 43 -34 47 -40 4 -6 21 -17 38 -24 16 -7 30 -19
30 -27 0 -29 -113 7 -297 93 -40 19 -79 34 -87 34 -7 0 -76 27 -152 60 -76 33
-139 60 -141 60 -2 0 -3 7 -3 15 0 21 9 19 97 -19 78 -35 242 -72 269 -62 42
16 -8 50 -151 102 -125 45 -235 94 -235 105 0 5 24 -1 53 -12 28 -12 110 -41
181 -66z m1975 80 c21 -5 23 -10 18 -45 -6 -47 -13 -56 -29 -40 -17 17 -45 15
-52 -3 -9 -23 -22 -18 -36 15 -11 27 -10 32 11 55 24 25 46 30 88 18z m439
-18 c-3 -3 -9 2 -12 12 -6 14 -5 15 5 6 7 -7 10 -15 7 -18z m-2768 -17 c39
-23 59 -48 38 -48 -22 0 -98 44 -98 57 0 19 15 16 60 -9z m2925 6 c9 -9 13
-19 10 -22 -3 -3 -15 4 -27 16 -13 12 -17 22 -11 22 6 0 19 -7 28 -16z m-875
-55 c0 -27 -2 -49 -4 -49 -2 0 -11 3 -20 6 -17 7 -22 34 -6 34 6 0 10 16 10
36 0 21 4 33 10 29 6 -3 10 -28 10 -56z m740 -177 c0 -2 -8 -1 -17 3 -28 11
-63 13 -63 4 0 -5 -4 -9 -10 -9 -5 0 -10 7 -10 15 0 8 -4 15 -9 15 -5 0 -12
11 -15 25 -4 14 -14 25 -22 25 -10 0 -14 6 -11 14 4 9 -9 28 -31 47 -22 20
-39 45 -43 64 -5 28 6 20 113 -84 65 -64 118 -117 118 -119z m-3092 170 c23
-12 42 -27 42 -33 0 -12 0 -13 -68 25 -28 16 -52 33 -52 37 0 10 18 3 78 -29z
m1302 -25 c0 -23 -4 -36 -10 -32 -5 3 -10 27 -10 53 0 34 3 43 10 32 5 -8 10
-32 10 -53z m326 -14 c-12 -13 -36 21 -36 51 l1 31 20 -38 c11 -22 18 -41 15
-44z m139 -5 c-13 -38 -35 -12 -35 41 0 15 3 31 7 34 10 11 34 -54 28 -75z
m1240 43 c65 -72 78 -92 67 -103 -11 -11 -112 103 -112 128 0 21 7 18 45 -25z
m-1660 -32 c-4 -21 -2 -46 4 -56 9 -16 10 -16 11 -1 0 32 20 29 37 -6 20 -42
14 -51 -23 -39 -46 15 -63 50 -57 111 5 44 8 50 20 40 10 -8 12 -22 8 -49z
m322 46 c1 -5 -2 -17 -7 -25 -9 -13 -11 -13 -20 0 -15 23 -12 42 7 38 9 -2 18
-7 20 -13z m178 -48 c12 -25 13 -32 1 -49 -13 -18 -15 -16 -31 34 -10 29 -20
60 -23 68 -9 25 36 -20 53 -53z m870 20 c-9 -41 -22 -54 -36 -40 -9 9 -8 16 5
28 9 9 16 25 16 36 0 12 4 17 11 14 6 -4 7 -20 4 -38z m489 17 c3 -8 2 -12 -4
-9 -6 3 -10 10 -10 16 0 14 7 11 14 -7z m-1755 -33 c28 -28 35 -58 21 -92 -15
-34 -25 -37 -40 -9 -6 11 -8 20 -5 20 3 0 1 9 -6 21 -10 19 -8 20 10 14 30 -9
26 11 -6 32 -29 18 -43 33 -43 45 0 12 47 -9 69 -31z m1686 -32 c38 -66 115
-246 115 -271 0 -9 4 -18 9 -20 4 -1 11 -13 15 -24 5 -17 2 -22 -17 -26 -39
-8 -43 -1 -39 70 3 58 1 70 -18 92 -50 57 -70 88 -65 102 3 8 -5 28 -19 45
-26 30 -48 112 -28 99 7 -4 27 -34 47 -67z m-270 41 c3 -5 1 -10 -4 -10 -6 0
-11 5 -11 10 0 6 2 10 4 10 3 0 8 -4 11 -10z m425 -15 c21 -25 1 -31 -22 -7
-18 18 -19 22 -6 22 8 0 21 -7 28 -15z m-870 -10 c17 -21 11 -24 -29 -13 -26
7 -31 12 -20 19 20 13 35 11 49 -6z m160 -42 c19 -27 46 -63 62 -81 18 -21 28
-44 28 -64 0 -32 -24 -68 -45 -68 -17 0 -47 82 -43 117 2 21 -3 30 -19 38 -13
5 -25 16 -28 24 -5 12 3 81 9 81 2 0 18 -21 36 -47z m301 17 c10 -6 19 -20 19
-30 0 -26 -36 -27 -50 -1 -20 39 -8 51 31 31z m475 -29 c-19 -19 -30 -9 -21
19 5 17 9 19 21 9 13 -11 13 -14 0 -28z m-1007 13 c6 -5 13 -164 7 -164 -10 0
-119 141 -113 147 4 3 20 0 37 -7 37 -15 49 -7 31 21 -11 19 -10 20 11 14 13
-4 25 -9 27 -11z m-2169 -15 c0 -5 -4 -9 -10 -9 -5 0 -10 7 -10 16 0 8 5 12
10 9 6 -3 10 -10 10 -16z m1623 7 c4 -10 1 -13 -9 -9 -7 3 -14 9 -14 14 0 14
17 10 23 -5z m1496 -121 c12 -40 29 -79 37 -85 16 -14 19 -40 4 -40 -5 0 -10
5 -10 12 0 6 -3 9 -6 6 -3 -3 6 -29 20 -57 25 -48 25 -60 0 -43 -9 6 -24 36
-26 52 0 3 -5 16 -10 30 -29 73 -88 246 -88 255 1 5 14 -5 29 -23 16 -19 38
-65 50 -107z m-629 104 c0 -6 -4 -7 -10 -4 -5 3 -10 11 -10 16 0 6 5 7 10 4 6
-3 10 -11 10 -16z m-212 -5 c15 -10 22 -25 22 -49 0 -56 -23 -36 -68 58 -6 13
23 8 46 -9z m382 -55 c0 -14 -17 -11 -24 6 -3 9 -12 12 -22 8 -14 -5 -16 -3
-11 11 4 10 7 23 7 29 1 14 50 -40 50 -54z m590 20 c0 -24 -21 -24 -51 0 l-24
20 25 9 c29 11 50 -1 50 -29z m-3108 9 c36 -11 70 -49 56 -63 -10 -10 -107 39
-111 57 -6 21 2 22 55 6z m243 -48 c44 -18 125 -45 180 -62 139 -41 199 -62
338 -117 17 -7 27 -18 27 -31 0 -23 -6 -24 -40 -7 -51 25 -261 78 -311 77 -18
-1 64 -43 116 -60 54 -17 71 -35 25 -25 -19 4 -43 7 -53 8 -10 1 -22 9 -27 17
-7 10 -10 11 -10 3 0 -21 -18 -16 -114 32 -50 24 -122 58 -161 74 -60 25 -70
34 -73 57 -3 24 -1 26 21 20 14 -3 33 -9 43 -13 31 -12 6 14 -31 31 -19 9 -35
22 -35 28 0 5 6 8 13 5 6 -3 48 -20 92 -37z m2353 28 c14 -14 16 -42 2 -33
-14 9 -32 45 -22 45 4 0 13 -5 20 -12z m-10 -44 c-4 -3 -12 5 -18 18 -12 22
-12 22 6 6 10 -10 15 -20 12 -24z m530 -67 c2 -20 0 -37 -5 -37 -19 1 -90 77
-97 103 l-6 27 52 -28 c48 -25 53 -31 56 -65z m88 82 c3 -6 0 -15 -7 -20 -12
-8 -12 -11 1 -19 8 -5 23 -10 34 -10 17 0 92 -68 83 -76 -2 -2 -21 1 -42 7
-53 15 -117 86 -101 111 12 21 22 23 32 7z m-1073 -112 c7 -44 -1 -46 -34 -9
-22 23 -25 34 -21 76 l4 48 22 -39 c13 -22 25 -56 29 -76z m636 92 c53 -16 53
-29 -1 -26 -31 2 -45 9 -57 27 -15 22 -15 24 0 18 10 -4 35 -12 58 -19z
m-3354 -9 c3 -5 1 -10 -4 -10 -6 0 -11 5 -11 10 0 6 2 10 4 10 3 0 8 -4 11
-10z m3150 0 c3 -5 1 -10 -4 -10 -6 0 -11 5 -11 10 0 6 2 10 4 10 3 0 8 -4 11
-10z m-365 -25 c0 -8 -4 -15 -10 -15 -5 0 -10 7 -10 15 0 8 5 15 10 15 6 0 10
-7 10 -15z m261 -5 c19 -11 28 -60 10 -60 -10 0 -41 45 -41 60 0 13 6 13 31 0z
m483 -30 c-6 -5 -24 21 -24 34 0 6 6 1 14 -10 8 -10 12 -21 10 -24z m-2921
-17 c27 -8 44 -52 41 -103 -3 -41 -3 -42 7 -17 6 15 15 27 20 27 5 0 28 -26
52 -58 23 -32 48 -64 55 -72 7 -8 26 -31 42 -50 l30 -35 -21 -17 c-12 -10 -27
-18 -33 -18 -20 0 -206 235 -257 325 l-32 56 39 -16 c22 -10 47 -20 57 -22z
m2807 -30 c0 -24 -1 -43 -3 -43 -5 0 -67 96 -67 103 0 3 16 0 35 -6 33 -10 35
-13 35 -54z m-180 10 c0 -24 -4 -43 -10 -43 -5 0 -30 10 -55 22 -32 16 -45 28
-45 43 0 19 6 21 55 21 l55 -1 0 -42z m-395 27 c3 -5 1 -10 -4 -10 -6 0 -11 5
-11 10 0 6 2 10 4 10 3 0 8 -4 11 -10z m945 -72 c0 -42 -5 -46 -32 -21 -12 11
-18 30 -18 61 l0 45 25 -23 c18 -17 25 -34 25 -62z m-490 22 c0 -27 -3 -50 -7
-50 -5 0 -8 23 -8 50 0 28 3 50 8 50 4 0 7 -22 7 -50z m258 -2 c11 -26 17 -50
12 -53 -4 -3 -15 17 -24 44 -26 81 -21 84 12 9z m-550 11 l24 -29 -25 0 c-20
0 -26 6 -29 30 -6 37 1 37 30 -1z m-475 -3 c10 -15 29 -25 56 -30 32 -5 44
-13 56 -36 18 -35 105 -102 156 -120 20 -7 43 -26 54 -44 34 -55 47 -79 49
-90 1 -6 8 -22 15 -34 7 -13 11 -25 9 -27 -2 -2 -30 11 -64 28 -142 75 -355
261 -359 314 -2 16 -6 36 -10 46 -11 26 20 21 38 -7z m-1045 -5 c3 -8 -1 -12
-9 -9 -7 2 -15 10 -17 17 -3 8 1 12 9 9 7 -2 15 -10 17 -17z m1177 -28 l19
-28 -34 26 c-19 14 -36 31 -38 38 -7 22 33 -5 53 -36z m131 39 c28 -18 46 -93
25 -106 -16 -10 -48 39 -50 77 -2 37 4 43 25 29z m-654 -19 c21 -19 85 -43 92
-35 3 3 3 17 0 31 -4 24 -4 25 8 6 20 -29 76 -85 148 -146 35 -29 73 -62 84
-72 12 -10 31 -20 43 -23 13 -4 23 -11 23 -16 0 -15 32 -37 53 -38 10 0 17 -8
17 -20 0 -15 9 -22 30 -27 17 -3 33 -10 37 -16 3 -6 1 -7 -5 -3 -8 4 -10 2 -6
-7 3 -8 13 -14 22 -13 9 0 16 -5 14 -12 -1 -6 4 -11 10 -10 7 2 12 -2 11 -9
-2 -7 4 -10 12 -7 9 4 15 0 15 -10 0 -14 12 -21 33 -17 4 1 18 -10 31 -24 13
-13 26 -22 29 -18 4 3 7 1 7 -5 0 -7 5 -12 10 -12 12 0 50 -37 50 -49 0 -5 6
-11 14 -14 17 -7 99 -108 92 -114 -2 -2 -35 15 -72 39 -94 59 -104 65 -141 83
-18 8 -43 26 -57 40 -14 14 -32 25 -41 25 -8 0 -15 4 -15 9 0 5 -16 16 -35 25
-19 9 -35 21 -35 26 0 6 -6 10 -13 10 -7 0 -30 16 -52 35 -22 19 -44 35 -49
35 -5 0 -14 6 -20 14 -6 8 -28 23 -49 34 -21 11 -60 40 -86 64 -26 23 -93 83
-149 133 -97 85 -111 103 -95 118 10 10 14 9 35 -10z m1244 -52 c-4 -6 -18
-11 -30 -11 -21 0 -23 5 -23 41 l0 41 30 -30 c16 -16 26 -35 23 -41z m-2515
-47 c40 -47 68 -88 65 -92 -7 -7 -175 165 -176 180 0 3 9 4 20 1 11 -3 52 -43
91 -89z m1532 82 c3 -8 63 -66 133 -130 93 -84 135 -116 153 -116 21 0 23 -2
11 -10 -12 -8 -11 -10 8 -10 13 0 33 -10 46 -22 49 -49 92 -80 119 -85 15 -3
27 -10 27 -15 0 -5 13 -7 30 -3 28 6 30 4 70 -75 23 -45 40 -84 37 -86 -3 -4
-117 64 -127 76 -3 3 -27 20 -55 38 -27 18 -59 38 -69 45 -10 6 -49 38 -86 70
-38 31 -73 57 -79 57 -6 0 -11 6 -11 13 0 7 -13 20 -29 30 -40 24 -231 209
-231 225 0 17 47 15 53 -2z m1528 4 c14 -8 19 -21 19 -48 -1 -35 -1 -36 -16
-17 -47 61 -48 89 -3 65z m-1997 -121 c11 -10 35 -30 51 -44 17 -14 59 -49 94
-78 35 -29 91 -75 125 -104 93 -79 208 -154 349 -228 70 -37 127 -69 127 -71
0 -12 -112 14 -230 53 -100 33 -141 52 -158 71 -81 94 -103 113 -95 82 3 -11
3 -20 1 -20 -15 0 -288 285 -288 300 0 11 -4 22 -10 25 -5 3 -10 -1 -10 -9 0
-10 -6 -13 -15 -10 -9 4 -15 19 -15 36 0 24 -3 28 -13 19 -19 -15 -65 35 -65
71 l1 28 64 -51 c36 -28 75 -59 87 -70z m1245 88 c55 -28 66 -37 78 -72 13
-39 9 -95 -7 -95 -12 0 -45 50 -57 85 -5 17 -14 30 -19 30 -11 0 -74 68 -74
79 0 10 12 6 79 -27z m-1108 -24 c31 -23 184 -149 239 -196 17 -15 77 -57 101
-72 10 -5 49 -31 87 -57 38 -27 74 -48 80 -48 6 0 13 -8 16 -17 7 -20 84 -75
159 -113 26 -14 47 -28 47 -32 0 -5 6 -8 13 -8 7 0 22 -8 33 -18 10 -10 35
-25 55 -35 20 -9 42 -23 49 -32 7 -8 17 -15 23 -15 18 0 87 -33 87 -42 0 -15
-50 -8 -92 12 -23 11 -49 20 -58 20 -8 0 -26 7 -38 16 -13 9 -79 44 -147 79
-68 34 -137 72 -154 84 -16 12 -45 27 -62 33 -39 14 -180 109 -231 156 -21 19
-48 42 -60 50 -13 9 -61 48 -107 86 -46 39 -105 88 -131 109 -34 27 -46 43
-43 56 8 30 86 20 134 -16z m1791 20 c10 -9 18 -29 18 -45 0 -51 -34 -27 -42
30 -5 36 -2 39 24 15z m-786 -30 c15 -19 19 -32 12 -40 -7 -9 -21 -3 -54 23
-51 38 -62 41 -71 18 -7 -18 209 -233 442 -439 83 -73 179 -164 216 -201 76
-80 184 -176 217 -193 48 -25 14 -19 -100 19 -142 47 -234 105 -345 221 -43
45 -99 103 -125 130 -27 26 -48 51 -48 55 0 9 -73 106 -108 142 -80 85 -197
215 -200 223 -2 5 -12 9 -23 9 -15 0 -19 7 -19 33 l0 33 92 -3 c87 -2 92 -3
114 -30z m-2315 10 c13 -16 12 -17 -3 -4 -10 7 -18 15 -18 17 0 8 8 3 21 -13z
m179 -3 c0 -5 -2 -10 -4 -10 -3 0 -8 5 -11 10 -3 6 -1 10 4 10 6 0 11 -4 11
-10z m595 -27 c16 -38 55 -193 55 -216 -1 -31 -30 32 -30 65 0 21 -4 38 -9 38
-9 0 -51 116 -51 140 0 23 21 7 35 -27z m-79 -31 c-9 -8 -14 0 -21 33 l-6 30
16 -28 c9 -16 14 -31 11 -35z m-436 18 c0 -18 -19 -11 -30 11 -11 19 -10 20 9
9 12 -6 21 -15 21 -20z m2450 10 c11 -20 -1 -82 -19 -102 -4 -5 -27 12 -51 37
-24 25 -52 45 -61 45 -10 0 -21 5 -24 10 -4 6 12 10 42 10 26 0 55 5 63 10 23
15 38 12 50 -10z m-2608 -75 c28 -31 38 -49 31 -56 -10 -10 -37 21 -117 131
-22 29 47 -30 86 -75z m2698 75 c0 -5 3 -9 8 -9 18 3 32 -2 32 -11 0 -20 -31
-22 -50 -5 -24 22 -26 35 -5 35 8 0 15 -4 15 -10z m-3313 -37 c-11 -10 -26 8
-20 23 5 15 7 14 15 -1 6 -9 7 -19 5 -22z m2603 -11 c-6 -2 -17 2 -26 9 -12
10 -12 14 -2 20 8 6 18 2 26 -9 8 -11 9 -18 2 -20z m-1585 -144 c0 -22 -23 -2
-86 73 -38 46 -69 88 -69 94 0 5 35 -28 78 -74 42 -47 77 -88 77 -93z m2385
162 c12 -8 11 -10 -7 -10 -13 0 -23 5 -23 10 0 13 11 13 30 0z m300 -5 c0 -8
-4 -15 -10 -15 -5 0 -10 7 -10 15 0 8 5 15 10 15 6 0 10 -7 10 -15z m-2670
-30 c61 -15 100 -37 100 -57 0 -5 -4 -7 -9 -4 -5 4 -12 -7 -16 -24 -8 -36 -29
-41 -22 -5 4 24 3 25 -14 9 -17 -15 -21 -13 -74 37 -54 51 -68 73 -42 64 6 -2
41 -11 77 -20z m1865 7 c0 -18 -20 -15 -23 4 -3 10 1 15 10 12 7 -3 13 -10 13
-16z m-1995 -97 c69 -81 72 -86 54 -100 -30 -22 -41 -18 -72 28 -73 108 -92
157 -62 157 4 0 40 -38 80 -85z m2399 59 c14 -18 21 -41 21 -70 0 -49 0 -50
-39 -29 -36 18 -40 29 -29 83 11 49 19 52 47 16z m162 -44 c7 -39 9 -73 5 -78
-9 -8 -46 36 -72 84 -22 41 -13 64 25 64 28 0 30 -2 42 -70z m-2227 44 c4 -9
4 -19 2 -21 -8 -8 -26 8 -26 23 0 19 16 18 24 -2z m1514 -93 c35 -34 90 -97
122 -140 98 -125 221 -263 290 -324 67 -58 193 -147 210 -147 21 0 237 -80
330 -122 57 -26 91 -25 130 3 33 25 55 17 48 -17 -9 -51 -130 -57 -191 -10
-40 31 -115 36 -141 10 -11 -10 -24 -13 -38 -8 -42 12 -242 147 -333 224 -49
42 -108 89 -130 105 -22 16 -66 55 -98 87 -32 31 -66 59 -75 62 -10 4 -28 27
-41 52 -31 66 -72 118 -81 103 -11 -17 -23 7 -15 31 9 28 -18 73 -81 134 -46
44 -53 55 -38 58 22 5 44 -12 132 -101z m397 41 c-2 -3 -11 1 -20 8 -12 10
-15 10 -15 -4 0 -36 33 -76 171 -206 78 -74 190 -187 247 -250 58 -63 120
-125 137 -138 35 -25 74 -87 62 -98 -3 -4 -31 12 -61 35 -30 22 -60 41 -66 41
-11 0 -100 79 -138 122 -8 9 -21 14 -29 11 -8 -3 -11 0 -8 8 9 23 -205 232
-256 251 -11 4 -22 14 -25 23 -4 8 -11 15 -18 15 -6 0 -21 15 -34 34 -13 19
-45 53 -73 75 -53 46 -60 61 -28 61 32 0 57 18 75 51 l16 31 34 -33 c18 -18
32 -35 29 -37z m641 -34 c54 -56 119 -117 144 -137 25 -19 52 -42 60 -51 8 -9
23 -19 33 -23 9 -3 17 -13 17 -22 0 -8 4 -15 8 -15 5 0 45 -35 89 -77 44 -43
84 -80 89 -83 5 -3 8 -8 7 -12 -4 -12 161 -149 174 -144 8 3 13 -2 13 -14 0
-11 5 -20 11 -20 5 0 7 5 4 10 -12 20 6 9 63 -36 77 -62 84 -70 40 -44 -51 30
-48 20 7 -19 25 -18 45 -27 45 -21 0 6 5 8 10 5 6 -4 8 -10 5 -15 -3 -5 14
-25 38 -44 45 -37 69 -48 47 -21 -20 24 -5 18 16 -7 12 -14 14 -19 4 -14 -8 5
1 -6 20 -23 19 -17 45 -34 57 -37 12 -3 25 -14 28 -25 4 -10 38 -40 78 -66 39
-27 79 -56 89 -65 10 -10 22 -18 28 -18 5 0 37 -25 71 -55 55 -49 75 -60 102
-56 4 0 7 -6 7 -14 0 -18 36 -38 53 -29 6 4 9 4 5 -1 -4 -4 5 -18 21 -29 121
-88 165 -127 128 -113 -15 5 -16 -20 -3 -41 11 -18 26 -15 19 5 -5 11 0 10 16
-6 17 -17 20 -26 12 -34 -9 -9 -6 -16 11 -29 23 -18 23 -18 -12 -6 -45 14 -48
17 -30 28 12 8 12 10 2 10 -8 0 -30 7 -50 16 -21 9 -52 22 -70 30 -18 8 -41
14 -50 14 -10 0 -27 7 -38 15 -18 14 -17 14 8 4 21 -9 31 -9 43 1 22 18 19 28
-19 74 -44 55 -102 93 -148 99 -41 5 -39 4 -171 111 -54 43 -99 77 -101 75 -5
-5 198 -172 239 -198 17 -10 43 -33 60 -50 l29 -32 -44 26 c-25 13 -52 28 -60
31 -8 4 -55 30 -104 58 -68 38 -123 83 -230 185 -78 74 -204 191 -281 262
-194 177 -305 289 -305 309 0 6 -5 10 -11 10 -12 0 -69 60 -69 73 0 4 -3 6 -8
3 -4 -2 -21 12 -37 31 -93 110 -184 179 -185 141 0 -8 -7 -5 -15 6 -8 11 -25
31 -37 45 -27 32 -108 129 -127 154 -12 15 -10 17 21 17 30 0 46 -12 134 -102z
m-2285 46 l31 -46 -27 -86 c-15 -48 -30 -90 -34 -94 -3 -4 -16 7 -28 25 -17
25 -22 50 -24 114 -2 45 0 85 4 89 4 4 7 -7 7 -25 0 -52 25 -32 28 22 2 26 5
47 7 47 2 0 18 -21 36 -46z m1464 18 c-7 -8 -35 7 -35 18 0 6 7 6 20 -2 10 -7
17 -14 15 -16z m-2669 -140 c-7 -7 -95 58 -106 78 -5 10 -10 27 -10 37 0 12
19 -2 60 -46 33 -36 58 -67 56 -69z m507 64 c36 -37 50 -57 41 -60 -15 -6
-103 81 -104 102 0 19 6 15 63 -42z m-425 -15 c14 -18 16 -51 2 -51 -5 0 -10
5 -10 12 0 6 -11 26 -25 44 -14 18 -25 36 -25 40 0 8 37 -22 58 -45z m2 -76
c0 -3 -8 -5 -17 -5 -16 1 -93 97 -93 116 0 4 25 -18 55 -49 30 -31 55 -59 55
-62z m369 63 l41 -42 -26 -14 c-23 -12 -27 -11 -40 5 -39 50 -51 93 -25 93 4
0 27 -19 50 -42z m-749 17 c0 -8 -2 -15 -4 -15 -2 0 -6 7 -10 15 -3 8 -1 15 4
15 6 0 10 -7 10 -15z m3444 -32 c9 4 16 2 16 -3 0 -14 -63 -13 -93 1 -23 10
-24 12 -8 29 15 16 17 16 43 -8 16 -14 33 -22 42 -19z m-2182 2 c12 -28 0
-125 -17 -128 -6 -1 -11 31 -13 76 -3 80 8 100 30 52z m2313 -4 c58 -84 295
-371 305 -371 4 0 101 -93 217 -208 194 -193 301 -285 413 -358 25 -16 49 -34
53 -41 4 -7 14 -13 22 -13 8 0 21 -11 30 -23 8 -13 28 -30 43 -36 45 -21 185
-115 175 -118 -9 -3 -97 43 -229 119 -33 19 -94 60 -135 92 -41 31 -91 64
-111 74 -21 9 -38 22 -38 29 0 6 -17 22 -37 34 -55 33 -246 222 -310 307 -58
77 -179 212 -244 272 -21 19 -76 76 -122 127 -71 76 -84 96 -80 117 7 34 23
33 48 -3z m-3115 9 c8 -5 11 -12 7 -16 -4 -4 -15 0 -24 9 -18 18 -8 23 17 7z
m218 -10 c7 -11 10 -20 6 -20 -13 0 -44 21 -44 30 0 17 25 11 38 -10z m2617
-15 c33 -17 64 -37 69 -45 5 -8 68 -76 141 -150 72 -74 144 -152 159 -172 16
-22 51 -49 82 -64 60 -29 72 -57 28 -68 -15 -4 -29 -5 -32 -1 -3 3 1 5 9 5 8
0 -2 10 -22 23 -21 12 -59 46 -85 75 -26 28 -55 52 -63 53 -11 0 -12 2 -3 6 7
3 -9 25 -44 59 -31 31 -62 53 -70 50 -8 -3 -11 0 -8 9 7 16 -19 51 -68 91 -7
6 -24 24 -39 40 -14 16 -50 51 -80 78 -29 27 -49 47 -44 45 6 -3 37 -18 70
-34z m-1700 -159 c-9 -207 -5 -196 -76 -196 -32 0 -59 3 -59 7 0 19 66 133 77
133 7 0 10 6 7 14 -3 8 0 41 6 73 21 104 31 134 42 127 7 -5 8 -54 3 -158z
m-1488 117 c-3 -3 -11 -2 -17 2 -8 5 -7 11 2 22 12 15 13 14 16 -1 2 -10 1
-20 -1 -23z m777 -3 c-14 -14 -39 14 -29 31 5 8 12 6 23 -5 11 -11 13 -19 6
-26z m2903 -55 c37 -45 42 -60 14 -46 -10 6 -31 31 -45 56 -15 25 -31 45 -36
45 -6 0 -10 8 -10 17 0 19 19 1 77 -72z m-2798 58 c-18 -24 -62 -62 -71 -63
-18 0 -6 21 15 29 12 5 31 18 41 30 23 25 34 28 15 4z m141 -12 c0 -32 15 -50
23 -29 3 7 5 2 6 -12 0 -14 -4 -33 -8 -43 -6 -15 -9 -16 -17 -5 -28 35 -40 74
-31 96 14 31 27 27 27 -7z m-460 3 c0 -2 -7 -4 -15 -4 -8 0 -15 4 -15 10 0 5
7 7 15 4 8 -4 15 -8 15 -10z m158 4 c17 -17 15 -23 -13 -36 -32 -15 -55 -15
-55 -2 0 6 7 10 16 10 13 0 14 3 5 14 -9 11 -9 15 1 19 22 9 33 8 46 -5z m522
-80 c-20 -86 -80 -208 -101 -208 -23 0 -24 -3 5 62 21 47 41 119 62 217 l5 24
21 -20 c19 -20 20 -25 8 -75z m2194 15 c38 -43 110 -122 161 -175 104 -108
114 -121 89 -111 -13 5 -16 3 -11 -10 14 -37 -20 -14 -68 44 -27 34 -102 116
-165 181 -137 144 -140 148 -103 148 22 0 42 -16 97 -77z m-2974 47 c0 -21
-34 -40 -73 -40 -19 0 -19 2 8 30 34 35 65 40 65 10z m-352 -29 c2 -11 0 -21
-5 -21 -16 1 -43 28 -43 43 0 25 44 5 48 -22z m532 5 c0 -31 -28 -41 -52 -19
-18 16 -18 18 -2 30 29 21 54 16 54 -11z m-412 -51 c2 -2 -5 -8 -16 -14 -28
-15 -52 -3 -52 25 0 24 0 24 33 8 17 -9 34 -18 35 -19z m330 23 c17 -17 15
-25 -8 -31 -16 -4 -20 0 -20 19 0 26 10 30 28 12z m222 -2 c0 -14 -71 -66 -90
-66 -27 0 -5 32 38 54 57 30 52 29 52 12z m220 -25 c34 -45 34 -48 -24 -124
-24 -33 -33 -37 -55 -32 -14 4 -27 8 -29 9 -1 2 9 27 22 57 14 30 28 71 31 92
4 20 11 37 15 37 5 0 22 -18 40 -39z m-550 19 c0 -5 -7 -10 -15 -10 -8 0 -15
5 -15 10 0 6 7 10 15 10 8 0 15 -4 15 -10z m883 -8 c16 -17 14 -24 -18 -101
-41 -100 -50 -111 -86 -111 -34 0 -36 12 -10 48 26 38 67 122 75 155 8 32 17
34 39 9z m269 1 c15 -14 18 -32 18 -120 l0 -103 -31 0 c-24 0 -30 3 -25 16 3
9 6 63 6 120 0 57 3 104 7 104 3 0 15 -7 25 -17z m-487 -85 c-23 -95 -30 -108
-63 -108 -54 0 -58 15 -16 56 21 22 42 38 47 36 5 -1 5 2 2 8 -4 6 -2 23 3 38
6 15 13 36 16 46 5 14 10 16 18 8 8 -8 6 -30 -7 -84z m2460 -136 c3 -8 -17 9
-44 39 -28 30 -61 65 -73 79 -64 68 -41 54 30 -18 44 -46 83 -91 87 -100z
m-2925 147 c0 -5 -4 -9 -10 -9 -5 0 -10 7 -10 16 0 8 5 12 10 9 6 -3 10 -10
10 -16z m230 11 c0 -23 -30 -80 -42 -80 -25 0 -59 13 -56 21 4 9 80 67 91 68
4 1 7 -4 7 -9z m-493 -16 c29 -12 43 -23 43 -35 0 -23 -3 -23 -57 -3 -29 12
-43 23 -43 35 0 23 3 23 57 3z m1348 -51 c3 -27 9 -58 12 -70 4 -17 1 -23 -11
-23 -11 0 -16 9 -16 29 0 15 -3 50 -7 76 -4 32 -3 46 4 42 6 -4 14 -28 18 -54z
m1433 45 c7 -7 12 -16 12 -20 0 -15 -15 -8 -28 12 -13 22 -3 27 16 8z m-357
-116 c24 -54 24 -62 0 -62 -22 0 -71 44 -71 64 0 8 -19 26 -41 39 l-41 25 31
7 c17 4 36 16 42 27 11 20 13 20 36 -18 13 -21 33 -58 44 -82z m599 48 c18
-16 30 -30 26 -30 -5 0 -3 -7 4 -15 7 -8 10 -15 7 -15 -8 0 -77 74 -77 83 0
11 4 9 40 -23z m-2870 10 c0 -5 -4 -10 -10 -10 -5 0 -10 5 -10 10 0 6 5 10 10
10 6 0 10 -4 10 -10z m2700 -21 c0 -6 -4 -7 -10 -4 -5 3 -10 11 -10 16 0 6 5
7 10 4 6 -3 10 -11 10 -16z m-1170 1 c0 -5 -2 -10 -4 -10 -3 0 -8 5 -11 10 -3
6 -1 10 4 10 6 0 11 -4 11 -10z m-210 -35 c0 -20 -26 -19 -34 1 -11 28 -7 35
14 24 11 -6 20 -17 20 -25z m1411 -2 c13 -16 12 -17 -3 -4 -17 13 -22 21 -14
21 2 0 10 -8 17 -17z m-2479 -22 c4 -3 3 -12 -1 -20 -12 -18 -48 -5 -54 19 -4
17 -1 19 21 14 15 -4 30 -9 34 -13z m141 -26 c41 -9 103 -19 138 -23 55 -6 64
-10 64 -27 0 -17 -6 -20 -40 -18 -44 3 -255 42 -268 50 -9 5 11 33 23 33 4 0
42 -7 83 -15z m958 -112 c19 -104 24 -190 11 -210 -7 -12 -41 -12 -284 -4 -33
1 -38 5 -55 46 -10 25 -20 45 -23 45 -4 0 -12 -16 -19 -35 -11 -30 -17 -35
-45 -35 -32 0 -34 2 -40 42 -4 23 -11 45 -15 48 -5 3 -11 15 -15 28 -7 21 -5
22 51 22 46 1 54 3 40 11 -10 6 -36 9 -58 6 -21 -2 -39 -1 -39 2 0 13 -67 31
-113 31 -35 0 -47 4 -47 15 0 8 -6 14 -12 13 -7 -2 -14 7 -16 18 -4 27 14 30
141 24 l99 -5 -25 -37 c-14 -20 -23 -39 -20 -42 9 -9 102 43 115 64 9 14 24
20 50 20 44 0 45 -4 22 -95 -23 -91 -23 -90 15 -88 50 2 72 31 90 120 14 67
19 78 39 81 21 3 22 1 22 -87 0 -49 -5 -113 -11 -141 -13 -60 -4 -79 31 -60
40 22 63 94 66 210 2 58 3 107 3 110 1 2 6 -1 13 -8 6 -6 20 -56 29 -109z
m619 56 c0 -4 -4 -10 -9 -13 -4 -3 3 -61 16 -128 32 -165 44 -245 52 -368 2
-30 33 32 53 107 21 74 21 77 3 203 -9 71 -15 134 -12 142 3 7 6 4 6 -8 1 -12
12 -64 25 -116 14 -52 25 -122 25 -159 0 -35 9 -98 19 -139 11 -41 23 -102 27
-135 9 -78 13 -83 36 -46 21 35 31 38 49 16 16 -20 8 -45 -157 -460 -96 -241
-141 -331 -156 -316 -8 8 -6 15 5 28 46 52 114 231 137 363 15 80 16 217 3
233 -6 7 -13 29 -17 50 -8 39 -21 49 -27 20 -3 -10 -5 6 -6 36 -3 84 -8 71
-16 -36 -4 -54 -11 -116 -16 -138 -5 -27 -6 -9 -3 56 5 92 -7 169 -26 169 -5
0 -19 -52 -31 -115 -13 -64 -27 -118 -33 -122 -6 -3 -8 9 -5 33 3 22 1 50 -4
63 -5 13 -9 68 -9 122 0 54 -4 101 -10 104 -5 4 -6 17 -3 31 5 19 3 23 -10 18
-12 -4 -16 0 -16 15 0 12 4 21 10 21 13 0 45 69 61 130 10 40 11 74 2 163 -11
105 -13 113 -41 137 -19 16 -31 38 -35 61 l-5 37 59 -26 c32 -14 59 -29 59
-33z m-1972 22 c3 -8 -1 -12 -9 -9 -7 2 -15 10 -17 17 -3 8 1 12 9 9 7 -2 15
-10 17 -17z m2984 2 c30 -36 30 -47 0 -19 -18 17 -32 31 -32 33 0 9 19 1 32
-14z m-732 -23 c24 -1 25 -1 5 -16 -34 -26 -59 -26 -126 -1 l-64 24 80 -3 c44
-2 91 -3 105 -4z m945 -1 c11 -17 -1 -21 -15 -4 -8 9 -8 15 -2 15 6 0 14 -5
17 -11z m-3088 -21 c-3 -8 -6 -5 -6 6 -1 11 2 17 5 13 3 -3 4 -12 1 -19z m293
-39 c172 -27 161 -24 151 -51 -7 -19 -16 -23 -47 -22 -51 1 -142 19 -226 45
-55 17 -68 24 -68 41 0 17 5 19 28 15 15 -3 88 -16 162 -28z m2862 -26 c69
-95 219 -243 325 -321 215 -160 272 -199 373 -258 122 -72 288 -162 345 -189
22 -10 74 -38 115 -63 113 -67 180 -98 235 -110 28 -7 96 -22 152 -34 57 -13
103 -26 103 -30 0 -26 -120 -12 -230 27 -23 8 -59 17 -79 20 -20 2 -54 11 -77
18 -48 18 -340 160 -404 197 -25 15 -83 46 -130 70 -127 65 -220 131 -318 224
-134 128 -267 244 -375 325 -53 41 -97 77 -97 82 0 4 -7 15 -16 23 -14 15 -14
17 0 32 9 8 16 22 16 30 0 27 20 13 62 -43z m-362 37 c0 -5 -4 -10 -9 -10 -6
0 -13 5 -16 10 -3 6 1 10 9 10 9 0 16 -4 16 -10z m175 -8 c-3 -3 -11 0 -18 7
-9 10 -8 11 6 5 10 -3 15 -9 12 -12z m83 -66 l4 -28 -23 21 c-13 12 -29 21
-36 21 -7 0 -13 5 -13 11 0 6 14 9 33 7 27 -3 33 -7 35 -32z m-2351 15 c14 -1
-41 -124 -58 -130 -16 -5 -29 19 -29 52 0 16 -4 26 -9 23 -6 -4 -8 48 -2 61 1
2 20 1 44 -1 23 -2 47 -4 54 -5z m2199 -19 c-4 -3 -14 2 -24 12 -16 18 -16 18
6 6 13 -6 21 -14 18 -18z m-2160 2 c-3 -9 -6 -24 -6 -35 0 -10 -4 -19 -10 -19
-11 0 -14 53 -3 63 12 13 25 7 19 -9z m698 -61 c-2 -27 -8 -88 -12 -136 -8
-86 -7 -87 10 -65 10 13 18 19 18 13 1 -13 28 36 57 105 l24 55 -7 -85 c-3
-47 -9 -104 -14 -127 -7 -43 3 -61 13 -22 3 12 10 18 16 14 6 -3 11 0 11 7 0
8 14 40 31 73 l30 60 -5 -92 c-5 -96 -24 -162 -27 -93 -1 31 -3 28 -21 -30
-70 -233 -95 -309 -139 -419 -54 -137 -72 -171 -94 -171 -20 0 -19 13 6 63 12
23 25 53 29 67 5 14 22 63 40 110 17 47 32 96 34 110 2 14 11 53 19 88 9 36
14 86 11 115 -4 45 -6 65 -14 122 0 6 -20 -44 -44 -110 -43 -122 -112 -282
-129 -300 -5 -6 -6 11 -2 45 13 93 13 133 1 198 l-11 63 -28 -83 c-15 -47 -34
-93 -43 -104 -15 -19 -15 -19 -10 1 27 103 24 184 -6 253 l-15 34 -12 -49
c-41 -154 -110 -333 -129 -333 -10 0 -12 7 -8 23 4 12 14 58 22 101 15 77 15
108 -3 191 -9 37 -10 38 -17 15 -18 -59 -89 -230 -94 -226 -2 3 6 37 18 76 23
71 24 118 5 255 -9 61 1 68 97 70 45 1 107 6 136 10 49 7 52 6 52 -14 0 -19 5
-22 33 -19 25 2 36 10 49 38 10 19 18 27 18 18 0 -28 45 24 72 82 13 27 26 50
30 50 4 0 5 -21 2 -47z m-1027 31 c-3 -3 -12 -4 -19 -1 -8 3 -5 6 6 6 11 1 17
-2 13 -5z m-537 -31 c0 -22 -2 -25 -10 -13 -13 20 -13 40 0 40 6 0 10 -12 10
-27z m4111 0 l24 -28 -30 25 c-16 14 -32 26 -34 28 -2 1 0 2 6 2 5 0 20 -12
34 -27z m-300 -111 c41 -37 133 -119 204 -182 158 -138 153 -134 136 -128 -25
7 -332 276 -446 391 l-30 30 31 -21 c18 -12 65 -52 105 -90z m-3687 92 c12 -4
16 -20 16 -56 0 -47 -1 -50 -22 -44 -13 3 -26 6 -30 6 -11 0 -10 32 3 69 12
34 11 33 33 25z m389 -1 c-7 -2 -21 -2 -30 0 -10 3 -4 5 12 5 17 0 24 -2 18
-5z m3492 -13 c3 -5 2 -10 -4 -10 -5 0 -13 5 -16 10 -3 6 -2 10 4 10 5 0 13
-4 16 -10z m-3647 -46 c48 -9 93 -18 100 -20 10 -3 8 -13 -9 -41 -39 -67 -42
-68 -101 -54 -106 25 -108 27 -108 88 0 46 3 54 15 49 9 -3 55 -13 103 -22z
m1511 -94 c1 -41 -5 -109 -13 -150 -43 -220 -164 -590 -193 -590 -17 0 -18 -4
15 76 40 98 72 246 71 329 0 39 0 89 0 113 1 32 -2 41 -11 36 -7 -5 4 12 23
36 56 69 78 121 86 202 8 90 21 61 22 -52z m1484 53 c9 -8 -25 -33 -36 -26 -4
3 -3 11 4 19 13 15 22 18 32 7z m-2408 -23 c-4 -12 -18 -40 -31 -63 l-25 -42
7 50 c7 54 18 75 41 75 10 0 12 -6 8 -20z m119 -7 c-10 -41 -24 -76 -29 -72
-7 8 17 99 26 99 5 0 6 -12 3 -27z m1413 -16 c1 -7 13 -43 27 -82 32 -94 42
-140 26 -130 -6 4 -16 19 -22 33 -11 30 -48 177 -48 194 0 14 13 2 17 -15z
m-2128 -113 c2 -2 -6 -13 -19 -24 -26 -22 -70 -27 -70 -7 0 6 -3 22 -6 33 -6
21 -4 22 43 12 26 -6 50 -12 52 -14z m2011 -68 c21 -24 22 -25 6 -79 -16 -56
-61 -162 -50 -117 4 13 8 38 10 55 1 16 3 30 4 30 1 0 3 21 4 47 1 26 -2 42
-6 35 -8 -13 -10 -12 -26 26 -7 15 -12 45 -12 65 l1 37 23 -38 c13 -21 33 -48
46 -61z m96 -47 c22 -23 36 -30 57 -26 34 5 39 -6 58 -115 11 -68 11 -86 -6
-160 -10 -46 -22 -87 -27 -92 -4 -6 -8 23 -9 65 0 82 -11 125 -22 95 -10 -26
-27 -9 -28 27 0 38 -32 120 -48 125 -7 2 -11 -9 -11 -30 0 -74 -45 -292 -59
-284 -4 3 -8 -14 -9 -37 -2 -46 -65 -254 -87 -283 -9 -13 -8 3 6 51 28 101 80
331 77 343 -1 4 3 25 9 47 6 22 14 63 17 90 3 28 10 67 16 87 8 26 8 44 0 57
-10 21 -4 51 14 63 17 12 20 10 52 -23z m2019 11 c3 -5 2 -10 -4 -10 -5 0 -13
5 -16 10 -3 6 -2 10 4 10 5 0 13 -4 16 -10z m-1700 -131 c13 -75 14 -93 2
-140 -16 -60 -29 -68 -38 -23 -5 26 -7 27 -14 9 -43 -107 -58 -141 -66 -149
-5 -6 -6 53 -2 139 4 103 3 146 -4 142 -15 -9 -23 66 -9 75 17 12 22 10 34
-14 8 -18 9 -11 5 34 l-5 57 41 -22 c39 -21 40 -23 56 -108z m-165 47 c0 -17
-4 -37 -9 -44 -10 -17 -18 12 -20 73 -1 37 0 39 14 21 8 -11 15 -34 15 -50z
m2600 -63 c305 -181 381 -230 498 -319 34 -26 43 -69 20 -92 -14 -14 -72 -17
-64 -3 3 5 -1 12 -10 15 -8 3 -12 2 -9 -4 13 -21 -18 -8 -78 31 -60 40 -287
218 -287 226 0 8 57 -33 115 -82 103 -87 205 -155 205 -136 0 6 -4 11 -10 11
-11 0 -106 65 -147 100 -16 14 -44 37 -63 51 -19 15 -49 40 -67 56 -18 16 -54
47 -80 68 -42 34 -140 145 -117 133 5 -3 47 -27 94 -55z m-505 -17 c17 -14 26
-25 20 -25 -5 0 -28 16 -50 36 -43 39 -19 30 30 -11z m-1877 6 c-2 -11 2 -25
9 -33 7 -9 9 -20 3 -29 -12 -20 -21 -8 -30 40 -6 31 -4 40 7 40 8 0 13 -8 11
-18z m1446 -34 c-6 -9 -53 22 -54 34 0 4 13 0 29 -10 16 -9 27 -20 25 -24z
m196 5 c38 -21 66 -39 62 -41 -13 -4 -117 45 -131 62 -20 23 -9 20 69 -21z
m424 -26 c91 -63 122 -96 72 -77 -50 18 -198 141 -170 140 5 -1 49 -29 98 -63z
m112 -5 c-8 -7 -25 8 -37 31 -11 21 -10 21 15 -2 14 -14 24 -26 22 -29z m99
38 c3 -6 -1 -7 -9 -4 -18 7 -21 14 -7 14 6 0 13 -4 16 -10z m-575 -10 c0 -5
-4 -10 -10 -10 -5 0 -10 5 -10 10 0 6 5 10 10 10 6 0 10 -4 10 -10z m31 -88
c-14 -5 -71 26 -71 39 0 6 18 0 41 -13 22 -12 36 -24 30 -26z m669 -72 c41
-33 121 -97 177 -141 56 -44 112 -93 123 -110 l21 -29 -28 0 c-38 0 -174 71
-293 152 l-95 65 -6 54 c-3 30 -11 64 -17 76 -25 47 -16 41 118 -67z m-555 32
c-3 -3 -11 0 -18 7 -9 10 -8 11 6 5 10 -3 15 -9 12 -12z m-3545 3 c0 -13 -45
-95 -52 -95 -11 0 -11 1 12 54 12 25 25 46 30 46 6 0 10 -2 10 -5z m3842 -13
c18 -25 66 -36 86 -20 13 12 14 9 8 -25 -10 -52 -27 -87 -42 -87 -15 0 -54 52
-54 73 0 9 -4 18 -9 21 -11 7 -20 56 -10 56 4 0 14 -8 21 -18z m-1944 -21 c3
-8 -1 -12 -9 -9 -7 2 -15 10 -17 17 -3 8 1 12 9 9 7 -2 15 -10 17 -17z m1752
-41 c49 -16 98 -30 108 -30 16 0 39 -27 30 -35 -2 -2 -25 4 -53 11 -27 8 -83
20 -123 28 -39 8 -80 20 -90 26 -15 10 -15 11 3 6 71 -16 76 -16 70 -6 -3 5
-12 10 -20 10 -8 0 -17 5 -20 10 -9 14 -3 13 95 -20z m-1911 -14 c9 -11 8 -26
-4 -65 -19 -55 -52 -108 -40 -61 4 14 9 51 12 83 6 59 12 67 32 43z m2334
-119 c45 -29 109 -68 142 -87 33 -18 96 -57 140 -85 44 -28 127 -78 185 -110
90 -49 396 -240 468 -291 32 -22 50 -63 33 -73 -9 -6 -7 -10 8 -14 12 -3 21
-10 21 -17 0 -14 -25 -7 -94 26 -57 28 -62 29 -50 11 5 -7 2 -6 -6 3 -8 9 -51
36 -95 60 -124 68 -316 200 -309 212 9 14 -17 29 -39 22 -10 -3 -16 -1 -15 4
2 6 0 9 -4 8 -4 0 -14 9 -22 20 -9 12 -32 29 -53 39 -21 10 -56 31 -78 47 -22
16 -96 66 -165 111 -147 97 -170 116 -170 138 0 14 8 29 17 29 2 0 40 -24 86
-53z m-1948 13 c0 -7 -6 -15 -12 -17 -8 -3 -13 4 -13 17 0 13 5 20 13 18 6 -3
12 -11 12 -18z m2535 -37 c-1 -10 -7 -29 -15 -43 -19 -33 -19 -46 0 -30 8 7
15 19 15 26 0 19 19 17 27 -3 10 -25 -32 -53 -79 -53 -39 0 -118 35 -118 52 0
4 -4 8 -9 8 -6 0 -22 11 -37 25 -15 14 -22 25 -16 25 6 0 13 -4 17 -9 3 -5 29
-19 58 -29 66 -25 104 -19 126 19 18 33 31 37 31 12z m-702 -41 c2 -7 -2 -10
-12 -6 -9 3 -16 11 -16 16 0 13 23 5 28 -10z m-4390 -118 c38 -16 63 -34 71
-50 6 -13 7 -24 3 -23 -16 1 -136 75 -140 87 -5 16 -2 16 66 -14z m377 -88
c37 -22 80 -61 112 -100 45 -57 52 -72 62 -134 6 -39 11 -73 11 -76 0 -14 -31
-4 -57 18 -16 13 -81 49 -146 79 -101 48 -119 60 -131 89 -17 39 -8 45 34 23
18 -9 34 -15 36 -13 2 2 -21 17 -51 32 -30 15 -60 37 -67 49 -6 12 -17 28 -25
35 -22 22 -9 25 32 7 58 -24 51 -13 -14 23 -100 55 -93 62 31 32 77 -19 132
-40 173 -64z m4505 74 c0 -5 -2 -10 -4 -10 -3 0 -8 5 -11 10 -3 6 -1 10 4 10
6 0 11 -4 11 -10z m285 -31 c191 -44 376 -118 464 -187 18 -15 63 -51 100 -80
36 -29 89 -69 118 -88 58 -41 83 -72 83 -107 0 -29 -18 -47 -47 -47 -21 0 -22
3 -17 43 5 37 2 45 -23 69 -38 37 -89 78 -98 78 -7 0 -37 12 -95 38 -14 7 -36
20 -50 29 -13 10 -21 13 -17 6 4 -7 35 -31 67 -54 44 -31 60 -48 60 -65 0 -24
0 -24 -35 -7 -19 9 -35 21 -35 25 0 5 -5 6 -10 3 -6 -4 -16 -2 -23 3 -15 13
-68 42 -186 104 -107 56 -142 77 -156 93 -5 6 -63 46 -127 88 -65 42 -118 78
-118 80 0 6 43 -1 145 -24z m-250 11 c3 -6 -1 -7 -9 -4 -18 7 -21 14 -7 14 6
0 13 -4 16 -10z m-3779 -65 c-3 -8 -15 -15 -27 -15 l-22 0 24 26 c23 24 37 19
25 -11z m-1074 -5 c52 -23 99 -72 84 -87 -11 -11 -125 52 -140 79 -9 14 -16
29 -16 33 0 8 -2 8 72 -25z m573 -80 c3 -5 2 -10 -4 -10 -5 0 -13 5 -16 10 -3
6 -2 10 4 10 5 0 13 -4 16 -10z m-409 -131 c20 -31 44 -39 44 -14 0 11 14 8
63 -14 34 -15 96 -40 137 -56 41 -15 78 -30 81 -34 7 -6 -6 -123 -17 -151 -4
-13 -8 -12 -20 4 -7 11 -17 16 -21 13 -3 -4 -12 -44 -19 -88 -13 -80 -26 -109
-48 -109 -6 0 -63 31 -126 69 l-115 68 -17 58 c-10 32 -17 60 -15 61 2 2 47
-26 100 -61 53 -36 100 -65 104 -65 10 0 -158 156 -214 198 -41 32 -48 52 -18
52 8 0 55 -22 106 -50 51 -27 96 -50 102 -50 5 0 -19 22 -54 48 -83 63 -138
114 -113 107 11 -4 -2 5 -28 19 -44 24 -68 51 -68 75 0 19 136 -51 156 -80z
m491 -14 c21 -13 52 -38 68 -53 17 -16 47 -39 68 -51 20 -13 37 -26 37 -30 0
-4 19 -18 43 -30 135 -71 200 -119 216 -161 5 -14 12 -46 16 -71 3 -26 26 -86
51 -134 34 -66 44 -95 39 -115 -4 -17 -1 -31 5 -35 15 -9 4 -74 -21 -133 -11
-24 -19 -52 -19 -62 0 -11 -14 -63 -30 -117 -17 -54 -45 -143 -62 -198 -16
-55 -39 -122 -49 -150 -10 -27 -30 -81 -44 -120 -111 -298 -229 -462 -395
-549 -39 -21 -73 -36 -74 -34 -2 1 -11 17 -19 35 -21 40 -116 121 -157 133
-20 6 -39 6 -50 0 -13 -7 -20 -4 -28 15 -6 13 -23 32 -37 41 -24 16 -36 16
-138 5 -139 -16 -247 -12 -257 9 -33 67 -32 84 11 176 23 49 49 100 59 114 9
14 22 40 29 59 6 19 18 42 25 50 38 42 195 396 220 496 17 65 60 150 102 199
18 21 36 52 40 70 6 31 40 76 56 76 22 0 73 50 102 100 52 89 84 178 97 275 7
51 19 98 28 109 10 11 15 34 14 62 -1 24 2 44 7 44 5 0 26 -11 47 -25z m4982
-185 c11 0 29 -9 42 -21 l24 -20 -80 4 c-87 5 -115 13 -115 31 0 7 -13 25 -30
41 -52 50 -33 53 56 8 47 -24 93 -43 103 -43z m114 35 c15 -21 15 -25 3 -25
-18 0 -46 27 -46 45 0 20 21 9 43 -20z m-355 -22 c19 -8 32 -16 30 -19 -7 -6
-69 16 -93 33 -19 14 -19 15 4 8 13 -4 40 -14 59 -22z m-5402 -111 c-9 -8 -26
10 -26 26 1 15 2 15 15 -2 8 -11 13 -21 11 -24z m1126 6 c-7 -7 -12 -8 -12 -2
0 6 3 14 7 17 3 4 9 5 12 2 2 -3 -1 -11 -7 -17z m-1018 -64 c5 -14 4 -15 -9
-4 -17 14 -19 20 -6 20 5 0 12 -7 15 -16z m-61 -15 c15 -11 32 -19 39 -17 7 1
24 -5 38 -14 14 -9 36 -19 50 -23 20 -5 18 -2 -12 19 -24 17 -35 32 -32 41 4
8 9 15 12 15 5 0 200 -107 210 -116 9 -6 -12 -48 -39 -79 -16 -18 -39 -54 -50
-80 -16 -37 -66 -113 -94 -143 -4 -4 -59 33 -92 62 -20 17 -32 56 -18 56 2 0
25 -14 50 -32 63 -44 67 -29 5 17 -36 27 -48 41 -41 48 6 6 11 20 11 30 0 14
4 17 18 12 9 -4 26 -9 37 -12 l20 -4 -20 16 c-11 9 -27 22 -36 28 -17 13 -63
96 -57 103 5 5 78 -32 92 -46 5 -5 16 -10 23 -10 13 0 -57 61 -124 108 -32 22
-43 42 -24 42 4 0 20 -9 34 -21z m1374 -56 c17 -14 17 -14 -6 -9 -13 2 -34 1
-47 -4 -29 -11 -29 -7 -7 31 16 26 19 28 30 14 6 -9 20 -23 30 -32z m182 -110
c1 -23 6 -33 16 -33 11 0 14 -7 9 -26 -5 -20 -2 -26 15 -31 34 -9 26 -44 -20
-88 -22 -22 -55 -60 -72 -84 -17 -25 -33 -39 -35 -33 -2 7 2 20 10 29 12 14
10 16 -15 11 -24 -5 -28 -3 -25 16 3 22 48 37 48 16 0 -6 5 -8 10 -5 6 3 10
13 10 22 0 12 -7 14 -35 9 -33 -6 -35 -5 -35 19 0 14 -5 25 -10 25 -11 0 -3
70 9 80 3 3 12 17 20 33 9 16 23 27 36 27 29 0 45 19 46 55 0 26 2 27 9 10 5
-11 9 -35 9 -52z m-169 34 c0 -8 9 -18 21 -23 18 -8 12 -13 -45 -35 -36 -15
-66 -23 -66 -19 0 10 73 90 83 90 4 0 7 -6 7 -13z m-27 -220 c3 -50 1 -60 -16
-69 -19 -10 -19 -8 -12 58 11 109 20 112 28 11z m-1273 -42 c35 -18 35 -17 13
-58 -17 -32 -17 -32 -21 -7 -2 14 -9 30 -16 35 -17 14 -28 45 -15 45 5 0 23
-7 39 -15z m1182 -35 c-2 -27 -8 -50 -13 -50 -11 0 -12 25 -3 69 10 48 19 37
16 -19z m98 -30 c0 -11 -2 -20 -4 -20 -2 0 -11 -3 -20 -6 -19 -7 -22 16 -4 34
18 18 28 15 28 -8z m-182 -102 c-16 -34 -25 -26 -17 15 4 23 9 47 10 52 1 6 5
-3 8 -20 4 -16 4 -38 -1 -47z m272 63 c0 -12 -20 -25 -27 -18 -7 7 6 27 18 27
5 0 9 -4 9 -9z m-180 -40 c0 -6 -4 -13 -10 -16 -5 -3 -10 1 -10 9 0 9 5 16 10
16 6 0 10 -4 10 -9z m118 -64 c-4 -32 -48 -37 -48 -6 0 12 8 31 17 41 15 17
18 17 26 3 4 -9 7 -26 5 -38z m-90 -59 c-6 -16 -48 -43 -48 -30 0 13 28 42 42
42 5 0 8 -5 6 -12z m-9 -174 c-24 -51 -48 -92 -53 -90 -6 1 -14 14 -19 29 -7
23 -4 33 20 61 15 19 41 53 57 77 46 66 43 27 -5 -77z m-132 39 c-9 -9 -20
-14 -24 -10 -3 4 2 14 13 21 25 19 33 10 11 -11z m-1317 -53 c0 -22 -4 -40
-10 -40 -11 0 -13 39 -4 64 10 26 14 19 14 -24z m70 -45 c0 -8 -47 -101 -77
-152 l-25 -42 -28 21 c-24 17 -27 24 -19 40 8 15 17 18 35 14 29 -8 32 9 5 26
-25 16 -10 52 18 43 13 -4 20 1 24 15 6 22 67 54 67 35z m1303 -39 c15 -23 13
-66 -4 -66 -4 0 -9 15 -11 33 -2 19 -8 31 -15 30 -14 -3 -17 9 -6 20 11 12 20
8 36 -17z m-1443 -171 c15 -16 20 -29 14 -34 -12 -12 -69 33 -60 48 11 17 20
14 46 -14z m-50 -57 c22 -13 40 -29 40 -36 0 -9 -16 -4 -49 15 -27 15 -47 31
-45 35 7 11 11 10 54 -14z m-8 -91 c16 -13 16 -17 -2 -65 -24 -64 -25 -84 -3
-129 20 -44 86 -93 113 -86 17 5 20 0 20 -31 l0 -36 -107 -1 c-60 0 -122 -5
-140 -12 -17 -7 -55 -34 -83 -60 -63 -58 -112 -86 -118 -67 -3 7 -13 21 -23
31 -31 31 -25 48 11 29 22 -12 33 0 24 25 -5 12 -17 16 -48 14 -22 -1 -66 -1
-97 0 -49 1 -57 4 -67 26 -15 33 -16 32 9 38 15 4 27 -1 39 -15 22 -27 50 -18
50 17 0 14 2 25 5 25 2 0 30 -11 61 -25 67 -30 74 -30 74 -7 -1 17 -22 52 -33
52 -3 0 -18 5 -32 10 l-26 10 28 24 c15 13 43 31 61 40 18 9 55 39 83 67 51
50 51 50 82 36 47 -22 77 -29 77 -20 0 15 -15 29 -47 48 -18 11 -33 23 -33 28
0 5 13 -1 29 -12 41 -29 55 -27 46 7 -3 15 -13 34 -21 43 -8 9 -12 23 -8 32 6
18 10 16 76 -36z m-207 -75 l-28 -27 24 31 c13 17 26 30 28 27 3 -2 -8 -16
-24 -31z m1465 -7 c0 -2 -9 -43 -20 -91 -16 -69 -18 -89 -8 -95 7 -5 19 -2 29
7 35 32 37 5 5 -68 -15 -36 -15 -38 5 -49 18 -9 27 -7 50 10 l29 22 0 -34 c0
-21 -11 -48 -31 -75 -30 -41 -30 -42 -8 -42 12 0 34 10 47 23 l25 22 -17 -32
c-9 -17 -20 -35 -26 -38 -21 -13 -10 -35 17 -35 31 0 73 35 73 62 0 11 7 18
20 18 11 0 20 -2 20 -5 0 -11 -33 -70 -48 -88 -14 -16 -14 -19 -2 -27 22 -14
101 -10 127 6 12 8 31 14 43 14 12 0 29 14 42 35 13 19 26 35 30 35 34 0 -5
-73 -58 -109 -44 -30 -125 -38 -193 -17 -153 45 -285 -7 -351 -140 -39 -79
-88 -117 -172 -134 -51 -10 -63 -9 -75 3 -20 19 -3 74 32 107 23 22 25 22 71
6 26 -9 56 -16 66 -16 17 0 17 2 3 24 -9 13 -28 27 -42 31 -17 4 -22 10 -16
16 6 6 25 4 52 -6 43 -15 67 -12 56 6 -4 5 1 12 9 15 22 8 20 40 -4 64 -26 26
-26 28 13 32 38 4 45 31 9 36 -19 3 -23 9 -20 30 2 19 8 26 21 25 9 -2 24 -4
33 -5 30 -5 26 22 -5 39 -43 25 -43 75 -1 123 34 41 36 52 14 89 -16 27 -15
29 21 77 35 44 37 46 31 19 l-7 -30 30 35 c17 19 38 52 48 73 14 31 33 50 33
32z m-795 -202 c17 -16 16 -18 -11 -41 -16 -13 -43 -30 -59 -37 -39 -17 -171
-21 -209 -6 -24 10 -27 15 -21 39 10 42 25 50 42 25 19 -28 31 -29 49 -5 13
16 15 16 25 0 15 -26 38 -22 45 6 6 27 16 31 80 34 29 2 47 -3 59 -15z m90
-53 c-3 -5 -13 -10 -21 -10 -8 0 -14 5 -14 10 0 6 9 10 21 10 11 0 17 -4 14
-10z m-1130 -36 c19 -30 13 -39 -32 -49 -36 -7 -47 9 -12 18 17 5 20 11 17 31
-7 33 5 33 27 0z m-329 -26 c33 -36 84 -104 84 -112 0 -2 -20 -12 -45 -22 -44
-16 -46 -16 -60 2 -14 19 -55 99 -55 109 0 16 19 0 30 -25 16 -39 36 -55 43
-36 3 8 -5 36 -19 61 -13 25 -24 48 -24 51 0 12 19 0 46 -28z m-124 -24 c25
-16 1 -23 -54 -17 -70 7 -79 10 -58 23 14 9 96 4 112 -6z m303 -27 c8 3 15 14
15 24 0 17 3 18 20 7 11 -7 20 -16 20 -20 0 -7 -91 -51 -95 -46 -1 2 -5 21 -8
43 l-6 40 20 -27 c12 -16 26 -25 34 -21z m1719 -38 c-5 -29 -12 -38 -39 -48
-18 -6 -50 -25 -70 -41 -21 -17 -41 -30 -45 -30 -4 0 -10 19 -14 42 -4 23 -14
50 -22 59 -15 17 -13 21 18 32 12 4 23 -3 35 -23 20 -35 29 -37 36 -10 3 12
14 20 27 20 12 0 33 9 47 20 15 11 27 19 29 17 2 -2 1 -19 -2 -38z m-1361 -8
c32 -17 33 -22 8 -38 -16 -10 -22 -8 -41 12 -19 20 -20 52 -2 43 4 -2 19 -10
35 -17z m965 -26 c24 -30 32 -31 32 -4 0 28 14 21 42 -20 13 -19 28 -36 35
-38 17 -6 28 44 14 61 -7 8 -8 17 -3 20 5 3 23 -27 41 -65 l33 -71 -22 -23
c-36 -38 -149 -84 -237 -96 -86 -11 -123 -3 -123 27 0 8 -7 14 -17 12 -28 -5
-47 41 -39 95 4 26 10 47 14 47 4 0 20 -21 35 -46 26 -44 29 -46 45 -31 16 17
14 40 -13 112 -5 15 -1 13 19 -8 14 -15 26 -35 26 -43 0 -8 4 -14 9 -14 6 0
11 21 13 48 l3 47 19 -35 c24 -46 26 -47 36 -31 4 8 6 29 3 48 -7 40 8 43 35
8z m932 5 c-6 -11 -13 -20 -15 -20 -3 0 -5 9 -5 20 0 11 7 20 15 20 13 0 14
-4 5 -20z m-1966 -36 c26 -10 19 -22 -24 -44 -22 -11 -40 -18 -40 -15 0 6 42
65 46 65 1 0 9 -3 18 -6z m2232 -19 c-39 -8 -72 -13 -74 -10 -13 12 14 20 75
22 l68 2 -69 -14z m-1485 -121 c5 -15 8 -29 5 -31 -6 -7 -86 17 -86 25 0 7 43
28 63 31 4 1 12 -11 18 -25z m-871 -106 c-1 -35 -3 -40 -11 -25 -10 17 -5 67
6 67 3 0 5 -19 5 -42z m1400 -167 c0 -6 -8 -16 -18 -23 -9 -7 -30 -29 -46 -48
-16 -19 -27 -27 -23 -17 4 10 7 23 7 28 0 12 60 69 72 69 5 0 8 -4 8 -9z"/>
<path d="M2353 9426 c7 -15 16 -21 21 -16 6 6 4 15 -4 25 -19 23 -29 18 -17
-9z"/>
<path d="M1880 9199 c0 -5 5 -7 10 -4 6 3 10 8 10 11 0 2 -4 4 -10 4 -5 0 -10
-5 -10 -11z"/>
<path d="M1790 8990 c-9 -6 -10 -10 -3 -10 6 0 15 5 18 10 8 12 4 12 -15 0z"/>
<path d="M1706 8945 c-16 -12 -17 -15 -4 -15 9 0 18 7 22 15 7 18 6 18 -18 0z"/>
<path d="M2356 7552 c164 -141 394 -277 394 -234 0 25 -128 110 -298 199 -76
39 -121 56 -96 35z"/>
<path d="M6917 5530 c3 -10 12 -21 20 -25 12 -4 13 -3 5 8 -7 8 -9 16 -6 19 2
3 -2 8 -9 11 -11 4 -13 0 -10 -13z"/>
<path d="M3220 6242 c8 -3 18 -9 21 -14 3 -5 11 -3 17 5 10 11 6 14 -21 14
-17 1 -25 -2 -17 -5z"/>
<path d="M7904 4856 c11 -9 24 -16 30 -16 12 0 7 5 -24 19 -24 11 -24 11 -6
-3z"/>
<path d="M7971 4817 c2 -1 13 -9 24 -17 19 -14 19 -14 6 3 -7 9 -18 17 -24 17
-6 0 -8 -1 -6 -3z"/>
<path d="M8067 4759 c7 -7 15 -10 18 -7 3 3 -2 9 -12 12 -14 6 -15 5 -6 -5z"/>
<path d="M8124 4725 c11 -8 22 -12 25 -9 6 6 -19 24 -34 24 -5 -1 -1 -7 9 -15z"/>
<path d="M8214 4675 c22 -17 40 -20 32 -6 -3 5 -16 11 -28 14 -22 6 -22 5 -4
-8z"/>
</g>
</svg>
