<?xml version="1.0" standalone="no"?>
<!DOCTYPE svg PUBLIC "-//W3C//DTD SVG 20010904//EN"
 "http://www.w3.org/TR/2001/REC-SVG-20010904/DTD/svg10.dtd">
<svg version="1.0" xmlns="http://www.w3.org/2000/svg"
 width="922.000000pt" height="1224.000000pt" viewBox="0 0 922.000000 1224.000000"
 preserveAspectRatio="xMidYMid meet">
<metadata>
Created by potrace 1.16, written by Peter Selinger 2001-2019
</metadata>
<g transform="translate(0.000000,1224.000000) scale(0.100000,-0.100000)"
fill="#000000" stroke="none">
<path d="M6600 10169 c-85 -23 -139 -42 -195 -69 -33 -15 -72 -33 -87 -39 -37
-14 -36 -31 1 -31 18 0 48 -14 78 -36 67 -51 66 -49 51 -75 -7 -13 -13 -25
-14 -26 0 -3 -155 -60 -196 -73 -17 -5 -30 -5 -33 1 -4 5 -16 9 -28 9 -53 1
-50 18 7 46 31 15 55 32 53 38 -4 12 -6 12 -101 1 -67 -8 -74 6 -15 36 41 22
59 37 59 49 0 15 -16 12 -68 -11 -43 -20 -51 -20 -112 -9 -51 10 -77 10 -116
1 -27 -7 -76 -18 -109 -25 -84 -18 -210 -53 -274 -76 -85 -30 -115 -57 -168
-150 -27 -47 -58 -89 -71 -95 -27 -12 -28 -31 -3 -44 12 -7 47 -6 107 3 l89
14 55 -38 c47 -32 173 -90 196 -90 4 0 30 -17 58 -38 83 -61 124 -82 167 -82
38 0 39 -1 39 -34 0 -24 10 -45 38 -77 22 -24 54 -75 72 -114 28 -59 34 -81
33 -137 0 -90 -31 -153 -90 -184 -23 -12 -56 -38 -73 -58 -18 -20 -37 -36 -44
-36 -7 0 -36 -20 -65 -45 -29 -24 -71 -53 -94 -64 -23 -10 -53 -29 -67 -42
-14 -13 -41 -36 -61 -51 -44 -33 -139 -129 -139 -140 0 -5 -5 -14 -10 -21 -6
-7 -32 -41 -59 -77 -50 -65 -138 -132 -211 -160 -19 -7 -40 -18 -47 -23 -7 -5
-27 -12 -45 -17 -107 -25 -286 -85 -345 -114 -93 -47 -189 -122 -367 -287
-162 -152 -294 -288 -329 -342 -21 -32 -56 -69 -76 -83 -21 -14 -53 -45 -70
-69 -18 -25 -35 -45 -39 -45 -4 0 -20 -23 -37 -50 -16 -27 -34 -50 -40 -50 -5
0 -43 -36 -84 -81 -41 -44 -85 -86 -97 -91 -13 -6 -24 -16 -24 -22 0 -6 -14
-22 -31 -36 -17 -14 -50 -42 -73 -63 -45 -42 -48 -45 -121 -103 -27 -21 -60
-50 -72 -62 -13 -15 -27 -21 -35 -16 -7 4 -10 4 -6 -1 4 -4 -18 -28 -50 -52
-31 -25 -74 -60 -94 -79 -21 -19 -49 -39 -63 -46 -14 -6 -25 -15 -25 -20 0 -4
-6 -8 -12 -8 -7 0 -26 -14 -42 -30 -16 -17 -50 -42 -75 -57 -25 -14 -62 -39
-81 -55 -19 -15 -40 -28 -47 -28 -6 0 -19 -7 -27 -16 -16 -16 -163 -93 -361
-190 -60 -30 -137 -68 -170 -85 -33 -17 -133 -69 -222 -115 -90 -46 -191 -101
-225 -123 -39 -25 -65 -36 -69 -29 -4 7 -10 6 -15 -3 -5 -8 -27 -26 -49 -40
-22 -15 -100 -67 -174 -115 -189 -125 -191 -126 -251 -182 -42 -37 -60 -63
-73 -104 -11 -30 -17 -65 -15 -78 3 -22 -3 -25 -87 -47 -152 -39 -317 -130
-495 -271 -19 -16 -55 -42 -80 -59 -25 -17 -67 -54 -94 -82 -45 -45 -50 -55
-54 -106 -4 -44 -1 -55 10 -55 8 0 20 -11 28 -24 9 -18 25 -27 54 -32 22 -3
44 -11 48 -17 4 -7 24 -5 60 6 29 9 78 19 108 23 30 4 72 13 93 20 35 13 38
12 53 -12 16 -23 15 -26 -2 -46 -19 -20 -19 -21 4 -13 16 4 29 2 41 -9 58 -53
182 -60 276 -16 11 6 51 21 88 35 96 36 189 86 286 155 122 86 148 97 291 120
47 8 93 8 170 -1 124 -14 162 -6 323 68 l98 45 172 4 c221 7 350 32 492 98 28
13 71 33 96 45 25 11 49 21 53 21 4 0 35 16 67 35 33 19 66 35 74 35 20 0 32
-27 40 -93 7 -52 13 -63 59 -111 37 -39 67 -60 111 -76 84 -31 245 -53 325
-44 36 4 77 8 91 9 14 1 37 9 50 17 46 29 86 30 129 3 71 -45 166 -56 244 -30
43 15 45 14 85 -12 23 -15 40 -32 37 -39 -4 -11 -23 -87 -47 -193 -6 -25 -13
-82 -16 -128 -5 -74 -4 -86 14 -106 11 -12 34 -51 50 -87 17 -36 44 -79 59
-96 16 -17 47 -51 70 -76 22 -25 45 -47 50 -49 5 -2 19 -22 30 -44 216 -420
231 -453 299 -650 15 -44 28 -89 30 -100 4 -27 43 -161 61 -208 15 -41 20
-197 5 -197 -5 0 -11 -8 -14 -19 -4 -17 -17 -19 -113 -23 -96 -3 -115 -7 -160
-31 -41 -23 -55 -26 -77 -18 -47 18 -122 -12 -183 -74 -30 -30 -54 -60 -54
-68 0 -8 -15 -29 -34 -45 -41 -36 -62 -107 -30 -100 10 2 32 22 49 44 65 89
145 121 253 100 58 -11 75 -11 89 -1 15 11 22 9 45 -10 17 -14 48 -26 76 -30
26 -3 55 -8 65 -10 10 -2 40 3 65 11 69 21 175 18 221 -5 37 -19 101 -83 101
-101 0 -13 55 -92 82 -117 12 -12 43 -31 68 -41 97 -43 219 -198 207 -261 -3
-14 -9 -34 -13 -45 -5 -14 -3 -17 11 -14 27 5 64 101 65 166 0 58 -20 115 -53
150 -18 19 -19 26 -9 42 31 51 5 101 -112 211 -50 48 -88 90 -84 94 4 4 23 -6
43 -24 20 -17 41 -31 48 -31 8 0 26 -14 43 -31 70 -74 185 -119 307 -119 43 0
88 5 100 12 12 6 43 13 69 14 26 1 71 13 101 27 29 13 77 30 106 38 61 15 76
9 106 -42 11 -19 28 -46 37 -59 17 -23 19 -23 35 -7 15 15 16 22 5 64 -20 73
-56 128 -99 149 -23 11 -70 19 -121 22 -77 4 -86 7 -116 36 -18 17 -37 39 -43
49 -5 10 -16 19 -24 21 -8 1 -34 8 -59 15 -25 7 -88 13 -140 12 -52 0 -108 3
-124 7 l-29 8 29 18 c32 22 94 28 138 14 92 -30 301 -47 347 -28 16 7 85 13
162 13 l134 2 52 -48 c29 -26 71 -57 92 -69 21 -12 39 -25 39 -30 0 -4 5 -8
11 -8 19 0 103 -63 158 -120 54 -55 54 -56 62 -133 12 -125 40 -140 82 -42 33
78 34 108 4 168 -15 29 -22 57 -19 76 3 24 -5 43 -42 92 -26 34 -45 64 -43 66
9 8 104 -19 130 -38 15 -11 31 -18 36 -15 4 3 28 -7 52 -22 69 -43 128 -66
167 -65 31 1 44 9 82 51 43 47 49 50 117 61 40 6 98 8 128 5 64 -8 90 6 80 43
-7 27 -3 28 33 6 26 -16 26 -16 10 2 -9 10 -25 19 -35 20 -10 0 -38 13 -63 28
-25 14 -69 32 -98 38 -45 11 -57 10 -87 -4 -34 -16 -34 -16 -47 10 -7 14 -26
36 -41 47 -25 19 -44 21 -165 23 -172 2 -221 8 -293 38 -32 12 -75 26 -97 30
-23 3 -50 17 -63 31 -12 13 -28 24 -35 24 -19 0 -176 195 -206 255 -14 30 -39
68 -56 84 -56 57 -101 190 -132 391 -5 36 -14 88 -20 115 -13 61 -32 179 -35
220 -11 122 -1 505 14 533 6 12 9 27 6 32 -8 12 48 103 105 170 118 139 157
218 162 330 3 66 0 77 -20 99 -12 13 -21 28 -20 31 2 4 26 27 53 50 28 24 50
47 50 51 0 4 4 11 9 16 5 5 6 3 2 -4 -17 -30 14 -10 33 21 12 19 44 62 72 97
28 35 53 75 56 90 3 15 24 49 47 75 23 27 57 70 74 96 18 26 58 67 90 91 31
25 65 54 76 65 10 12 50 40 90 63 39 24 96 63 126 89 30 25 81 65 112 88 31
23 77 67 101 99 25 32 57 69 71 82 14 14 26 31 26 38 0 8 4 11 10 8 5 -3 7 0
5 7 -3 8 18 34 51 63 47 40 194 221 194 239 0 3 29 51 64 106 35 55 74 125 86
155 12 30 27 55 32 55 5 0 6 4 3 10 -3 5 12 47 34 92 48 100 90 267 100 395 8
112 -3 274 -23 323 -8 19 -19 78 -25 130 -7 52 -19 121 -27 154 -13 50 -13 75
-3 170 12 109 12 113 -14 204 -15 51 -27 99 -27 107 0 8 -8 20 -18 27 -10 7
-33 58 -51 113 -31 93 -46 129 -100 230 -33 64 -116 263 -145 350 -36 110 -56
209 -56 282 0 130 -62 248 -173 329 -33 24 -64 44 -69 44 -5 0 -40 15 -77 34
-38 19 -99 43 -137 54 -38 11 -105 34 -149 50 -247 91 -328 112 -434 111 -53
0 -112 -5 -131 -10z m-50 -240 c6 -10 6 -20 2 -23 -10 -6 -52 30 -52 43 0 15
40 -1 50 -20z m122 -17 c18 -33 18 -33 -3 -30 -13 2 -26 16 -35 36 -12 30 -12
33 3 30 9 -2 25 -18 35 -36z m157 -56 c11 -14 11 -16 -1 -16 -16 0 -50 64 -40
75 4 4 11 -4 17 -18 5 -13 16 -31 24 -41z m81 14 c0 -5 -6 -10 -14 -10 -8 0
-18 5 -21 10 -3 6 3 10 14 10 12 0 21 -4 21 -10z m-1173 -11 c15 -5 42 -23 58
-38 40 -38 147 -55 253 -40 40 6 83 9 95 7 19 -3 15 -8 -26 -35 l-49 -32 -209
2 c-149 1 -212 -2 -220 -10 -10 -10 -7 -14 12 -21 21 -8 182 -21 267 -22 17 0
32 -4 32 -10 0 -5 -7 -10 -16 -10 -8 0 -25 -5 -37 -12 -29 -16 -85 -11 -180
14 -73 20 -85 21 -175 9 -183 -24 -212 -27 -212 -18 0 27 92 162 118 172 126
53 225 68 289 44z m956 -30 c30 -16 38 -31 25 -46 -15 -19 -22 -16 -41 16 -26
44 -23 50 16 30z m-173 -49 c0 -12 -3 -12 -16 2 -9 9 -13 21 -9 28 9 14 25 -5
25 -30z m430 29 c0 -5 4 -8 9 -5 15 10 58 -32 80 -77 12 -24 21 -63 21 -86 0
-37 -6 -49 -39 -82 -21 -22 -45 -39 -52 -39 -11 0 -11 2 -1 8 26 17 62 77 62
105 0 73 -24 112 -105 172 -20 14 -20 14 3 15 12 0 22 -5 22 -11z m-161 -42
c-53 -45 -64 -109 -29 -185 21 -46 26 -50 109 -68 l56 -12 -50 -1 c-66 -1
-145 42 -169 92 -20 43 -20 58 -1 51 17 -7 21 11 5 21 -5 3 -10 11 -10 16 0 6
4 7 10 4 6 -3 7 1 4 9 -4 9 -1 16 6 16 6 0 10 6 7 13 -7 19 13 49 29 43 8 -3
14 1 14 9 0 9 9 15 23 15 22 -1 22 -1 -4 -23z m149 -10 c27 -25 28 -34 2 -42
-45 -14 -71 14 -54 59 7 17 17 14 52 -17z m-453 -25 c5 -12 13 -22 17 -22 5 0
8 -5 8 -11 0 -12 33 -56 97 -127 35 -39 43 -43 43 -26 0 12 -15 41 -33 65 -52
67 -67 99 -47 99 6 0 10 -7 10 -15 0 -8 19 -33 41 -57 23 -24 52 -60 65 -80
26 -41 95 -81 164 -97 34 -8 51 -6 89 10 84 36 110 53 128 86 17 33 46 43 59
22 3 -6 20 -9 37 -6 19 2 36 -2 46 -12 9 -9 28 -23 41 -32 14 -9 22 -20 18
-24 -4 -4 -19 2 -34 14 -37 29 -44 17 -11 -17 29 -30 35 -47 15 -39 -8 2 -14
-4 -15 -17 -1 -11 -4 -34 -8 -51 -6 -28 -5 -29 9 -11 8 10 17 24 19 30 3 6 19
-4 37 -21 18 -18 27 -33 21 -33 -6 0 -11 -5 -11 -11 0 -6 9 -8 21 -4 18 6 21
4 17 -12 -4 -15 2 -22 23 -30 15 -6 30 -8 32 -4 5 7 2 -6 -7 -39 l-8 -25 24
27 c33 38 57 39 108 3 25 -17 53 -34 63 -38 17 -6 24 -27 10 -27 -5 0 -32 14
-62 30 -30 17 -57 27 -60 24 -3 -3 17 -26 44 -50 40 -36 47 -46 35 -54 -9 -6
-18 -6 -24 0 -19 19 -28 10 -22 -21 3 -19 0 -42 -10 -60 -24 -48 -13 -71 13
-26 23 38 29 42 51 29 10 -7 9 -16 -3 -46 -26 -62 -13 -77 19 -23 15 27 30 47
32 44 2 -2 0 -32 -4 -65 -12 -84 0 -81 36 9 8 21 15 26 36 22 14 -3 23 -9 21
-14 -3 -4 -12 -6 -20 -2 -17 6 -20 -8 -5 -23 6 -6 3 -24 -11 -51 -11 -23 -19
-52 -17 -65 3 -19 8 -15 31 30 15 28 31 52 37 52 20 0 20 -22 0 -80 -28 -82
-14 -98 22 -26 16 32 31 56 33 54 8 -8 -21 -128 -33 -140 -7 -7 -12 -20 -12
-29 0 -11 -12 -19 -37 -24 -30 -5 -40 -3 -50 12 -28 41 -31 42 -63 30 -27 -10
-31 -16 -26 -39 4 -22 0 -29 -24 -40 -17 -7 -30 -17 -30 -21 0 -5 4 -6 9 -3
12 8 41 -3 41 -15 0 -5 -10 -10 -22 -10 -17 -1 -19 -2 -5 -6 22 -6 22 -11 -5
-33 l-23 -18 47 -7 c56 -9 68 -34 33 -69 -16 -16 -22 -31 -18 -46 5 -20 -9
-39 -29 -40 -4 0 -10 25 -13 55 -4 30 -10 55 -14 55 -17 0 -31 -26 -31 -56 0
-42 -41 -89 -70 -81 -12 3 -36 -3 -56 -15 -18 -11 -39 -18 -46 -15 -7 2 10 16
39 29 62 29 83 46 83 64 0 10 -6 11 -26 4 -34 -13 -41 -13 -26 2 7 7 12 18 12
25 0 9 -14 7 -52 -8 -29 -12 -59 -24 -67 -27 -8 -3 9 23 38 57 44 53 50 65 39
78 -11 14 -9 15 19 9 19 -5 34 -3 38 4 7 11 -14 49 -47 85 -19 20 -19 20 9 23
18 2 32 11 38 25 6 12 18 21 27 21 10 -1 14 4 11 12 -5 15 35 36 51 27 4 -3 5
4 2 15 -5 13 2 29 19 50 46 55 27 72 -24 21 -29 -29 -61 -36 -67 -14 -2 6 19
26 46 45 45 32 61 50 43 50 -14 0 -80 -24 -114 -41 -36 -19 -37 -19 -82 1 -25
11 -48 27 -51 36 -5 13 -2 15 11 9 68 -29 85 -8 23 27 -22 13 -40 26 -40 30 0
16 23 19 39 4 19 -17 51 -22 51 -8 0 5 -11 19 -25 32 -29 27 -19 50 20 42 25
-4 35 11 14 23 -7 5 -4 14 7 26 23 26 11 34 -26 19 -44 -18 -60 -1 -31 36 11
15 21 31 21 35 0 19 -30 8 -50 -18 l-21 -27 -56 29 c-30 17 -56 32 -58 35 -2
3 7 26 20 52 26 50 23 63 -8 46 -17 -9 -19 -8 -14 6 4 10 1 16 -9 16 -8 0 -29
-23 -46 -50 -36 -59 -55 -53 -33 9 8 24 15 50 15 57 0 22 -20 16 -29 -8 -5
-13 -13 -34 -18 -48 -10 -24 -10 -24 -65 31 -31 30 -55 51 -54 45 4 -21 30
-61 62 -96 18 -19 31 -36 30 -38 -2 -2 -19 6 -37 17 -37 23 -54 27 -44 11 9
-15 -27 -12 -47 4 -24 17 -23 33 2 41 24 8 26 23 4 32 -11 4 -13 13 -9 33 9
40 -13 48 -26 10 -9 -23 -16 -29 -28 -24 -9 3 -24 9 -33 11 -11 3 -18 15 -18
29 0 27 -13 31 -32 10 -11 -11 -19 -11 -52 0 -69 25 -61 3 14 -38 32 -18 34
-46 2 -29 -9 4 -32 11 -51 15 -33 6 -34 6 -17 -13 29 -32 9 -42 -31 -16 -20
14 -39 25 -43 25 -13 0 -19 -26 -13 -51 5 -19 3 -21 -12 -15 -11 4 -21 2 -26
-5 -5 -8 -15 -9 -35 -2 -37 12 -41 29 -9 37 29 7 64 72 65 119 0 29 9 34 29
15 11 -10 15 -10 18 -1 5 14 52 8 101 -14 18 -8 37 -13 43 -11 16 5 -39 76
-86 108 -28 19 -47 41 -51 58 -4 15 -16 38 -28 52 -42 49 -67 91 -61 101 10
15 29 6 40 -19z m195 2 c0 -8 -4 -12 -10 -9 -5 3 -10 13 -10 21 0 8 5 12 10 9
6 -3 10 -13 10 -21z m-45 -21 c13 -16 24 -35 24 -43 0 -15 -58 47 -59 63 0 13
11 7 35 -20z m-253 -28 c-3 -20 -9 -24 -27 -19 -13 3 -26 1 -30 -5 -3 -6 -10
-9 -15 -6 -5 3 -11 1 -15 -5 -3 -5 -11 -10 -18 -10 -19 0 7 20 59 45 27 13 50
24 50 24 1 1 -1 -10 -4 -24z m-127 -75 c-3 -5 -12 -10 -18 -10 -7 0 -6 4 3 10
19 12 23 12 15 0z m-119 -29 c-21 -23 -14 -41 17 -41 12 0 35 -7 51 -15 15 -8
35 -15 43 -15 8 0 26 -6 41 -14 15 -7 44 -16 66 -19 36 -6 37 -5 20 9 -18 14
-16 15 24 11 24 -3 45 -7 47 -9 1 -1 -1 -25 -5 -52 -11 -74 -23 -79 -165 -73
-142 5 -269 38 -260 68 4 12 -14 29 -64 63 -77 51 -88 63 -74 77 9 9 143 24
237 28 38 1 39 0 22 -18z m1504 9 c0 -5 -4 -10 -10 -10 -5 0 -10 5 -10 10 0 6
5 10 10 10 6 0 10 -4 10 -10z m-1190 -40 c0 -5 -4 -10 -10 -10 -5 0 -10 5 -10
10 0 6 5 10 10 10 6 0 10 -4 10 -10z m-559 -66 c62 -39 64 -41 50 -62 -7 -11
-19 -9 -65 13 -55 26 -83 56 -71 75 10 16 24 12 86 -26z m1424 -5 c11 -17 -1
-21 -15 -4 -8 9 -8 15 -2 15 6 0 14 -5 17 -11z m49 -40 c-3 -5 -10 -7 -15 -3
-5 3 -7 10 -3 15 3 5 10 7 15 3 5 -3 7 -10 3 -15z m-69 1 c3 -5 2 -10 -4 -10
-5 0 -13 5 -16 10 -3 6 -2 10 4 10 5 0 13 -4 16 -10z m-1224 -100 c10 -6 19
-16 19 -23 0 -7 9 -23 20 -37 24 -30 25 -40 5 -40 -21 0 -52 33 -69 75 -16 37
-9 43 25 25z m707 -29 c5 -14 -11 -14 -43 1 -14 6 -25 17 -25 24 0 11 6 10 32
0 18 -8 34 -19 36 -25z m-564 -47 c31 -30 56 -57 56 -60 0 -2 -8 -4 -17 -4
-10 0 -34 21 -53 47 -69 91 -65 96 14 17z m46 30 c0 -14 -4 -23 -10 -19 -5 3
-10 15 -10 26 0 10 5 19 10 19 6 0 10 -12 10 -26z m162 -89 c4 -5 5 -11 2 -14
-6 -6 -64 50 -64 63 0 9 46 -27 62 -49z m178 -29 c0 -6 -16 6 -35 27 -19 21
-35 43 -35 50 0 7 16 -5 35 -27 19 -21 35 -43 35 -50z m472 59 c-2 -14 -8 -25
-13 -25 -12 0 -11 7 1 31 14 26 18 24 12 -6z m-742 -59 c0 -6 -7 -1 -15 10 -8
10 -15 23 -15 28 0 6 7 1 15 -10 8 -10 15 -23 15 -28z m608 19 c-3 -3 -9 2
-12 12 -6 14 -5 15 5 6 7 -7 10 -15 7 -18z m-448 6 c0 7 10 3 25 -11 30 -28
24 -41 -7 -14 l-22 19 18 -30 18 -30 -31 32 c-32 33 -43 55 -16 33 12 -10 15
-10 15 1z m491 -44 c-13 -13 -26 -3 -16 12 3 6 11 8 17 5 6 -4 6 -10 -1 -17z
m-756 -14 c22 -26 24 -43 6 -43 -4 0 -15 16 -24 35 -20 42 -14 45 18 8z m965
-26 c0 -10 -59 35 -59 46 -1 4 13 -2 29 -15 17 -12 30 -26 30 -31z m-150 12
c0 -4 -7 -6 -15 -3 -8 4 -15 10 -15 15 0 4 7 6 15 3 8 -4 15 -10 15 -15z m545
1 c3 -6 -1 -13 -10 -16 -19 -8 -30 0 -20 15 8 14 22 14 30 1z m-446 -29 c22
-17 25 -51 4 -51 -19 0 -73 41 -73 55 0 21 40 19 69 -4z m102 -14 c-1 -12 -15
-9 -19 4 -3 6 1 10 8 8 6 -3 11 -8 11 -12z m-660 -45 c54 -60 50 -69 -6 -12
-21 22 -34 40 -29 40 6 0 22 -12 35 -28z m618 -19 c-15 -18 -34 -1 -25 22 5
14 9 15 21 5 12 -10 13 -16 4 -27z m532 -46 c-1 -12 -15 -9 -19 4 -3 6 1 10 8
8 6 -3 11 -8 11 -12z m-1226 -17 c10 -11 16 -20 13 -20 -3 0 -13 9 -23 20 -10
11 -16 20 -13 20 3 0 13 -9 23 -20z m1439 -175 c34 -73 46 -110 42 -122 -6
-13 -28 -19 -24 -5 3 7 -57 174 -74 206 -13 25 -19 57 -11 69 3 5 17 -19 30
-54 13 -35 30 -77 37 -94z m-747 132 c4 -7 23 -23 41 -36 33 -23 42 -41 18
-41 -16 0 -86 64 -86 79 0 15 17 14 27 -2z m633 -16 c0 -5 3 -16 6 -24 3 -9
-3 -16 -16 -20 -24 -6 -22 -11 40 -147 42 -92 52 -130 33 -137 -6 -2 -22 29
-38 76 -29 88 -36 98 -55 76 -10 -12 -9 -23 4 -55 20 -49 20 -50 1 -50 -13 0
-36 39 -50 86 -9 33 24 164 41 164 8 0 14 9 14 20 0 11 5 20 10 20 6 0 10 -4
10 -9z m-520 -75 c0 -3 -4 -8 -10 -11 -5 -3 -10 -1 -10 4 0 6 5 11 10 11 6 0
10 -2 10 -4z m55 -28 c26 -12 29 -31 4 -35 -20 -4 -52 23 -44 36 8 14 8 14 40
-1z m658 -68 c8 -32 -10 -23 -22 11 -9 26 -9 29 3 20 8 -7 16 -21 19 -31z
m-672 20 c5 0 9 -7 9 -15 0 -21 -14 -19 -36 7 -18 20 -18 21 -1 15 10 -4 23
-7 28 -7z m229 -60 c0 -5 -2 -10 -4 -10 -3 0 -8 5 -11 10 -3 6 -1 10 4 10 6 0
11 -4 11 -10z m-847 -115 c33 -44 79 -98 101 -120 91 -90 146 -153 146 -169 0
-9 8 -16 20 -16 27 0 25 13 -11 73 -146 248 -177 302 -173 306 16 16 200 -225
259 -339 20 -38 20 -38 -17 -55 l-33 -15 50 5 50 5 -35 -29 c-19 -17 -30 -30
-23 -31 6 0 15 5 18 10 3 6 13 10 21 10 8 0 31 11 52 24 53 33 83 41 93 25 5
-8 9 -17 9 -20 0 -4 -54 -30 -120 -58 -66 -29 -136 -61 -155 -72 l-35 -21 -36
27 c-20 16 -51 31 -68 34 -29 6 -37 18 -108 161 -43 85 -78 162 -78 171 0 9
-7 22 -15 29 -8 7 -15 21 -15 31 0 9 -6 24 -13 31 -7 7 -16 20 -20 28 -4 8
-14 25 -23 38 -13 18 -14 21 -2 17 8 -3 27 -26 43 -51 16 -25 38 -50 49 -56
12 -6 25 -18 30 -27 8 -13 10 -13 16 4 7 20 -10 61 -45 110 -72 99 -14 47 68
-60z m875 56 c3 -8 -1 -12 -9 -9 -7 2 -15 10 -17 17 -3 8 1 12 9 9 7 -2 15
-10 17 -17z m66 0 c3 -4 3 -11 0 -14 -8 -8 -34 3 -34 14 0 11 27 12 34 0z m51
-11 c-3 -5 -12 -7 -20 -3 -21 7 -19 13 6 13 11 0 18 -4 14 -10z m-1295 -122
c18 -51 36 -97 41 -103 4 -5 18 -39 32 -75 14 -36 39 -90 56 -120 29 -51 43
-118 22 -106 -5 4 -22 39 -37 79 -15 39 -56 142 -90 227 -71 177 -80 205 -67
197 6 -4 25 -48 43 -99z m1408 77 c16 -35 15 -55 -2 -55 -19 0 -27 25 -13 40
9 10 9 14 0 17 -14 5 -18 23 -5 23 5 0 14 -11 20 -25z m-218 -5 c0 -5 -4 -10
-10 -10 -5 0 -10 5 -10 10 0 6 5 10 10 10 6 0 10 -4 10 -10z m422 -55 c-6 -14
-16 -25 -21 -25 -13 0 -19 46 -8 65 8 16 11 16 25 1 13 -12 13 -20 4 -41z
m-829 -37 c-19 -21 -33 -23 -33 -5 0 8 -11 24 -25 37 -39 36 -30 40 24 12 46
-25 49 -28 34 -44z m558 18 c0 -6 4 -2 9 9 8 20 9 19 9 -1 1 -20 -24 -52 -33
-43 -2 2 -7 22 -11 44 -6 37 -5 39 9 21 9 -11 16 -25 17 -30z m-118 -10 c12
-35 13 -46 3 -49 -8 -3 -18 10 -26 31 -7 21 -15 43 -17 50 -3 6 2 12 10 12 9
0 21 -18 30 -44z m-545 -57 c-3 -8 -12 1 -22 21 l-17 35 22 -21 c12 -12 19
-28 17 -35z m612 30 c0 -5 -4 -9 -10 -9 -5 0 -10 7 -10 16 0 8 5 12 10 9 6 -3
10 -10 10 -16z m-121 -47 c1 -7 -3 -10 -9 -7 -5 3 -10 18 -9 33 0 24 1 25 9 7
5 -11 9 -26 9 -33z m-2029 -47 c-20 -33 -21 -38 -7 -52 13 -14 18 -13 43 5 16
11 44 23 62 27 29 6 32 5 32 -19 0 -14 1 -29 2 -33 1 -5 5 -28 9 -53 4 -25 10
-53 14 -62 5 -13 0 -21 -16 -28 -13 -6 -39 -22 -58 -35 -49 -36 -58 -32 -66
25 -5 39 -3 56 9 75 26 39 33 30 28 -35 -3 -40 -1 -60 7 -60 6 0 11 8 12 18 0
9 1 47 2 83 l2 67 -27 -14 c-15 -8 -33 -11 -41 -9 -7 3 -26 1 -40 -4 -32 -13
-34 -4 -12 60 15 42 54 94 63 84 2 -2 -6 -20 -18 -40z m1588 -4 c3 -8 -1 -12
-9 -9 -7 2 -15 10 -17 17 -3 8 1 12 9 9 7 -2 15 -10 17 -17z m22 -31 c0 -5 -5
-10 -11 -10 -5 0 -7 5 -4 10 3 6 8 10 11 10 2 0 4 -4 4 -10z m240 -8 c0 -12
-17 -25 -52 -40 -48 -20 -53 -21 -68 -6 -11 12 -12 18 -3 21 7 3 23 13 35 23
31 26 88 27 88 2z m437 -37 c-9 -8 -24 -15 -34 -15 -15 1 -12 5 12 27 30 26
50 16 22 -12z m-1147 -85 l20 -39 -38 6 c-20 3 -39 7 -41 9 -2 1 -5 33 -6 69
l-4 66 25 -36 c13 -20 33 -54 44 -75z m-900 39 c0 -14 -6 -33 -12 -42 -11 -15
-12 -8 -9 39 3 57 21 59 21 3z m107 -12 c4 -30 3 -37 -11 -37 -12 0 -16 10
-16 47 0 55 17 48 27 -10z m197 -29 c-10 -51 -19 -37 -15 25 3 55 5 58 12 32
5 -16 6 -42 3 -57z m-574 12 c-12 -23 -50 -27 -50 -6 0 13 17 22 48 25 10 1
10 -4 2 -19z m-97 -12 c-4 -13 -7 -41 -6 -63 2 -50 26 -71 93 -80 58 -8 103 0
148 26 59 34 31 -11 -85 -135 -67 -71 -93 -81 -62 -24 8 14 8 23 0 31 -6 6
-11 27 -11 46 0 38 -16 33 -22 -7 -2 -19 -20 -31 -82 -58 -43 -19 -81 -33 -84
-30 -10 10 40 114 58 122 13 6 17 14 12 22 -7 10 -17 9 -51 -3 -57 -20 -61
-19 -61 9 0 36 30 81 66 101 18 10 43 28 55 41 28 30 43 31 32 2z m581 -50 c3
-17 13 -39 21 -48 13 -14 13 -19 1 -35 -12 -17 -14 -13 -25 36 -7 30 -15 62
-18 73 -3 11 -1 16 5 12 5 -3 12 -20 16 -38z m-514 13 c0 -5 -7 -14 -15 -21
-13 -10 -15 -9 -15 9 0 12 6 21 15 21 8 0 15 -4 15 -9z m2155 -10 c-3 -6 -11
-11 -17 -11 -6 0 -6 6 2 15 14 17 26 13 15 -4z m-2108 -56 c-4 -8 -15 -11 -31
-8 -34 7 -42 20 -16 28 11 3 26 16 32 28 13 22 13 22 16 -6 2 -16 1 -35 -1
-42z m373 55 c0 -5 -7 -10 -16 -10 -8 0 -12 5 -9 10 3 6 10 10 16 10 5 0 9 -4
9 -10z m-67 -17 c9 -9 -12 -33 -29 -33 -8 0 -14 9 -14 20 0 19 28 28 43 13z
m124 -70 c11 -59 5 -83 -22 -83 -11 0 -35 41 -35 61 0 18 29 79 38 79 5 0 13
-26 19 -57z m269 9 c23 -22 16 -32 -18 -26 l-33 6 28 -27 c19 -18 27 -35 25
-53 -4 -35 -21 -37 -39 -5 -25 43 -32 93 -13 93 8 0 17 13 21 33 5 23 8 27 11
13 2 -11 10 -26 18 -34z m1124 41 c0 -5 -12 -16 -28 -26 -15 -10 -58 -40 -97
-68 -38 -28 -98 -69 -132 -91 -35 -22 -63 -43 -63 -47 0 -9 -69 -45 -75 -40
-2 3 1 14 8 26 7 11 18 31 26 44 10 19 11 21 0 12 -21 -20 -29 -15 -29 18 0
21 6 32 18 35 9 3 94 36 187 74 182 73 185 74 185 63z m-1209 -53 c6 0 4 -7
-4 -15 -9 -8 -18 -28 -22 -44 -8 -37 -93 -91 -107 -69 -13 21 -9 33 18 59 14
13 37 45 52 72 l26 48 13 -25 c8 -14 18 -26 24 -26z m988 31 c-13 -10 -41 -24
-61 -32 -21 -7 -38 -16 -38 -20 0 -4 -9 -11 -20 -14 -11 -3 -27 -13 -36 -22
-13 -14 -17 -14 -25 -2 -14 22 -11 27 27 39 20 7 64 25 98 41 72 33 88 36 55
10z m-1269 -28 c-11 -39 -21 -63 -26 -63 -10 0 -44 41 -44 53 0 8 17 18 38 24
20 6 38 11 39 12 1 0 -2 -11 -7 -26z m489 -33 c0 -3 -15 -23 -34 -45 -23 -27
-35 -34 -35 -23 0 9 -3 23 -6 31 -4 12 0 14 17 10 21 -6 22 -4 16 43 l-7 49
25 -30 c13 -16 24 -32 24 -35z m84 39 c8 -11 24 -21 36 -22 11 -1 21 -5 21 -9
0 -4 5 -8 10 -8 6 0 10 7 10 16 0 25 35 12 38 -14 3 -18 -1 -23 -15 -21 -27 5
-42 -8 -36 -31 6 -24 3 -24 -42 -6 -37 16 -42 25 -23 44 9 9 5 17 -15 36 -31
28 -33 36 -13 36 8 0 21 -9 29 -21z m1027 -27 c0 -5 -20 -23 -45 -41 -27 -19
-45 -27 -45 -19 0 7 20 25 43 40 50 31 47 30 47 20z m-2235 -68 c-7 -8 -16
-14 -19 -14 -11 0 -6 56 6 68 10 10 14 7 20 -14 5 -17 2 -31 -7 -40z m-185 47
c0 -6 -11 -23 -25 -38 l-26 -28 22 38 c21 37 29 45 29 28z m676 -18 c-10 -10
-19 5 -10 18 6 11 8 11 12 0 2 -7 1 -15 -2 -18z m1873 4 c-2 -1 -13 -9 -24
-17 -19 -14 -19 -14 -6 3 7 9 18 17 24 17 6 0 8 -1 6 -3z m-2651 -29 c-4 -12
-11 -16 -70 -42 -34 -14 -38 -14 -38 0 0 8 19 24 43 34 48 22 70 25 65 8z
m942 2 c0 -5 -2 -10 -4 -10 -3 0 -8 5 -11 10 -3 6 -1 10 4 10 6 0 11 -4 11
-10z m-50 -51 c0 -31 -22 -79 -38 -79 -8 0 -24 -7 -34 -17 -10 -9 -20 -14 -23
-12 -3 4 21 94 40 147 6 18 54 -17 55 -39z m-80 29 c0 -4 -14 -39 -32 -78 -34
-75 -48 -76 -48 -4 0 48 30 94 60 91 11 -1 20 -5 20 -9z m-580 -13 c0 -8 -7
-15 -15 -15 -9 0 -12 6 -9 15 4 8 10 15 15 15 5 0 9 -7 9 -15z m1008 -19 c20
-34 19 -46 -2 -46 -15 0 -36 48 -29 66 7 19 8 19 31 -20z m-1358 4 c0 -5 -7
-13 -16 -18 -15 -8 -33 -35 -53 -79 -14 -31 -23 -29 -15 2 10 42 -12 29 -67
-37 -67 -82 -69 -84 -69 -71 0 6 11 25 25 41 14 17 25 41 25 55 0 27 21 46
102 92 45 26 68 31 68 15z m790 -10 c0 -5 -5 -10 -11 -10 -5 0 -7 5 -4 10 3 6
8 10 11 10 2 0 4 -4 4 -10z m-679 -43 c-19 -18 -30 -25 -26 -17 13 25 48 60
54 55 3 -3 -10 -20 -28 -38z m507 19 c-8 -20 -24 -28 -77 -40 -36 -8 -68 -12
-71 -9 -3 3 0 8 5 10 6 2 39 17 75 33 81 35 82 36 68 6z m634 -11 c-4 -25 -5
-25 -23 -9 -15 14 -17 19 -7 26 24 15 35 8 30 -17z m1176 13 c-4 -12 -100 -64
-195 -106 -56 -24 -70 -44 -48 -66 13 -12 5 -19 -59 -55 -70 -38 -141 -90
-133 -97 1 -2 24 3 50 11 26 8 47 10 47 6 0 -4 -39 -46 -87 -92 -80 -76 -201
-166 -246 -182 -32 -12 -185 -118 -191 -133 -3 -8 -14 -14 -26 -14 -41 0 -93
-99 -123 -230 -9 -41 -15 -54 -16 -36 -1 24 -3 27 -16 16 -21 -17 -20 -13 21
71 20 41 40 85 45 98 9 21 7 23 -16 17 -14 -4 -25 -4 -25 -1 0 3 25 31 55 61
46 48 59 68 80 135 14 44 25 88 25 97 1 19 67 65 75 52 3 -4 -6 -15 -20 -24
-35 -23 -32 -46 4 -46 53 0 308 192 396 296 41 50 35 50 -26 2 -20 -15 -41
-28 -45 -28 -5 0 -37 -22 -71 -48 -71 -54 -134 -94 -139 -89 -2 1 -1 12 2 23
6 22 202 174 225 174 51 0 344 129 399 175 28 23 64 32 58 13z m-1127 -41
c-17 -17 -24 -1 -10 25 12 21 14 21 17 4 2 -10 -1 -23 -7 -29z m269 7 c0 -8
-7 -14 -15 -14 -10 0 -15 10 -15 26 0 22 2 25 15 14 8 -7 15 -19 15 -26z
m-1303 -3 c33 -24 40 -34 36 -54 -3 -14 0 -28 7 -32 8 -5 6 -12 -6 -26 -9 -10
-20 -19 -24 -19 -11 0 -31 86 -24 103 9 25 -14 29 -37 6 -19 -19 -79 -34 -79
-19 0 10 65 70 75 70 7 0 30 -13 52 -29z m473 -1 c0 -17 -37 -85 -54 -99 -14
-12 -16 -9 -16 27 0 32 5 44 28 61 30 23 42 26 42 11z m616 -78 c-19 -37 -39
-86 -45 -108 -6 -22 -17 -48 -25 -59 -14 -18 -15 -15 -16 42 0 74 16 119 37
102 11 -10 13 -6 11 22 -2 26 1 34 17 37 11 2 24 10 28 18 4 8 12 14 18 14 5
0 -6 -31 -25 -68z m625 33 c-7 -27 -101 -113 -124 -115 -18 -1 41 81 66 91 16
7 36 23 44 36 20 30 25 25 14 -12z m-1967 10 c-6 -16 -24 -21 -24 -7 0 11 11
22 21 22 5 0 6 -7 3 -15z m629 -103 c9 -11 7 -17 -8 -28 -35 -26 -45 -18 -45
36 0 31 7 61 18 78 l17 26 3 -49 c2 -27 8 -56 15 -63z m188 63 c21 -7 21 -7
-6 -31 -16 -13 -32 -24 -37 -24 -7 0 -7 33 2 95 1 6 5 0 10 -12 5 -12 19 -24
31 -28z m399 35 c0 -5 -4 -10 -9 -10 -5 0 -23 -12 -40 -26 -24 -20 -31 -22
-31 -10 0 9 9 25 20 36 21 21 60 27 60 10z m-670 -5 c0 -3 -7 -17 -16 -30 -20
-30 -40 -32 -54 -6 -13 26 -13 29 8 34 25 7 62 8 62 2z m-797 -35 c-10 -17
-35 -47 -56 -68 l-39 -37 17 35 c15 29 80 100 93 100 2 0 -5 -14 -15 -30z
m2322 20 c-3 -5 -12 -10 -18 -10 -7 0 -6 4 3 10 19 12 23 12 15 0z m-1144 -32
c-24 -39 -51 -49 -51 -19 0 12 11 27 28 35 41 23 46 19 23 -16z m2224 22 c-3
-5 -10 -10 -16 -10 -5 0 -9 5 -9 10 0 6 7 10 16 10 8 0 12 -4 9 -10z m-585 -5
c0 -9 -91 -57 -97 -51 -8 8 -6 9 42 34 40 21 55 26 55 17z m-2410 -20 c0 -8
-6 -15 -12 -15 -7 0 -23 -3 -35 -6 -17 -5 -23 -2 -23 9 0 9 11 17 28 20 15 2
30 5 35 6 4 0 7 -6 7 -14z m203 -63 l-18 -27 -3 27 c-2 15 5 38 15 52 l18 24
3 -25 c2 -13 -5 -36 -15 -51z m629 5 c-6 -13 -22 3 -22 23 0 10 3 27 7 37 6
14 9 10 13 -17 4 -19 4 -38 2 -43z m248 63 c0 -15 -117 -136 -125 -129 -3 4
-2 24 4 45 9 32 20 44 58 65 55 30 63 33 63 19z m-1234 -22 c28 8 34 8 34 -5
0 -9 -6 -13 -13 -10 -19 7 -25 2 -90 -84 -31 -42 -69 -87 -83 -100 l-26 -24 7
25 c4 14 32 53 61 88 30 35 54 69 54 76 0 28 -16 26 -43 -6 l-28 -33 7 35 c10
53 20 61 56 43 24 -12 38 -13 64 -5z m223 -74 c-12 -14 -14 -14 -20 3 -10 24
-11 78 -2 87 4 4 14 -11 21 -34 11 -33 12 -43 1 -56z m821 86 c0 -5 -4 -10
-10 -10 -5 0 -10 5 -10 10 0 6 5 10 10 10 6 0 10 -4 10 -10z m41 -56 c-12 -21
-21 -45 -21 -52 0 -8 -6 -12 -15 -8 -15 5 -23 -1 -69 -58 -40 -48 -51 -45 -26
7 18 37 139 161 148 152 2 -1 -6 -20 -17 -41z m-966 -16 c-3 -13 -9 -33 -12
-45 -6 -24 -37 -32 -48 -12 -12 18 5 60 28 69 34 14 40 12 32 -12z m610 12
c-3 -5 -10 -10 -16 -10 -5 0 -9 5 -9 10 0 6 7 10 16 10 8 0 12 -4 9 -10z m98
-40 c5 -19 -2 -36 -29 -70 -29 -37 -35 -40 -30 -20 2 14 7 45 11 70 7 51 24
79 35 58 4 -7 10 -24 13 -38z m67 40 c0 -5 -4 -10 -10 -10 -5 0 -10 5 -10 10
0 6 5 10 10 10 6 0 10 -4 10 -10z m-720 -40 c0 -33 -3 -40 -20 -40 -24 0 -24
1 -6 45 19 45 26 44 26 -5z m770 10 c-24 -16 -31 -11 -19 11 8 16 14 18 22 10
9 -9 8 -14 -3 -21z m1390 -9 c-13 -9 -52 -29 -87 -44 -35 -16 -81 -38 -101
-50 -56 -33 -132 -67 -132 -59 0 4 24 30 53 58 45 44 66 55 152 84 55 18 107
36 115 41 25 13 25 -14 0 -30z m-897 -58 c-13 -32 -30 -54 -52 -67 l-33 -19
22 44 c13 24 31 55 41 68 11 13 19 33 20 45 0 21 0 21 11 -1 8 -17 6 -33 -9
-70z m-1839 43 c-9 -15 -19 -24 -22 -22 -2 3 3 17 12 32 10 14 20 23 23 21 2
-3 -3 -17 -13 -31z m240 7 c-7 -28 -122 -178 -130 -170 -3 2 11 35 31 73 35
66 80 124 97 124 5 0 5 -12 2 -27z m582 12 c6 -14 -93 -176 -115 -190 -7 -4
-11 5 -11 22 l0 28 -20 -30 -20 -30 0 38 c0 25 4 37 14 37 15 0 126 115 126
131 0 15 20 10 26 -6z m-422 -126 c-19 -32 -37 -59 -39 -59 -3 0 -5 31 -5 69
0 54 4 74 21 95 l21 27 18 -36 19 -36 -35 -60z m-322 101 c-12 -12 -22 -27
-22 -35 0 -8 -13 -21 -30 -30 -20 -10 -30 -12 -30 -4 0 16 75 89 91 89 8 0 4
-8 -9 -20z m2988 -9 c0 -13 -28 -33 -41 -29 -8 3 -6 9 5 21 19 18 36 22 36 8z
m-1500 -20 c0 -22 -57 -74 -71 -65 -16 10 -10 24 23 55 38 34 48 36 48 10z
m-910 2 c0 -5 -4 -15 -10 -23 -11 -18 -25 -7 -17 15 6 15 27 21 27 8z m480
-93 c-6 -11 -15 -20 -20 -20 -16 0 -11 60 8 92 l17 30 3 -41 c2 -22 -2 -49 -8
-61z m490 56 c0 -25 -4 -47 -9 -50 -10 -6 -21 61 -13 82 10 27 22 9 22 -32z
m-702 19 c1 -1 -11 -26 -28 -56 l-30 -54 0 63 0 62 28 -6 c15 -4 28 -8 30 -9z
m-1008 -8 c0 -7 -18 -26 -39 -43 -37 -27 -38 -29 -18 -35 19 -6 16 -9 -24 -28
-26 -11 -50 -28 -53 -37 -4 -9 -9 -14 -13 -11 -8 9 126 164 145 167 1 0 2 -6
2 -13z m183 -22 c-3 -9 -8 -14 -10 -11 -3 3 -2 9 2 15 9 16 15 13 8 -4z m516
-10 c21 -23 22 -28 11 -55 -14 -33 -27 -38 -36 -15 -7 18 -35 20 -52 3 -16
-16 -23 -7 -29 40 -4 33 -2 41 13 45 43 11 70 6 93 -18z m2121 16 c0 -11 -109
-60 -235 -105 -143 -52 -193 -86 -151 -102 27 -10 191 27 269 62 88 38 97 40
97 19 0 -8 -1 -15 -3 -15 -2 0 -65 -27 -141 -60 -76 -33 -145 -60 -152 -60 -8
0 -47 -15 -87 -34 -184 -86 -297 -122 -297 -93 0 8 14 20 30 27 17 7 34 18 38
24 4 6 25 24 47 40 22 16 72 57 110 91 86 76 78 72 255 133 80 28 161 58 180
66 42 18 40 18 40 7z m-2787 -33 c-13 -12 -25 -19 -28 -16 -8 7 23 38 38 38 6
0 2 -10 -10 -22z m2967 9 c0 -8 -20 -24 -45 -36 -73 -36 -84 -17 -15 27 40 25
60 28 60 9z m-2619 -30 c-4 -21 -19 -45 -43 -66 -22 -19 -35 -38 -31 -47 3 -8
-1 -14 -11 -14 -8 0 -18 -11 -22 -25 -3 -14 -10 -25 -15 -25 -5 0 -9 -7 -9
-15 0 -8 -4 -15 -10 -15 -5 0 -10 4 -10 9 0 9 -33 7 -65 -4 -14 -5 143 162
221 234 0 1 -2 -14 -5 -32z m540 -37 c15 0 10 -27 -7 -34 -9 -3 -18 -6 -20 -6
-7 0 -4 96 4 104 4 4 8 -8 10 -28 2 -20 7 -36 13 -36z m-641 26 c0 -26 -101
-139 -113 -127 -7 7 2 24 29 56 21 26 46 55 54 65 18 23 30 25 30 6z m1230
-26 c0 -52 -21 -79 -34 -44 -8 20 14 85 26 78 4 -3 8 -18 8 -34z m126 -28
c-24 -25 -29 -8 -9 33 l18 38 3 -28 c2 -16 -3 -34 -12 -43z m315 -25 c-13 -13
-15 50 -3 80 5 13 8 5 10 -26 2 -24 -2 -49 -7 -54z m1368 79 c-16 -15 -113
-66 -117 -61 -3 3 -1 9 4 14 16 16 108 61 113 56 2 -3 2 -7 0 -9z m-2757 -57
c10 -6 10 -11 1 -20 -16 -16 -29 -5 -37 32 -8 41 5 62 15 24 5 -15 14 -32 21
-36z m867 -8 c-20 -58 -22 -61 -35 -42 -12 17 -12 24 -2 43 16 28 50 69 55 65
1 -2 -7 -32 -18 -66z m181 60 c0 -17 -12 -41 -20 -41 -11 0 -21 30 -14 41 7
12 34 12 34 0z m301 -120 c-18 -25 -67 -48 -78 -37 -4 3 1 22 10 42 17 35 37
38 37 6 1 -15 2 -15 11 1 6 11 8 34 4 54 -4 22 -2 40 7 50 11 14 14 8 20 -38
6 -44 4 -59 -11 -78z m-1870 96 c-10 -9 -11 -8 -5 6 3 10 9 15 12 12 3 -3 0
-11 -7 -18z m114 -24 c-4 -20 -18 -50 -31 -66 -14 -17 -22 -37 -19 -45 5 -14
-15 -45 -65 -102 -19 -22 -21 -34 -18 -92 4 -71 0 -78 -39 -70 -19 4 -22 9
-17 26 4 11 11 23 15 24 5 2 9 11 9 20 0 23 76 204 111 265 52 88 65 98 54 40z
m1700 16 c-3 -8 -19 -22 -35 -31 -35 -20 -41 -43 -9 -33 18 6 20 5 10 -14 -7
-12 -9 -21 -6 -21 3 0 1 -9 -5 -20 -15 -28 -25 -25 -40 9 -19 47 9 100 63 120
26 10 29 9 22 -10z m-1465 -9 c0 -5 -5 -10 -11 -10 -5 0 -7 5 -4 10 3 6 8 10
11 10 2 0 4 -4 4 -10z m-417 -22 c-13 -12 -25 -19 -29 -15 -10 10 16 37 34 37
13 0 12 -4 -5 -22z m896 3 c11 -7 6 -12 -20 -19 -40 -11 -46 -8 -29 13 14 17
29 19 49 6z m-163 -76 c-3 -11 -15 -25 -28 -30 -18 -8 -22 -17 -20 -38 4 -33
-26 -117 -41 -117 -6 0 -19 7 -29 17 -28 25 -23 76 10 115 16 18 44 55 62 81
l34 49 8 -29 c5 -15 6 -37 4 -48z m-799 8 c-4 -3 -13 0 -22 7 -12 10 -13 16
-3 27 11 13 14 12 22 -6 5 -12 6 -24 3 -28z m493 36 c0 -23 -22 -49 -40 -49
-25 0 -27 35 -2 49 22 14 42 14 42 0z m528 -19 c-17 -27 -4 -35 32 -20 17 7
33 10 37 7 5 -6 -103 -147 -113 -147 -4 0 0 119 5 162 1 6 20 13 44 17 4 0 2
-8 -5 -19z m-933 -77 c-15 -43 -38 -106 -51 -141 -13 -34 -23 -63 -23 -65 1
-9 -17 -43 -25 -49 -25 -17 -25 -5 0 43 14 28 23 54 20 57 -3 3 -6 0 -6 -6 0
-7 -4 -12 -10 -12 -15 0 -12 26 4 39 8 7 24 44 36 84 20 67 65 145 77 133 3
-3 -7 -40 -22 -83z m1465 78 c0 -5 -7 -11 -14 -14 -10 -4 -13 -1 -9 9 6 15 23
19 23 5z m1616 -18 c-10 -10 -19 5 -10 18 6 11 8 11 12 0 2 -7 1 -15 -2 -18z
m-2494 -5 c-7 -7 -12 -8 -12 -2 0 14 12 26 19 19 2 -3 -1 -11 -7 -17z m246 5
c-45 -94 -68 -114 -68 -58 0 24 7 39 22 49 23 17 52 22 46 9z m-953 -24 c6 -9
-34 -39 -52 -39 -16 0 -17 32 -2 47 11 11 46 6 54 -8z m584 -23 c1 -4 -6 -5
-14 -2 -9 3 -18 -1 -21 -9 -7 -16 -24 -21 -24 -6 0 4 10 21 22 36 20 26 22 26
29 9 4 -10 8 -23 8 -28z m2514 6 c-4 -18 -101 -67 -111 -57 -13 12 19 53 49
62 53 17 68 16 62 -5z m-2633 -21 c-5 -11 -15 -23 -20 -26 -14 -9 -12 19 2 33
19 19 30 14 18 -7z m2440 9 c0 -5 -16 -17 -35 -26 -37 -17 -62 -43 -31 -31 10
4 29 10 43 13 22 6 24 4 21 -20 -3 -23 -13 -32 -73 -57 -38 -16 -111 -50 -161
-74 -96 -48 -114 -53 -114 -32 0 8 -3 7 -10 -3 -5 -8 -17 -16 -27 -17 -10 -1
-34 -4 -53 -8 -46 -10 -29 8 25 25 52 17 134 59 116 60 -50 1 -260 -52 -311
-77 -34 -17 -40 -16 -40 7 0 13 10 24 28 31 111 44 167 64 237 85 148 45 230
73 300 102 80 34 85 35 85 22z m-2430 -31 c-7 -11 -14 -18 -17 -15 -3 3 0 12
7 21 18 21 23 19 10 -6z m-604 -7 c16 -25 -48 -96 -101 -111 -21 -6 -40 -9
-42 -7 -9 8 66 76 83 76 11 0 26 5 34 10 13 8 13 11 1 19 -7 5 -10 14 -7 20
10 16 20 14 32 -7z m158 -9 c-7 -26 -79 -102 -97 -103 -5 0 -7 17 -5 37 3 34
8 41 53 65 28 15 51 27 53 27 1 1 -1 -11 -4 -26z m304 -5 c-11 -16 -27 -23
-56 -25 -56 -4 -53 10 6 29 64 22 67 21 50 -4z m614 -100 c-14 -16 -29 -28
-34 -28 -12 0 2 61 25 108 l22 43 6 -48 c6 -42 3 -51 -19 -75z m-452 92 c0 -5
-5 -10 -11 -10 -5 0 -7 5 -4 10 3 6 8 10 11 10 2 0 4 -4 4 -10z m3150 0 c0 -5
-5 -10 -11 -10 -5 0 -7 5 -4 10 3 6 8 10 11 10 2 0 4 -4 4 -10z m-2780 -25 c0
-8 -4 -15 -10 -15 -5 0 -10 7 -10 15 0 8 5 15 10 15 6 0 10 -7 10 -15z m-746
-19 c-3 -9 -10 -16 -15 -16 -5 0 -4 9 3 20 14 22 21 20 12 -4z m496 14 c0 -15
-31 -60 -41 -60 -16 0 -9 49 9 59 22 13 32 14 32 1z m-361 -69 c-18 -28 -34
-51 -36 -51 -2 0 -3 20 -3 44 0 40 2 44 33 53 17 5 34 8 36 7 2 -2 -12 -26
-30 -53z m2831 3 c-50 -89 -236 -324 -256 -324 -6 0 -21 8 -33 18 l-21 17 30
35 c16 19 35 42 42 50 7 8 32 40 55 72 24 32 47 58 52 58 5 0 14 -12 20 -27
10 -25 11 -24 7 18 -5 63 12 88 75 115 30 13 56 23 57 24 2 0 -10 -25 -28 -56z
m-2580 21 c0 -15 -13 -27 -45 -43 -25 -12 -50 -22 -55 -22 -6 0 -10 19 -10 43
l0 42 55 1 c49 0 55 -2 55 -21z m-626 -86 c-25 -28 -34 -23 -34 18 0 24 8 45
23 61 l22 24 3 -42 c2 -29 -2 -48 -14 -61z m926 91 c0 -5 -5 -10 -11 -10 -5 0
-7 5 -4 10 3 6 8 10 11 10 2 0 4 -4 4 -10z m-716 -59 c-9 -28 -20 -49 -24 -46
-5 3 1 27 13 55 26 63 33 58 11 -9z m261 9 c0 -27 -3 -50 -7 -50 -5 0 -8 23
-8 50 0 28 3 50 8 50 4 0 7 -22 7 -50z m307 10 c-3 -24 -9 -30 -29 -30 l-25 0
24 29 c29 38 36 38 30 1z m483 3 c-4 -10 -8 -30 -10 -46 -4 -53 -217 -239
-359 -314 -34 -17 -62 -30 -64 -28 -2 2 2 14 9 27 7 12 14 28 15 34 2 11 15
35 49 90 11 18 34 37 54 44 51 18 138 85 156 120 12 23 24 31 56 36 27 5 46
15 56 30 18 28 49 33 38 7z m-276 -30 c-2 -38 -34 -87 -50 -77 -21 13 -3 88
25 106 21 14 27 8 25 -29z m157 18 c-4 -5 -21 -20 -38 -32 l-31 -22 18 27 c17
26 46 48 53 41 2 -2 1 -8 -2 -14z m1154 10 c0 -12 -20 -25 -27 -18 -7 7 6 27
18 27 5 0 9 -4 9 -9z m-1873 -41 c0 -35 -3 -40 -23 -40 -36 0 -39 19 -8 51 15
16 29 29 30 29 0 0 1 -18 1 -40z m1099 16 c-3 -12 -3 -25 0 -28 8 -8 71 16 93
36 20 18 41 15 41 -7 0 -7 -46 -53 -102 -102 -56 -50 -123 -110 -149 -133 -26
-24 -65 -53 -86 -64 -21 -11 -43 -26 -49 -34 -6 -8 -15 -14 -20 -14 -5 0 -27
-16 -49 -35 -22 -19 -45 -35 -52 -35 -7 0 -13 -4 -13 -10 0 -5 -16 -17 -35
-26 -19 -9 -35 -20 -35 -25 0 -5 -7 -9 -15 -9 -9 0 -27 -11 -41 -25 -14 -14
-39 -32 -57 -40 -37 -18 -47 -24 -141 -83 -37 -24 -70 -41 -72 -39 -7 6 75
107 92 114 8 3 14 9 14 14 0 12 38 49 50 49 6 0 10 5 10 12 0 6 3 8 7 5 3 -4
16 5 29 18 13 14 27 25 31 24 21 -4 33 3 33 17 0 10 6 14 15 10 8 -3 14 0 12
7 -1 7 4 11 11 9 6 -1 11 4 10 10 -2 7 5 12 14 12 9 -1 19 5 22 13 4 9 2 11
-6 7 -6 -4 -8 -3 -5 3 4 6 20 13 37 16 21 5 30 12 30 27 0 12 7 20 18 20 20 1
52 23 52 38 0 5 10 12 23 16 12 3 31 13 43 23 11 10 49 43 84 73 112 95 122
104 136 133 18 33 28 35 20 3z m-1670 -23 c-8 -16 -21 -37 -30 -48 -15 -19
-15 -18 -16 17 0 36 17 57 48 58 10 0 9 -6 -2 -27z m1554 15 c0 -16 -191 -201
-231 -225 -16 -10 -29 -23 -29 -30 0 -7 -5 -13 -11 -13 -6 0 -41 -26 -79 -57
-37 -32 -76 -64 -86 -70 -10 -7 -41 -27 -69 -45 -27 -18 -52 -35 -55 -38 -10
-12 -124 -80 -127 -76 -3 2 14 41 37 86 40 79 42 81 70 75 17 -4 30 -2 30 3 0
5 12 12 28 15 26 5 69 36 118 85 13 12 33 22 46 22 19 0 20 2 8 10 -12 8 -10
10 11 10 18 0 60 32 153 116 70 64 130 122 133 130 6 17 53 19 53 2z m1510
-88 c-74 -81 -100 -102 -100 -84 0 3 30 42 68 86 59 71 98 103 111 92 2 -2
-34 -44 -79 -94z m-2260 84 c0 -11 -63 -79 -74 -79 -5 0 -14 -13 -19 -30 -12
-35 -45 -85 -57 -85 -16 0 -20 56 -7 95 12 35 23 44 78 72 67 33 79 37 79 27z
m1318 -21 c0 -37 -46 -87 -65 -72 -10 9 -13 5 -13 -19 0 -17 -6 -32 -15 -36
-9 -3 -15 0 -15 10 0 8 -4 12 -10 9 -5 -3 -10 -14 -10 -25 0 -15 -273 -300
-288 -300 -2 0 -2 9 1 20 8 31 -14 12 -95 -82 -17 -19 -58 -38 -158 -71 -118
-39 -230 -65 -230 -53 0 2 57 34 128 71 140 74 255 149 348 228 34 29 90 75
125 104 35 29 76 63 90 75 55 48 198 164 205 167 1 1 2 -11 2 -26z m-2056 -25
c-8 -56 -42 -81 -42 -31 0 24 24 63 40 63 4 0 5 -15 2 -32z m1901 11 c3 -13
-9 -29 -43 -56 -26 -21 -85 -70 -131 -109 -46 -38 -94 -77 -107 -86 -12 -8
-39 -31 -60 -50 -51 -47 -192 -142 -231 -156 -17 -6 -46 -21 -62 -33 -17 -12
-86 -50 -154 -84 -68 -35 -134 -70 -147 -79 -12 -9 -30 -16 -38 -16 -9 0 -35
-9 -58 -20 -42 -20 -92 -27 -92 -12 0 9 69 42 87 42 6 0 16 7 23 15 7 9 29 23
49 32 20 10 45 25 55 35 11 10 26 18 33 18 7 0 13 3 13 8 0 4 21 18 48 32 74
38 151 93 158 113 3 9 10 17 16 17 6 0 42 21 80 48 38 26 77 52 87 57 24 15
84 57 101 72 48 41 208 173 241 198 48 37 124 45 132 14z m-933 -26 c0 -26 -4
-33 -19 -33 -11 0 -21 -4 -23 -9 -3 -8 -120 -138 -200 -223 -35 -36 -108 -133
-108 -142 0 -4 -21 -29 -47 -55 -27 -27 -83 -85 -126 -130 -111 -116 -203
-174 -345 -221 -114 -38 -148 -44 -100 -19 33 17 141 113 217 193 37 37 134
128 216 201 233 206 449 421 442 439 -9 23 -20 20 -70 -18 -32 -24 -48 -31
-55 -24 -8 8 -5 19 9 37 22 28 64 38 156 37 53 -1 53 -1 53 -33z m2130 23 c0
-2 -8 -10 -17 -17 -16 -13 -17 -12 -4 4 13 16 21 21 21 13z m-760 -16 c0 -24
-42 -140 -51 -140 -5 0 -9 -17 -9 -38 0 -33 -29 -96 -30 -65 0 23 39 178 55
216 14 34 35 50 35 27z m580 6 c0 -3 -4 -8 -10 -11 -5 -3 -10 -1 -10 4 0 6 5
11 10 11 6 0 10 -2 10 -4z m-516 -40 c-3 -14 -10 -26 -15 -26 -12 0 -11 4 3
35 14 31 21 26 12 -9z m-1926 7 c28 -3 50 -9 46 -14 -3 -5 -13 -9 -23 -9 -9 0
-37 -20 -61 -45 -24 -25 -47 -42 -51 -37 -4 4 -12 24 -18 44 -16 49 0 84 32
73 12 -4 46 -10 75 -12z m2372 -3 c-6 -11 -15 -20 -20 -20 -16 0 -11 18 8 29
24 14 24 14 12 -9z m-2540 2 c0 -17 -39 -44 -55 -39 -28 11 -15 33 18 28 4 0
7 4 7 9 0 6 7 10 15 10 8 0 15 -4 15 -8z m2753 -4 c-5 -7 -31 -41 -57 -76 -34
-44 -52 -60 -59 -53 -7 7 2 23 28 53 50 56 118 114 88 76z m547 -32 c-14 -14
-22 -2 -14 18 5 14 9 15 15 4 4 -7 4 -17 -1 -22z m-2591 -2 c-6 -8 -18 -14
-26 -14 -11 0 -11 4 -3 20 6 11 16 17 25 13 12 -4 13 -9 4 -19z m-1109 1 c0
-8 -4 -15 -10 -15 -5 0 -10 7 -10 15 0 8 5 15 10 15 6 0 10 -7 10 -15z m310 5
c0 -5 -10 -10 -22 -10 -19 0 -20 2 -8 10 19 13 30 13 30 0z m2499 -17 c-55
-75 -134 -162 -142 -154 -6 6 20 42 69 95 43 47 80 83 82 81 2 -2 -2 -12 -9
-22z m-1999 -7 c0 -8 -4 -17 -9 -21 -12 -7 -24 12 -16 25 9 15 25 12 25 -4z
m1877 -53 c-54 -53 -58 -55 -76 -39 -17 16 -18 15 -14 -9 7 -36 -14 -31 -22 5
-4 17 -11 28 -16 24 -16 -10 -9 13 9 29 18 17 162 58 172 50 2 -2 -21 -29 -53
-60z m-2390 21 c10 -27 -66 -148 -83 -132 -4 5 -2 39 5 78 12 68 14 70 42 70
18 0 32 -6 36 -16z m131 -26 c11 -54 7 -65 -29 -83 -39 -21 -39 -20 -39 29 0
42 28 96 50 96 5 0 13 -19 18 -42z m2447 32 c11 -17 -97 -190 -118 -190 -7 0
-21 7 -31 15 -18 14 -15 19 54 100 72 85 83 94 95 75z m-2826 -17 c-19 -25
-100 -122 -127 -154 -12 -14 -29 -34 -37 -45 -8 -11 -15 -14 -15 -6 -1 38 -92
-31 -185 -141 -16 -19 -33 -33 -37 -31 -5 3 -8 1 -8 -3 0 -13 -57 -73 -69 -73
-6 0 -11 -4 -11 -10 0 -20 -111 -132 -305 -309 -77 -71 -203 -188 -281 -262
-107 -102 -162 -147 -230 -185 -49 -28 -96 -54 -104 -58 -8 -3 -35 -18 -60
-31 l-44 -26 29 32 c17 17 43 40 60 50 41 26 244 193 239 198 -2 2 -47 -32
-101 -75 -132 -107 -130 -106 -171 -111 -46 -6 -104 -44 -148 -99 -38 -46 -41
-56 -19 -74 12 -10 22 -10 43 -1 25 10 26 10 8 -4 -11 -8 -28 -15 -38 -15 -9
0 -32 -6 -50 -14 -18 -8 -49 -21 -70 -30 -20 -9 -42 -16 -50 -16 -10 0 -10 -2
2 -10 18 -11 15 -14 -30 -28 -35 -12 -35 -12 -12 6 17 13 20 20 11 29 -8 8 -5
17 12 34 16 16 21 17 16 6 -7 -20 8 -23 19 -5 13 21 12 46 -3 41 -37 -14 7 25
128 113 16 11 25 25 21 29 -4 5 -1 5 5 1 17 -9 53 11 53 29 0 8 3 14 8 14 26
-4 46 7 101 56 34 30 66 55 71 55 6 0 18 8 28 18 10 9 50 38 89 65 40 26 74
56 78 66 3 11 16 22 28 25 12 3 38 20 57 37 19 17 29 28 23 25 -20 -11 -15 -1
9 20 19 15 20 16 9 2 -22 -29 -1 -21 46 18 24 19 41 39 38 44 -3 5 -1 11 5 15
5 3 10 1 10 -5 0 -6 20 3 45 21 55 39 58 49 8 19 -45 -26 -38 -18 39 44 57 45
75 56 63 36 -3 -5 -1 -10 4 -10 6 0 11 9 11 20 0 12 5 17 13 14 13 -5 178 132
174 144 -1 4 2 9 7 12 5 3 45 40 89 83 44 42 84 77 89 77 4 0 8 7 8 15 0 9 8
19 18 22 9 4 24 14 32 23 8 9 35 32 60 51 25 20 90 81 144 137 88 90 104 102
134 102 31 0 33 -2 21 -17z m588 -40 c12 -13 34 -23 48 -23 37 0 31 -14 -24
-61 -28 -22 -60 -56 -73 -75 -13 -19 -28 -34 -34 -34 -7 0 -14 -7 -18 -15 -3
-9 -14 -19 -25 -23 -51 -19 -265 -228 -256 -251 3 -8 0 -11 -8 -8 -8 3 -21 -2
-29 -11 -38 -43 -127 -122 -138 -122 -6 0 -36 -19 -66 -41 -30 -23 -58 -39
-61 -35 -12 11 27 73 62 98 17 13 79 75 137 138 57 63 169 176 247 250 139
131 171 170 171 207 0 13 -3 14 -12 5 -7 -7 -16 -12 -22 -12 -5 0 6 16 25 36
31 32 35 34 44 18 6 -10 20 -28 32 -41z m389 -9 c-63 -61 -90 -106 -81 -134 8
-24 -4 -48 -15 -31 -9 15 -50 -37 -81 -103 -13 -25 -31 -48 -41 -52 -9 -3 -43
-31 -75 -62 -32 -32 -76 -71 -98 -87 -22 -16 -80 -63 -130 -105 -91 -77 -291
-212 -333 -224 -14 -5 -27 -2 -38 8 -26 26 -101 21 -141 -10 -61 -47 -182 -41
-191 10 -7 34 15 42 48 17 39 -28 73 -29 130 -3 93 42 309 122 330 122 17 0
143 89 210 147 70 62 193 200 292 328 92 119 223 244 249 238 18 -5 14 -12
-35 -59z m1444 52 c0 -15 -18 -31 -26 -23 -7 7 7 37 17 37 5 0 9 -6 9 -14z
m-1725 -15 c-3 -6 -14 -11 -23 -11 -13 0 -13 2 4 14 21 15 30 14 19 -3z m1493
-79 c8 -2 12 7 12 29 0 18 3 29 7 25 4 -4 6 -44 4 -89 -2 -64 -7 -89 -24 -114
-12 -18 -25 -29 -28 -25 -4 4 -19 46 -34 94 l-27 86 33 49 34 48 5 -49 c3 -27
11 -51 18 -54z m1252 9 c-11 -21 -98 -86 -105 -79 -3 2 21 32 53 67 37 41 58
57 60 47 2 -8 -2 -24 -8 -35z m-550 27 c-1 -21 -89 -108 -104 -102 -9 3 3 22
38 59 53 55 66 64 66 43z m396 -51 c-14 -19 -26 -39 -26 -45 0 -7 -4 -12 -10
-12 -22 0 -8 43 22 70 41 38 48 31 14 -13z m37 -31 c-21 -31 -46 -55 -55 -56
-10 0 -18 2 -18 5 0 8 104 114 108 110 2 -2 -13 -28 -35 -59z m-378 44 c6 -10
-13 -50 -39 -83 -13 -16 -17 -17 -40 -5 l-26 14 41 42 c44 44 54 49 64 32z
m-2679 -47 c-24 -14 -96 -17 -96 -4 0 5 8 7 18 4 10 -2 27 6 41 21 21 23 24
23 40 8 16 -16 16 -18 -3 -29z m3378 32 c-4 -8 -8 -15 -10 -15 -2 0 -4 7 -4
15 0 8 4 15 10 15 5 0 7 -7 4 -15z m-3541 -31 c4 -21 -9 -41 -80 -117 -46 -51
-101 -108 -122 -127 -65 -60 -186 -195 -244 -272 -64 -85 -255 -274 -309 -307
-21 -12 -38 -28 -38 -34 0 -7 -17 -20 -38 -29 -20 -10 -70 -43 -111 -74 -41
-32 -102 -73 -135 -92 -132 -76 -220 -122 -229 -119 -10 3 130 97 175 118 15
6 35 23 43 36 9 12 22 23 30 23 8 0 18 6 22 13 4 7 28 25 53 41 112 73 219
165 413 358 116 115 213 208 217 208 10 0 247 287 305 371 25 36 41 37 48 3z
m2295 -51 c-2 -45 -7 -77 -13 -76 -17 3 -29 100 -17 128 22 48 33 28 30 -52z
m-2039 20 c-29 -27 -64 -61 -78 -77 -15 -16 -32 -34 -39 -40 -49 -40 -75 -75
-68 -91 3 -9 0 -12 -8 -9 -8 3 -39 -19 -70 -50 -35 -34 -51 -56 -44 -59 9 -4
8 -6 -3 -6 -8 -1 -37 -25 -63 -53 -26 -29 -64 -63 -85 -75 -20 -13 -30 -23
-22 -23 8 0 12 -2 9 -5 -3 -4 -17 -3 -32 1 -44 11 -32 39 28 68 31 15 66 42
82 64 15 20 87 98 159 172 73 74 136 142 141 150 8 14 117 76 138 79 4 0 -16
-20 -45 -46z m2631 37 c0 -9 -31 -30 -44 -30 -4 0 -1 9 6 20 13 21 38 27 38
10z m197 -7 c-9 -9 -20 -13 -24 -9 -4 4 -1 11 7 16 25 16 35 11 17 -7z m-1112
-121 c9 -46 14 -90 11 -98 -3 -8 0 -14 7 -14 11 0 77 -114 77 -133 0 -4 -27
-7 -59 -7 -71 0 -67 -11 -77 196 -9 196 8 219 41 56z m695 63 c-9 -11 -16 -13
-23 -6 -7 7 -6 15 3 26 9 11 16 13 23 6 7 -7 6 -15 -3 -26z m774 4 c-10 -16
-24 -9 -24 12 0 18 2 19 15 9 8 -7 12 -16 9 -21z m-3643 -18 c-11 -11 -27 -34
-36 -50 -14 -29 -55 -61 -55 -44 0 8 41 61 85 111 11 12 21 18 23 13 2 -5 -6
-19 -17 -30z m2626 7 c9 -22 -3 -61 -31 -96 -8 -11 -11 -10 -17 5 -4 10 -8 29
-8 43 1 14 3 19 6 12 8 -21 23 -3 23 29 0 34 13 38 27 7z m176 -31 c17 -6 25
-27 10 -27 -11 1 -56 41 -73 65 -10 14 -5 12 15 -6 17 -14 38 -29 48 -32z
m-2500 29 c-4 -7 -60 -68 -123 -134 -63 -65 -137 -147 -165 -181 -48 -58 -82
-81 -68 -44 5 13 2 15 -11 10 -25 -10 -15 3 89 111 51 53 123 132 161 175 55
61 75 77 97 77 21 0 26 -3 20 -14z m2131 -94 c9 -40 28 -98 41 -129 30 -66 30
-63 6 -63 -21 0 -81 122 -101 208 -11 48 -10 55 6 73 18 20 19 20 25 2 4 -10
14 -51 23 -91z m510 102 c13 -5 14 -9 5 -20 -9 -11 -8 -14 5 -14 9 0 16 -4 16
-10 0 -13 -23 -13 -55 2 -28 13 -30 19 -13 36 14 14 20 15 42 6z m146 -4 c0
-5 -8 -10 -17 -10 -15 0 -16 2 -3 10 19 12 20 12 20 0z m135 -30 c27 -28 27
-30 8 -30 -39 0 -73 19 -73 40 0 30 31 25 65 -10z m318 -25 c-25 -20 -33 -18
-33 5 0 25 43 46 48 23 2 -8 -5 -21 -15 -28z m-509 22 c16 -12 16 -14 -2 -30
-24 -22 -52 -12 -52 19 0 27 25 32 54 11z m-359 -64 c3 -21 17 -62 31 -92 13
-30 23 -55 22 -57 -2 -1 -15 -5 -29 -9 -22 -5 -31 -1 -55 32 -58 76 -58 79
-24 124 18 21 35 39 40 39 4 0 11 -17 15 -37z m265 -28 c0 -21 -15 -19 -60 11
-60 40 -53 61 10 29 28 -14 50 -32 50 -40z m150 41 c0 -19 -4 -23 -20 -19 -23
6 -25 14 -8 31 18 18 28 14 28 -12z m370 0 c0 -29 -24 -40 -53 -25 -20 11 -19
12 14 30 19 10 35 18 37 19 1 0 2 -11 2 -24z m-1410 -90 c0 -57 3 -111 6 -120
5 -13 -1 -16 -25 -16 l-31 0 0 102 c0 80 3 105 17 120 9 10 20 18 25 18 4 0 8
-47 8 -104z m276 77 c8 -33 49 -117 75 -155 26 -36 24 -48 -10 -48 -36 0 -45
11 -86 111 -32 77 -34 84 -18 101 22 25 31 23 39 -9z m874 17 c0 -5 -7 -10
-15 -10 -8 0 -15 5 -15 10 0 6 7 10 15 10 8 0 15 -4 15 -10z m-671 -52 c7 -21
9 -43 6 -48 -4 -6 -3 -9 2 -8 5 2 26 -14 47 -36 42 -41 38 -56 -16 -56 -32 0
-40 12 -62 103 -25 99 -7 133 23 45z m-2330 -15 c-7 -10 -24 -29 -37 -43 -12
-14 -45 -49 -73 -79 -27 -30 -47 -48 -44 -39 4 9 41 52 83 97 72 77 101 102
71 64z m2596 -25 c25 -17 45 -35 45 -39 0 -7 -35 -19 -58 -19 -12 0 -42 57
-42 80 0 15 5 13 55 -22z m191 5 c-10 -10 -19 5 -10 18 6 11 8 11 12 0 2 -7 1
-15 -2 -18z m304 -2 c0 -12 -14 -23 -43 -35 -54 -20 -57 -20 -57 3 0 12 13 24
38 34 50 21 62 20 62 -2z m-2822 -11 c-13 -20 -28 -27 -28 -12 0 10 22 32 32
32 5 0 3 -9 -4 -20z m1436 -59 c-5 -52 -11 -71 -21 -71 -11 0 -13 8 -9 28 3
15 8 45 12 67 14 87 27 71 18 -24z m-971 23 l28 -7 -40 -24 c-23 -13 -41 -31
-41 -39 0 -20 -49 -64 -71 -64 -11 0 -19 4 -19 9 0 15 29 78 57 125 27 44 29
45 43 27 8 -11 28 -23 43 -27z m-709 -38 c-16 -19 -35 -37 -43 -40 -11 -5 -12
-4 -1 9 7 8 9 15 4 15 -4 0 7 13 26 30 43 38 51 31 14 -14z m2876 24 c0 -5 -4
-10 -10 -10 -5 0 -10 5 -10 10 0 6 5 10 10 10 6 0 10 -4 10 -10z m-2708 -22
c-7 -7 -12 -8 -12 -2 0 14 12 26 19 19 2 -3 -1 -11 -7 -17z m1178 8 c0 -3 -4
-8 -10 -11 -5 -3 -10 -1 -10 4 0 6 5 11 10 11 6 0 10 -2 10 -4z m225 -35 c-7
-24 -35 -29 -35 -6 0 13 31 38 38 30 2 -2 1 -13 -3 -24z m-1425 5 c0 -2 -8
-10 -17 -17 -16 -13 -17 -12 -4 4 13 16 21 21 21 13z m2513 -36 c-6 -24 -42
-37 -54 -19 -11 19 2 29 53 38 3 0 4 -8 1 -19z m-94 -24 c7 -8 8 -16 4 -19
-13 -8 -224 -47 -268 -50 -34 -2 -40 1 -40 18 0 17 9 21 65 27 36 4 94 14 130
22 85 18 95 19 109 2z m-1566 -33 c-4 -25 -16 -47 -35 -63 -28 -24 -30 -32
-41 -137 -9 -89 -8 -123 2 -163 16 -61 48 -130 61 -130 6 0 10 -9 10 -21 0
-15 -4 -19 -16 -15 -13 5 -15 1 -10 -18 3 -14 2 -27 -3 -31 -6 -3 -10 -50 -10
-104 0 -54 -4 -109 -9 -122 -5 -13 -7 -41 -4 -63 3 -24 1 -36 -5 -33 -6 4 -20
58 -33 122 -12 63 -26 115 -31 115 -19 0 -31 -77 -26 -169 3 -65 2 -83 -3 -56
-5 22 -12 84 -16 138 -8 107 -13 120 -16 36 -1 -30 -3 -46 -6 -36 -6 29 -19
19 -27 -20 -4 -21 -11 -43 -17 -50 -13 -16 -12 -153 3 -233 23 -132 91 -311
137 -363 11 -13 13 -20 5 -28 -15 -15 -60 75 -156 316 -165 415 -173 440 -157
460 18 22 28 19 49 -16 23 -37 27 -32 36 46 4 33 16 94 27 135 10 41 19 104
19 139 0 37 11 107 25 159 13 52 24 104 25 116 0 12 3 15 6 8 3 -8 -3 -71 -12
-142 -18 -126 -18 -129 3 -203 20 -75 51 -137 53 -107 8 123 20 203 52 367 16
84 21 125 14 132 -6 6 -9 13 -6 15 3 3 72 36 116 55 1 1 -1 -16 -4 -36z m552
-75 c2 -114 25 -186 65 -208 35 -19 44 0 31 60 -6 28 -11 92 -11 141 0 88 1
90 22 87 20 -3 25 -14 39 -81 18 -89 40 -118 90 -120 38 -2 38 -3 15 88 -23
91 -22 95 22 95 26 0 41 -6 50 -20 13 -21 106 -73 115 -64 3 3 -6 22 -20 42
l-25 37 99 5 c127 6 145 3 141 -24 -2 -11 -9 -20 -16 -18 -6 1 -12 -5 -12 -13
0 -11 -12 -15 -47 -15 -46 0 -113 -18 -113 -31 0 -3 -18 -4 -39 -2 -22 3 -48
0 -58 -6 -14 -8 -6 -10 40 -11 56 0 58 -1 51 -22 -4 -13 -10 -25 -15 -28 -4
-3 -11 -25 -15 -48 -6 -40 -8 -42 -40 -42 -28 0 -34 5 -45 35 -7 19 -15 35
-19 35 -3 0 -13 -20 -23 -45 -17 -41 -22 -45 -55 -46 -243 -8 -277 -8 -284 4
-12 19 -9 92 8 196 16 94 30 138 41 127 3 -3 6 -52 8 -108z m-1645 89 c0 -2
-14 -16 -32 -33 -30 -28 -30 -17 0 19 13 15 32 23 32 14z m2980 -6 c0 -12 -20
-25 -27 -18 -7 7 6 27 18 27 5 0 9 -4 9 -9z m-3210 -36 c-7 -9 -15 -13 -17
-11 -7 7 7 26 19 26 6 0 6 -6 -2 -15z m1055 -11 c-73 -28 -78 -28 -118 -7
l-32 17 30 6 c17 3 64 6 105 6 l75 1 -60 -23z m2022 -6 c-3 -8 -6 -5 -6 6 -1
11 2 17 5 13 3 -3 4 -12 1 -19z m-3097 -22 c0 -8 7 -22 16 -30 14 -15 14 -17
0 -32 -9 -8 -16 -19 -16 -23 0 -5 -44 -41 -97 -82 -108 -81 -241 -197 -375
-325 -98 -93 -191 -159 -318 -224 -47 -24 -105 -55 -130 -70 -64 -37 -356
-179 -404 -197 -23 -7 -57 -16 -77 -18 -20 -3 -56 -12 -79 -20 -110 -39 -230
-53 -230 -27 0 4 46 17 103 30 56 12 125 27 152 34 55 12 122 43 235 110 41
25 93 53 115 63 57 27 223 117 345 189 101 59 158 98 373 258 106 78 256 226
325 321 42 56 62 70 62 43z m2990 -6 c0 -22 -52 -42 -175 -66 -143 -29 -154
-29 -164 -3 -5 13 -7 27 -5 30 2 4 32 10 66 14 35 4 104 15 153 25 120 24 125
24 125 0z m-2845 0 c-3 -5 -12 -10 -18 -10 -7 0 -6 4 3 10 19 12 23 12 15 0z
m180 0 c-3 -5 -10 -10 -16 -10 -5 0 -9 5 -9 10 0 6 7 10 16 10 8 0 12 -4 9
-10z m-215 -50 c0 -5 -6 -10 -13 -10 -7 0 -23 -9 -35 -20 l-22 -21 0 24 c0 13
3 27 7 30 10 11 63 8 63 -3z m110 -15 c-7 -8 -18 -15 -24 -15 -6 0 -2 7 8 15
25 19 32 19 16 0z m2276 -22 c1 -18 -2 -30 -7 -27 -5 3 -9 -7 -9 -23 0 -33
-13 -57 -29 -52 -6 2 -24 32 -40 66 -33 69 -33 70 44 69 37 -1 39 -3 41 -33z
m-118 -11 c2 -18 -1 -32 -7 -32 -6 0 -11 9 -11 19 0 11 -3 27 -7 37 -4 12 -2
15 8 12 8 -2 15 -19 17 -36z m-690 -42 c27 -58 72 -110 72 -82 0 9 8 1 18 -18
13 -28 24 -36 50 -38 27 -3 32 0 32 19 0 20 3 21 53 14 28 -4 90 -9 135 -10
96 -2 106 -9 97 -70 -19 -137 -18 -184 5 -255 12 -39 20 -73 18 -76 -5 -4 -76
167 -94 226 -7 23 -8 22 -17 -15 -18 -83 -18 -114 -3 -191 8 -43 18 -89 22
-101 4 -16 2 -23 -8 -23 -19 0 -88 179 -129 333 l-12 49 -15 -34 c-30 -69 -33
-150 -6 -253 5 -20 5 -20 -10 -1 -9 11 -28 57 -43 104 l-28 83 -11 -63 c-12
-65 -12 -105 1 -198 4 -34 3 -51 -2 -45 -17 18 -86 178 -129 300 -24 66 -44
116 -44 110 -8 -57 -10 -77 -14 -122 -3 -29 2 -79 11 -115 8 -35 17 -74 19
-88 2 -14 17 -63 34 -110 18 -47 35 -96 40 -110 4 -14 17 -44 29 -67 25 -50
26 -63 6 -63 -22 0 -40 34 -94 171 -44 110 -69 186 -139 419 -18 58 -20 61
-21 30 -3 -69 -22 -3 -27 93 l-5 92 30 -60 c17 -33 31 -65 31 -73 0 -7 5 -10
11 -7 6 4 13 -2 16 -14 10 -39 20 -21 13 22 -5 23 -11 80 -14 127 l-7 85 24
-55 c29 -69 56 -118 57 -105 0 6 8 0 18 -13 17 -22 18 -21 10 65 -4 48 -10
109 -12 136 -3 26 -2 47 2 47 4 0 17 -23 30 -50z m1019 34 c-3 -3 -12 -4 -19
-1 -8 3 -5 6 6 6 11 1 17 -2 13 -5z m-3558 -6 c-2 -2 -17 -14 -34 -28 l-30
-25 24 28 c14 15 29 27 34 27 6 0 8 -1 6 -2z m4091 -10 c0 -7 -5 -20 -10 -28
-8 -12 -10 -9 -10 13 0 15 5 27 10 27 6 0 10 -6 10 -12z m-3725 -47 c-165
-158 -423 -383 -446 -389 -10 -2 -9 1 2 10 8 7 86 76 172 153 208 184 289 255
296 255 3 0 -8 -13 -24 -29z m3228 12 c-7 -2 -21 -2 -30 0 -10 3 -4 5 12 5 17
0 24 -2 18 -5z m386 -24 c20 -57 8 -78 -41 -79 -14 0 -9 98 5 103 22 9 25 7
36 -24z m-3894 11 c-3 -5 -11 -10 -16 -10 -6 0 -7 5 -4 10 3 6 11 10 16 10 6
0 7 -4 4 -10z m2167 -204 c11 -23 37 -61 57 -86 19 -24 30 -41 23 -36 -9 5
-12 -4 -11 -36 0 -24 0 -74 0 -113 -1 -83 31 -231 71 -329 33 -80 32 -76 15
-76 -29 0 -150 370 -193 590 -15 81 -18 187 -7 241 6 30 8 25 16 -40 4 -41 17
-92 29 -115z m1578 130 c0 -42 -4 -55 -17 -61 -28 -11 -123 -35 -138 -35 -17
0 -76 90 -69 102 3 4 20 8 37 9 18 0 64 9 102 19 39 10 73 18 78 19 4 0 7 -23
7 -53z m-3081 -20 c7 -8 8 -16 4 -19 -11 -7 -45 18 -36 26 10 11 19 8 32 -7z
m2279 -43 c12 -52 8 -70 -6 -32 -17 45 -22 79 -13 79 5 0 14 -21 19 -47z m130
35 c5 -7 12 -35 16 -63 l7 -50 -25 42 c-34 59 -41 83 -23 83 8 0 19 -6 25 -12z
m-1567 -104 c-23 -94 -36 -130 -51 -139 -16 -10 -6 36 26 130 14 39 26 77 28
85 3 8 5 17 6 20 1 3 4 0 6 -6 3 -6 -4 -46 -15 -90z m178 -106 c-12 -38 -24
-48 -31 -27 -2 6 -3 -11 -2 -38 1 -26 3 -48 4 -48 1 0 3 -14 4 -30 2 -17 6
-42 10 -55 11 -45 -34 61 -50 117 -16 55 -16 55 9 81 13 15 33 42 43 60 l19
34 3 -28 c2 -16 -2 -45 -9 -66z m2045 54 c-5 -24 -12 -32 -29 -32 -21 0 -73
36 -64 44 5 5 93 23 97 21 1 -1 -1 -16 -4 -33z m-2148 -80 c18 -12 24 -42 14
-63 -8 -13 -8 -31 0 -57 6 -20 13 -59 16 -87 3 -27 11 -68 17 -90 6 -22 10
-43 9 -47 -3 -12 49 -242 77 -343 14 -48 15 -64 6 -51 -22 29 -85 237 -87 283
-1 23 -5 40 -9 37 -14 -8 -59 210 -59 284 0 21 -4 32 -11 30 -16 -5 -48 -87
-48 -125 -1 -36 -18 -53 -28 -27 -11 30 -22 -13 -22 -95 -1 -42 -5 -71 -9 -65
-5 5 -17 46 -27 92 -17 74 -17 92 -6 160 19 109 24 120 58 115 21 -4 35 3 57
26 32 33 35 35 52 23z m-2051 -12 c-3 -5 -11 -10 -16 -10 -6 0 -7 5 -4 10 3 6
11 10 16 10 6 0 7 -4 4 -10z m1772 -57 c-4 -46 -3 -53 5 -35 12 24 17 26 34
14 14 -9 6 -84 -9 -75 -7 4 -8 -39 -4 -142 4 -86 3 -145 -2 -139 -8 8 -23 42
-66 149 -7 18 -9 17 -14 -10 -9 -42 -24 -30 -39 29 -10 41 -10 63 3 135 16 83
18 87 53 108 20 11 39 21 40 22 2 1 2 -25 -1 -56z m102 0 c-3 -61 -10 -87 -20
-71 -12 18 -11 65 1 89 16 28 21 23 19 -18z m-2566 -81 c-21 -27 -60 -66 -86
-87 -26 -21 -62 -52 -80 -68 -18 -16 -48 -41 -67 -56 -19 -14 -47 -37 -63 -51
-41 -35 -136 -100 -147 -100 -6 0 -10 -5 -10 -11 0 -19 102 49 205 136 58 49
115 90 115 82 0 -8 -227 -186 -287 -226 -60 -39 -91 -52 -78 -31 3 6 -1 7 -9
4 -9 -3 -13 -10 -10 -15 8 -14 -50 -11 -64 3 -23 23 -14 66 21 92 92 71 165
121 292 197 77 46 176 105 220 131 43 26 81 48 82 48 2 0 -14 -22 -34 -48z
m471 -17 c-36 -31 -54 -42 -54 -31 0 5 82 66 89 66 2 0 -13 -16 -35 -35z
m1866 -25 c-9 -48 -18 -60 -30 -40 -6 9 -4 20 3 29 7 8 11 22 9 33 -2 10 3 18
11 18 11 0 13 -9 7 -40z m-2001 4 c-56 -61 -187 -144 -177 -112 5 14 177 137
192 138 5 0 -1 -12 -15 -26z m410 10 c-14 -17 -118 -66 -131 -62 -8 3 120 76
136 77 5 1 2 -6 -5 -15z m160 -13 c-13 -10 -28 -17 -32 -14 -5 3 4 13 20 23
36 22 43 17 12 -9z m-839 5 c0 -2 -7 -7 -16 -10 -8 -3 -12 -2 -9 4 6 10 25 14
25 6z m108 -18 c-8 -12 -21 -24 -29 -26 -8 -3 -3 7 10 22 30 32 39 34 19 4z
m462 2 c0 -5 -4 -10 -10 -10 -5 0 -10 5 -10 10 0 6 5 10 10 10 6 0 10 -4 10
-10z m20 -50 c0 -11 -53 -40 -72 -40 -7 0 5 12 27 25 46 28 45 28 45 15z
m-621 -41 c-7 -13 -15 -48 -18 -78 l-6 -54 -95 -65 c-119 -81 -255 -152 -293
-152 l-28 0 21 29 c11 17 67 66 123 110 56 44 147 116 202 160 55 44 101 78
103 76 2 -2 -2 -14 -9 -26z m456 -29 c-3 -5 -12 -10 -18 -10 -7 0 -6 4 3 10
19 12 23 12 15 0z m-293 -25 c-2 -14 -8 -28 -13 -31 -5 -3 -9 -12 -9 -21 0
-21 -39 -73 -54 -73 -15 0 -32 35 -42 87 -6 34 -5 37 8 25 20 -16 68 -5 86 20
19 26 30 22 24 -7z m3858 -21 c23 -53 23 -54 12 -54 -7 0 -52 82 -52 95 0 3 4
5 10 5 5 0 18 -21 30 -46z m-1910 17 c0 -12 -20 -25 -27 -18 -7 7 6 27 18 27
5 0 9 -4 9 -9z m-1685 -31 c-3 -5 -12 -10 -20 -10 -8 0 -17 -5 -21 -11 -4 -7
0 -9 12 -6 11 3 33 8 49 11 24 5 26 4 13 -4 -10 -6 -51 -18 -90 -26 -40 -8
-95 -20 -123 -28 -27 -7 -51 -13 -53 -11 -10 8 14 35 32 35 11 1 57 13 101 29
88 32 109 36 100 21z m1848 -77 c3 -32 8 -69 12 -83 12 -47 -21 6 -40 61 -12
39 -13 54 -4 65 20 24 26 16 32 -43z m-2265 -47 c5 -24 -18 -44 -166 -141 -70
-46 -145 -97 -167 -113 -22 -16 -57 -37 -78 -47 -21 -10 -43 -25 -50 -35 -7
-10 -16 -18 -22 -20 -5 -1 -9 -6 -7 -12 1 -5 -5 -7 -15 -4 -22 7 -48 -8 -39
-22 7 -12 -185 -144 -309 -212 -44 -24 -87 -51 -95 -60 -8 -9 -11 -10 -6 -3
12 18 7 17 -50 -11 -69 -33 -94 -40 -94 -26 0 7 9 14 21 17 15 4 17 8 8 14
-17 10 1 51 33 73 72 51 378 242 468 291 58 32 141 82 185 110 44 29 109 68
145 88 36 20 99 59 140 86 79 52 93 56 98 27z m1872 -16 c0 -11 -4 -20 -9 -20
-14 0 -23 18 -16 30 10 17 25 11 25 -10z m-2529 -49 c22 -38 60 -44 126 -19
29 10 55 24 58 29 4 5 11 9 17 9 6 0 -1 -11 -16 -25 -15 -14 -31 -25 -37 -25
-5 0 -9 -4 -9 -8 0 -17 -79 -52 -118 -52 -47 0 -89 28 -79 53 8 20 27 22 27 3
0 -7 7 -19 15 -26 19 -16 19 -3 0 30 -15 27 -20 60 -7 60 4 0 14 -13 23 -29z
m699 -20 c0 -5 -7 -11 -15 -15 -15 -5 -20 5 -8 17 9 10 23 9 23 -2z m4428
-113 c-4 -12 -124 -86 -140 -87 -4 -1 -3 10 3 23 7 15 33 34 68 50 65 29 74
31 69 14z m-168 -23 c-7 -8 -39 -29 -71 -47 -65 -36 -72 -47 -14 -23 41 18 54
15 32 -7 -8 -7 -19 -23 -25 -35 -7 -12 -37 -34 -67 -49 -30 -15 -53 -30 -51
-32 2 -2 18 4 36 13 42 22 51 16 34 -23 -12 -29 -30 -41 -131 -89 -65 -30
-130 -66 -146 -79 -26 -22 -57 -32 -57 -18 0 3 5 37 11 75 9 62 17 78 62 135
68 85 146 130 285 165 59 15 109 27 111 28 2 1 -2 -6 -9 -14z m-4760 1 c0 -3
-4 -8 -10 -11 -5 -3 -10 -1 -10 4 0 6 5 11 10 11 6 0 10 -2 10 -4z m-160 -11
c0 -3 -53 -40 -117 -82 -65 -42 -122 -82 -128 -88 -14 -16 -49 -37 -156 -93
-118 -62 -171 -91 -186 -104 -7 -5 -17 -7 -23 -3 -5 3 -10 2 -10 -3 0 -4 -16
-16 -35 -25 -35 -17 -35 -17 -35 7 0 17 16 34 60 65 32 23 63 47 67 54 4 7 -4
4 -17 -6 -14 -9 -36 -22 -50 -29 -58 -26 -88 -38 -95 -38 -9 0 -60 -41 -98
-78 -25 -24 -28 -32 -23 -69 5 -40 4 -43 -17 -43 -29 0 -47 18 -47 47 0 35 25
66 83 107 29 19 82 59 118 88 37 29 82 65 100 80 103 81 371 179 579 211 14 3
26 5 28 6 1 0 2 -1 2 -4z m130 -9 c0 -2 -7 -7 -16 -10 -8 -3 -12 -2 -9 4 6 10
25 14 25 6z m3790 -84 c-20 -7 -40 7 -40 29 l0 22 26 -24 c14 -13 20 -25 14
-27z m1110 32 c0 -3 -7 -18 -16 -32 -15 -27 -129 -90 -140 -79 -15 15 33 64
84 89 60 28 72 32 72 22z m-625 -104 c-3 -5 -11 -10 -16 -10 -6 0 -7 5 -4 10
3 6 11 10 16 10 6 0 7 -4 4 -10z m535 -79 c-6 -12 -32 -32 -58 -47 -26 -14
-39 -23 -28 -19 25 7 -30 -44 -113 -107 -35 -26 -59 -48 -54 -48 6 0 51 23
102 50 51 28 98 50 106 50 30 0 23 -20 -18 -52 -56 -42 -224 -198 -214 -198 4
0 51 29 104 65 53 35 98 63 100 61 2 -1 -5 -29 -15 -61 l-17 -58 -115 -68
c-63 -38 -120 -69 -126 -69 -22 0 -35 29 -48 109 -7 44 -16 84 -19 88 -4 3
-14 -2 -21 -13 -12 -16 -16 -17 -20 -4 -11 28 -24 145 -17 151 3 4 40 19 81
34 41 16 103 41 138 56 48 22 62 25 62 14 0 -25 24 -17 44 14 12 18 45 40 85
58 68 30 80 29 61 -6z m-583 -85 c-1 -28 4 -51 14 -62 9 -11 21 -58 28 -109
13 -97 45 -186 97 -275 29 -50 80 -100 102 -100 16 0 50 -45 56 -76 4 -18 22
-49 40 -70 42 -49 85 -134 102 -199 25 -100 182 -454 220 -496 7 -8 19 -31 25
-50 7 -19 20 -45 29 -59 10 -14 36 -65 59 -114 43 -92 44 -109 11 -176 -10
-21 -118 -25 -257 -9 -102 11 -114 11 -138 -5 -14 -9 -31 -28 -37 -41 -8 -19
-15 -22 -28 -15 -11 6 -30 6 -50 0 -41 -12 -136 -93 -157 -133 -8 -18 -17 -34
-19 -35 -1 -2 -35 13 -74 34 -163 86 -282 249 -389 534 -57 151 -71 193 -99
285 -17 55 -45 144 -62 198 -16 54 -30 106 -30 117 0 10 -8 38 -19 62 -25 59
-36 124 -21 133 6 4 9 18 5 35 -5 20 5 49 39 115 25 48 48 108 51 134 14 102
45 134 233 232 23 12 42 26 42 30 0 4 17 17 38 30 20 12 51 35 67 51 37 35 96
76 112 77 7 1 11 -15 10 -43z m-4876 -130 c-17 -18 -31 -37 -31 -43 0 -17 -29
-25 -115 -30 l-80 -4 24 20 c13 12 33 21 45 22 11 0 57 19 101 42 44 23 82 38
84 34 2 -5 -11 -23 -28 -41z m-236 5 c-5 -18 -41 -38 -50 -29 -3 2 7 16 21 32
28 30 39 29 29 -3z m380 -14 c-25 -17 -87 -39 -93 -32 -3 2 8 10 24 16 16 6
38 15 49 19 31 13 42 11 20 -3z m5362 -112 c-4 -8 -11 -15 -17 -15 -7 0 -7 6
0 21 13 23 26 19 17 -6z m-1137 -6 c0 -6 -4 -7 -10 -4 -5 3 -10 11 -10 16 0 6
5 7 10 4 6 -3 10 -11 10 -16z m1030 -53 c0 -2 -7 -9 -15 -16 -13 -11 -14 -10
-9 4 5 14 24 23 24 12z m-46 -21 c3 -9 -8 -24 -32 -41 -30 -21 -32 -24 -12
-19 14 4 36 14 50 23 14 9 31 15 37 14 7 -2 26 7 43 19 16 13 33 19 37 15 5
-5 -5 -18 -21 -30 -85 -63 -146 -116 -134 -116 8 0 19 5 24 10 14 14 87 51 92
46 6 -7 -40 -90 -57 -103 -9 -6 -25 -19 -36 -28 l-20 -16 20 4 c11 3 28 8 38
12 13 5 17 2 17 -12 0 -10 5 -24 11 -30 7 -7 -5 -21 -41 -48 -62 -46 -58 -61
5 -17 25 18 48 32 50 32 14 0 2 -39 -17 -56 -34 -29 -89 -66 -93 -62 -28 30
-78 106 -94 143 -11 26 -34 62 -50 80 -27 31 -48 73 -39 79 12 10 204 116 209
116 4 0 9 -7 13 -15z m-1214 -77 c0 -4 -11 -3 -24 2 -13 5 -34 6 -47 3 -23 -6
-22 -5 6 24 l30 30 17 -26 c10 -14 18 -29 18 -33z m-228 -95 c6 -7 20 -13 33
-13 14 0 27 -10 36 -27 8 -16 17 -30 20 -33 12 -10 20 -80 9 -80 -5 0 -10 -11
-10 -25 0 -24 -2 -25 -35 -19 -28 5 -35 3 -35 -9 0 -9 5 -19 10 -22 6 -3 10
-1 10 5 0 21 45 6 48 -16 3 -19 -1 -21 -25 -16 -25 5 -27 3 -15 -11 8 -9 12
-22 10 -29 -2 -6 -18 8 -35 33 -17 24 -50 62 -72 84 -46 44 -54 79 -20 88 17
5 20 11 15 31 -5 19 -2 26 9 26 10 0 15 10 15 28 0 15 4 38 8 52 7 25 7 25 10
-5 2 -16 8 -36 14 -42z m190 6 c21 -22 38 -44 38 -48 0 -5 -30 3 -66 18 -57
22 -63 27 -45 35 12 5 21 15 21 23 0 21 12 15 52 -28z m3 -203 c8 -68 8 -68
-14 -56 -14 7 -20 17 -17 27 3 8 6 38 6 66 0 72 17 48 25 -37z m79 -47 c9 -44
8 -69 -3 -69 -5 0 -11 23 -13 50 -3 56 6 67 16 19z m1209 14 c-4 -10 -12 -22
-19 -28 -7 -5 -14 -21 -16 -35 -4 -25 -4 -25 -21 7 -22 41 -22 40 11 57 37 21
53 20 45 -1z m-1289 -66 c13 -20 5 -30 -18 -21 -9 3 -16 15 -16 26 0 22 18 20
34 -5z m-96 -46 c3 -8 -1 -12 -9 -9 -7 2 -15 10 -17 17 -3 8 1 12 9 9 7 -2 15
-10 17 -17z m261 -37 c9 -48 9 -48 -8 -27 -12 14 -16 32 -13 53 6 40 10 35 21
-26z m-89 0 c0 -8 -4 -12 -10 -9 -5 3 -10 10 -10 16 0 5 5 9 10 9 6 0 10 -7
10 -16z m-90 -61 c0 -16 -6 -23 -20 -23 -25 0 -34 21 -26 56 7 25 8 26 26 9
11 -10 20 -29 20 -42z m74 -59 c9 -8 16 -20 16 -26 0 -13 -42 14 -48 30 -5 17
14 15 32 -4z m-19 -106 c16 -24 40 -55 53 -70 20 -22 23 -31 15 -54 -5 -15
-13 -29 -19 -30 -5 -2 -28 38 -52 89 -58 125 -56 154 3 65z m155 -30 c0 -12
-14 -10 -28 4 -19 19 -14 29 8 16 11 -7 20 -16 20 -20z m1310 -60 c0 -16 -4
-28 -10 -28 -5 0 -10 19 -10 43 0 31 3 38 10 27 5 -8 10 -27 10 -42z m-32 -50
c6 -6 12 -17 12 -25 0 -10 6 -12 19 -8 30 9 46 -27 20 -43 -27 -17 -24 -34 5
-26 18 4 27 1 35 -14 8 -16 5 -23 -19 -40 l-28 -21 -25 42 c-31 53 -77 144
-77 152 0 8 41 -5 58 -17z m-1320 -16 c2 -7 -2 -11 -10 -10 -8 2 -14 -9 -16
-29 -4 -37 -17 -43 -25 -12 -11 40 38 88 51 51z m1448 -163 c9 -15 -48 -60
-60 -48 -6 5 -1 18 14 34 26 28 35 31 46 14z m58 -57 c2 -4 -18 -20 -45 -35
-59 -34 -70 -14 -11 20 41 25 49 27 56 15z m23 -100 c-9 -9 -19 -29 -22 -44
-9 -34 5 -36 46 -7 16 11 29 17 29 12 0 -5 -15 -17 -32 -28 -33 -19 -48 -33
-48 -48 0 -9 30 -2 77 20 31 14 31 14 82 -36 28 -28 65 -58 83 -67 18 -9 46
-27 61 -40 l28 -24 -26 -10 c-14 -5 -29 -10 -32 -10 -11 0 -32 -35 -33 -52 0
-23 7 -23 74 7 31 14 59 25 61 25 3 0 5 -11 5 -25 0 -35 28 -44 50 -17 12 14
24 19 39 15 25 -6 24 -5 9 -38 -10 -22 -18 -25 -67 -26 -31 -1 -75 -1 -97 0
-31 2 -43 -2 -48 -14 -9 -25 2 -37 24 -25 36 19 42 2 11 -29 -10 -10 -20 -24
-23 -31 -6 -19 -55 9 -118 67 -28 26 -66 53 -83 60 -18 7 -80 12 -139 12
l-108 1 0 36 c0 31 3 36 20 31 27 -7 93 42 113 86 22 45 21 65 -3 128 l-19 52
26 21 c57 45 57 45 66 30 6 -10 3 -22 -6 -32z m143 -77 l25 -30 -27 24 c-16
14 -28 29 -28 34 0 6 1 8 3 6 1 -2 13 -17 27 -34z m-1437 -42 c10 -21 31 -54
48 -73 l30 -35 -7 30 c-6 27 -4 25 31 -19 36 -48 37 -50 21 -77 -22 -37 -20
-48 14 -89 42 -48 42 -98 -1 -123 -31 -17 -35 -44 -5 -39 9 1 24 3 34 5 12 1
18 -6 20 -25 3 -21 -1 -27 -20 -30 -36 -5 -29 -32 10 -36 38 -4 38 -6 12 -32
-24 -24 -26 -56 -4 -64 8 -3 13 -10 9 -15 -11 -18 13 -21 56 -6 27 10 46 12
52 6 6 -6 1 -12 -16 -16 -14 -4 -33 -18 -42 -31 -14 -22 -14 -24 3 -24 10 0
40 7 66 16 46 16 48 16 71 -6 35 -33 52 -88 32 -107 -12 -12 -24 -13 -75 -3
-84 17 -133 55 -172 134 -33 67 -95 123 -159 145 -48 16 -128 14 -192 -5 -68
-21 -149 -13 -193 17 -53 36 -92 109 -58 109 4 0 17 -16 30 -35 13 -21 30 -35
42 -35 12 0 31 -6 43 -14 26 -16 105 -20 127 -6 12 8 12 11 -2 27 -15 18 -48
77 -48 88 0 3 9 5 20 5 12 0 20 -7 20 -17 0 -27 41 -63 72 -63 28 0 39 22 18
35 -6 3 -17 21 -26 38 l-17 32 25 -22 c13 -13 35 -23 47 -23 22 0 22 1 -8 42
-20 27 -31 54 -31 75 l0 34 29 -22 c23 -17 32 -19 50 -10 20 11 20 13 5 49
-32 73 -30 100 5 68 10 -9 22 -12 29 -7 10 6 8 26 -8 95 -23 100 -23 96 -12
96 5 0 16 -17 25 -37z m893 -163 c1 0 5 -11 8 -25 7 -29 30 -33 45 -7 10 16
12 16 25 0 18 -24 30 -23 49 5 17 25 32 17 42 -25 6 -24 3 -29 -21 -39 -38
-15 -170 -11 -209 6 -16 7 -43 24 -59 37 -27 23 -28 25 -11 42 15 15 29 17 74
12 31 -3 57 -5 57 -6z m-186 -60 c0 -5 -6 -10 -14 -10 -8 0 -18 5 -21 10 -3 6
3 10 14 10 12 0 21 -4 21 -10z m1122 -36 c-3 -20 0 -26 17 -31 35 -9 24 -25
-11 -18 -46 10 -52 19 -33 49 22 33 34 33 27 0z m348 2 c0 -3 -11 -26 -24 -51
-14 -25 -22 -53 -19 -61 7 -19 27 -3 43 36 11 25 30 41 30 25 0 -10 -41 -90
-55 -109 -14 -18 -16 -18 -60 -2 -25 10 -45 20 -45 22 0 8 51 76 84 112 27 28
46 40 46 28z m-226 -78 c6 -5 20 3 33 19 l23 28 -7 -40 c-3 -22 -7 -41 -8 -43
-3 -4 -95 39 -95 45 0 3 8 12 18 19 14 11 18 10 21 -4 2 -9 8 -20 15 -24z
m423 28 c10 -10 1 -13 -65 -20 -49 -4 -63 -3 -59 7 7 21 106 32 124 13z
m-2102 -56 c3 -6 18 -10 32 -10 16 0 27 -7 30 -20 7 -27 16 -25 36 10 12 20
23 27 35 23 31 -11 33 -15 18 -32 -8 -9 -18 -36 -22 -59 -4 -23 -10 -42 -14
-42 -4 0 -24 13 -45 30 -20 16 -52 35 -71 42 -19 6 -34 19 -34 28 0 8 -3 26
-7 39 -5 21 -4 22 15 12 11 -6 24 -16 27 -21z m1370 -11 c4 -6 -3 -21 -15 -34
-19 -20 -25 -22 -41 -12 -25 15 -24 19 9 39 33 20 39 21 47 7z m-1925 -29 c0
-11 -2 -20 -5 -20 -2 0 -9 9 -15 20 -9 16 -8 20 5 20 8 0 15 -9 15 -20z m789
-6 c-14 -17 -3 -67 14 -61 7 2 22 19 35 38 28 41 42 48 42 20 0 -27 8 -26 32
4 27 35 42 32 35 -8 -3 -19 -1 -40 3 -48 10 -16 12 -15 36 31 l19 35 3 -47 c2
-27 7 -48 13 -48 5 0 9 6 9 14 0 8 12 28 26 43 20 21 24 23 19 8 -27 -72 -29
-95 -13 -112 16 -15 19 -13 45 31 15 25 31 46 35 46 4 0 10 -21 14 -47 8 -54
-11 -100 -39 -95 -10 2 -17 -4 -17 -12 0 -30 -37 -38 -123 -27 -88 12 -201 58
-237 96 l-22 23 33 71 c18 38 36 68 41 65 5 -3 4 -12 -3 -20z m1199 -54 c30
-41 28 -43 -18 -20 -41 21 -50 34 -27 43 21 9 23 8 45 -23z m-2200 1 c4 -13 4
-13 -78 4 l-65 14 70 -3 c39 -2 71 -8 73 -15z m1475 -108 c9 -3 17 -9 17 -14
0 -9 -79 -33 -86 -26 -3 2 0 17 6 32 8 20 15 25 28 20 9 -4 25 -10 35 -12z
m819 -135 c-9 -20 -11 -18 -11 22 0 40 2 42 11 23 8 -17 8 -29 0 -45z m-1364
-167 c17 -17 32 -34 32 -40 0 -5 3 -18 7 -28 4 -10 -7 -2 -23 17 -16 19 -37
41 -46 48 -18 13 -24 32 -10 32 4 0 22 -13 40 -29z"/>
<path d="M6850 9435 c-8 -10 -10 -19 -4 -25 5 -5 14 1 21 16 12 27 2 32 -17 9z"/>
<path d="M7325 9200 c3 -5 8 -10 11 -10 2 0 4 5 4 10 0 6 -5 10 -11 10 -5 0
-7 -4 -4 -10z"/>
<path d="M7417 8989 c7 -7 15 -10 18 -7 3 3 -2 9 -12 12 -14 6 -15 5 -6 -5z"/>
<path d="M7496 8946 c3 -9 13 -16 22 -16 8 0 13 1 11 3 -2 1 -12 9 -22 16 -15
12 -17 12 -11 -3z"/>
<path d="M6775 7522 c-170 -90 -305 -180 -305 -204 0 -43 230 93 395 234 23
20 -26 3 -90 -30z"/>
<path d="M2290 5540 c-8 -5 -11 -10 -6 -10 5 0 3 -7 -4 -15 -11 -13 -10 -14 3
-10 11 5 33 46 24 45 -1 0 -9 -5 -17 -10z"/>
<path d="M5962 6233 c6 -8 14 -10 17 -5 3 5 13 11 21 14 8 3 0 6 -17 5 -27 0
-31 -3 -21 -14z"/>
<path d="M1300 4855 c-14 -8 -20 -14 -14 -15 5 0 19 7 30 15 24 18 16 19 -16
0z"/>
<path d="M1219 4803 c-13 -17 -13 -17 6 -3 11 8 22 16 24 17 2 2 0 3 -6 3 -6
0 -17 -8 -24 -17z"/>
<path d="M1140 4760 c-9 -6 -10 -10 -3 -10 6 0 15 5 18 10 8 12 4 12 -15 0z"/>
<path d="M1080 4730 c-8 -5 -12 -11 -9 -14 3 -3 14 1 25 9 21 16 8 20 -16 5z"/>
<path d="M993 4680 c-13 -5 -23 -12 -23 -15 0 -9 16 -5 36 10 22 16 19 18 -13
5z"/>
</g>
</svg>
